<svg id="Layer_1" xmlns="http://www.w3.org/2000/svg" viewBox="0 0 152 100"><style>.st0{stroke-linecap:round;stroke-linejoin:round}.st0,.st1{fill:none;;stroke-width:.75;stroke-miterlimit:10}.st2{stroke-linejoin:round}.st2,.st3{fill:none;;stroke-width:.75;stroke-miterlimit:10}.st3{stroke-linecap:round}</style><g id="XMLID_552_"><g id="XMLID_1247_"><path id="XMLID_1249_" class="st0" d="M43.7 46.3v1.3"/><path id="XMLID_1248_" class="st0" d="M43.1 46.9h1.3"/></g><g id="XMLID_1244_"><path id="XMLID_1246_" class="st0" d="M40.6 50.6v1.3"/><path id="XMLID_1245_" class="st0" d="M40 51.3h1.3"/></g><g id="XMLID_1241_"><path id="XMLID_1243_" class="st0" d="M12.5 65.2l1 .9"/><path id="XMLID_1242_" class="st0" d="M12.5 66.1l1-.9"/></g><g id="XMLID_1238_"><path id="XMLID_1240_" class="st0" d="M12.4 55.4l1 .9"/><path id="XMLID_1239_" class="st0" d="M12.4 56.3l1-.9"/></g><g id="XMLID_1235_"><path id="XMLID_1237_" class="st0" d="M27.7 37.4l.9.9"/><path id="XMLID_1236_" class="st0" d="M27.7 38.3l.9-.9"/></g><g id="XMLID_1230_"><path id="XMLID_1234_" class="st0" d="M111.7 16.7V18"/><path id="XMLID_1233_" class="st0" d="M111 17.4h1.4"/></g><g id="XMLID_1222_"><path id="XMLID_1227_" class="st0" d="M110.3 8.3v1.3"/><path id="XMLID_1225_" class="st0" d="M109.7 9h1.3"/></g><g id="XMLID_1218_"><path id="XMLID_1220_" class="st0" d="M98.7 5.7V7"/><path id="XMLID_1219_" class="st0" d="M98.1 6.3h1.3"/></g><g id="XMLID_1206_"><path id="XMLID_1217_" class="st0" d="M86.4 7v1.3"/><path id="XMLID_1210_" class="st0" d="M85.7 7.6h1.4"/></g><g id="XMLID_1201_"><path id="XMLID_1203_" class="st0" d="M97.7 21.7l.9.9"/><path id="XMLID_1202_" class="st0" d="M97.7 22.6l.9-1"/></g><g id="XMLID_1194_"><path id="XMLID_1199_" class="st0" d="M83.2 16.6l.9.9"/><path id="XMLID_1197_" class="st0" d="M83.2 17.5l.9-.9"/></g><g id="XMLID_1191_"><path id="XMLID_1193_" class="st0" d="M20.7 55.9v1.3"/><path id="XMLID_1192_" class="st0" d="M20.1 56.6h1.3"/></g><path id="XMLID_1190_" class="st0" d="M10.5 71.1h7.1-7.1z"/><path id="XMLID_1188_" class="st0" d="M6.6 71.1H7.2h-.6z"/><path id="XMLID_1272_" class="st0" d="M145.4 71.8h-10.5l-23.3-41 5-8.7z"/><path id="XMLID_1266_" class="st0" d="M134.9 71.8h-23.7c-.3-7.2-6.3-12.9-13.5-12.9-.9 0-1.7.1-2.5.2-6.1 1.1-10.7 6.3-11 12.6h-15l2.3-4.8h1.8v-5h-.1l-.3-.2-3.4-2.1.1-.2L88 26l2.4 3.1 4.7-2.4 3.6 2.8 3.5-2.8 4.5 2.5 2.7-3v-.1l2.1 4.7 23.4 41z"/><path id="XMLID_1063_" class="st0" d="M65.3 67h6.1l-2.3 4.8"/><g id="XMLID_1172_"><path id="XMLID_1185_" class="st0" d="M127.2 74.2v20.1"/><g id="XMLID_1182_"><path id="XMLID_1184_" class="st0" d="M127.2 74.2l3.2 2.4"/><path id="XMLID_1183_" class="st0" d="M127.2 74.2l-3.1 2.4"/></g><g id="XMLID_1179_"><path id="XMLID_1181_" class="st0" d="M127.2 77.4l3.2 2.5"/><path id="XMLID_1180_" class="st0" d="M127.2 77.4l-3.1 2.5"/></g><g id="XMLID_1176_"><path id="XMLID_1178_" class="st0" d="M127.2 80.5l3.2 2.5"/><path id="XMLID_1177_" class="st0" d="M127.2 80.5l-3.1 2.5"/></g><g id="XMLID_1173_"><path id="XMLID_1175_" class="st0" d="M127.2 83.7l3.2 2.5"/><path id="XMLID_1174_" class="st0" d="M127.2 83.7l-3.1 2.5"/></g></g><g id="XMLID_1142_"><path id="XMLID_1171_" class="st0" d="M136.6 74v15.2"/><g id="XMLID_1168_"><path id="XMLID_1170_" class="st0" d="M136.6 74l2.4 1.9"/><path id="XMLID_1169_" class="st0" d="M136.6 74l-2.3 1.9"/></g><g id="XMLID_1164_"><path id="XMLID_1165_" class="st0" d="M136.6 76.4l-2.3 1.9"/></g><g id="XMLID_1160_"><path id="XMLID_1163_" class="st0" d="M136.6 78.8l2.4 1.9"/></g><g id="XMLID_1143_"><path id="XMLID_1159_" class="st0" d="M136.6 81.2l2.4 1.9"/><path id="XMLID_1158_" class="st0" d="M136.6 81.2l-2.3 1.9"/></g></g><g id="XMLID_1130_"><path id="XMLID_1141_" class="st0" d="M121 59.3v21.3"/><g id="XMLID_1138_"><path id="XMLID_1140_" class="st0" d="M121 59.3l3.9 3.2"/><path id="XMLID_1139_" class="st0" d="M121 59.3l-4 3.2"/></g><g id="XMLID_1135_"><path id="XMLID_1137_" class="st0" d="M121 63.4l3.9 3.1"/><path id="XMLID_1136_" class="st0" d="M121 63.4l-4 3.1"/></g><g id="XMLID_1131_"><path id="XMLID_1132_" class="st0" d="M121 67.4l-4 3.2"/></g></g><path id="XMLID_1125_" class="st0" d="M108.7 93.3H32.4"/><path id="XMLID_1124_" class="st0" d="M108.7 88.6H76.6"/><path id="XMLID_1123_" class="st0" d="M95.1 77.8H89"/><path id="XMLID_1121_" class="st0" d="M99 77.8h-2"/><path id="XMLID_1115_" class="st0" d="M74.7 88.6h-4"/><path id="XMLID_1113_" class="st0" d="M108.7 80H88.8"/><path id="XMLID_1112_" class="st0" d="M99.6 74.7H88.4"/><path id="XMLID_1111_" class="st0" d="M98.7 10.9V17"/><path id="XMLID_1106_" class="st0" d="M90 14.5l4.4 4.3"/><path id="XMLID_1105_" class="st0" d="M86.4 23.2h6.1"/><path id="XMLID_1096_" class="st0" d="M111 23.2h-6.1"/><path id="XMLID_1095_" class="st0" d="M107.4 14.5l-4.3 4.4"/><g id="XMLID_1033_"><g id="XMLID_1086_"><path id="XMLID_1089_" class="st1" d="M42.6 40.5l-7.8 4.3-1.1-2 5.8-3.2c1.1-.6 2.5-.2 3.1.9z"/><path id="XMLID_1085_" class="st1" d="M28.6 48.2l-7.8 4.3c-.6-1.1-.2-2.5.9-3.1l5.8-3.2 1.1 2z"/><path id="XMLID_1047_" class="st1" d="M37.5 59.5l-.1-.2-4.4-8 2.1-1.2 4.4 8 .1.2"/><path id="XMLID_1276_" class="st2" d="M35.2 50.1L33 51.3h-.1c-.4.2-1 .1-1.2-.3l-1.3-2.3-.4.2c-.4.2-1 .1-1.2-.3l-.2-.4-1.1-2-.2-.4c-.2-.4-.1-1 .3-1.2l4.7-2.6c.4-.2 1-.1 1.2.3l.2.4 1.1 2 .2.4c.2.4.1 1-.3 1.2l-.4.2 1.3 2.3c.2.5 0 1-.4 1.3z"/></g><g id="XMLID_1046_"><path id="XMLID_1186_" class="st0" d="M73.1 62H51.9l3.5-2.1.1-.1 1-.6 2.3-1.4.1-.1 3.6-2.2 6.8 4.2 3.4 2.1z"/><g id="XMLID_1080_"><path id="XMLID_1292_" class="st1" d="M56 67h-2.7"/><path id="XMLID_6_" class="st1" d="M60.5 52.5L59 57.6l-.1.1-.1.1-2.3 1.4-1 .6.1-.1.2-.9.1-.2 2.2-6.9"/><path id="XMLID_1082_" class="st1" d="M64.3 53.7l-10-3.1 2.1-6.8c.9-2.8 3.8-4.3 6.6-3.4 2.8.9 4.3 3.8 3.4 6.6l-2.1 6.7z"/><path id="XMLID_1081_" class="st3" d="M59.8 50.5l1.1-3.4"/></g><path id="XMLID_1079_" class="st0" d="M70.4 83.8h-2.7"/><path id="XMLID_1078_" class="st0" d="M69.7 82.4v2.8"/><path id="XMLID_1077_" class="st0" d="M25.9 83.8h2.7"/><path id="XMLID_1076_" class="st0" d="M26.5 82.4v2.8"/><path id="XMLID_1187_" class="st0" d="M23.1 62h50.1v5H23.1z"/><path id="XMLID_1289_" class="st0" d="M32.5 85.7h-3.9v-3.8h3.9"/><path id="XMLID_1288_" class="st0" d="M64 85.7h3.7v-3.8H64"/><path id="XMLID_1075_" class="st0" d="M51.9 85.7h-7.4"/><path id="XMLID_1129_" class="st0" d="M51.9 81.9h-7.4"/><path id="XMLID_1065_" class="st0" d="M32.4 82.4l-.3-.5L24.9 67H71.4l-2.3 4.8-4.9 10.1-.2.4"/><path id="XMLID_1072_" class="st0" d="M27.1 70.9h41.7"/><path id="XMLID_1066_" class="st0" d="M67.7 74.7H29.1"/><path id="XMLID_1291_" class="st0" d="M44.5 81.9c-.8-2.6-3.2-4.4-6-4.4s-5.2 1.9-6 4.4c0 .2-.1.3-.1.5-.1.4-.2.9-.2 1.4 0 .7.1 1.3.3 1.9.8 2.6 3.2 4.4 6 4.4s5.2-1.9 6-4.4c.2-.6.3-1.2.3-1.9 0-.6-.1-1.3-.3-1.9zm-4.7 3.8c-.4.2-.8.4-1.2.4-.5 0-.9-.1-1.2-.4-.6-.4-1-1.1-1-1.9 0-.8.4-1.5 1-1.9.4-.2.8-.4 1.2-.4.5 0 .9.1 1.2.4.6.4 1 1.1 1 1.9 0 .8-.4 1.5-1 1.9z"/><path id="XMLID_1275_" class="st0" d="M40.8 83.8c0 .8-.4 1.5-1 1.9-.4.2-.8.4-1.2.4-.5 0-.9-.1-1.2-.4-.6-.4-1-1.1-1-1.9 0-.8.4-1.5 1-1.9.4-.2.8-.4 1.2-.4.5 0 .9.1 1.2.4.6.4 1 1.1 1 1.9z"/><path id="XMLID_1296_" class="st0" d="M64 82.3c0-.1-.1-.2-.1-.3-.8-2.6-3.2-4.4-6-4.4s-5.2 1.9-6 4.4c-.2.6-.3 1.2-.3 1.9s.1 1.3.3 1.9c.8 2.6 3.2 4.4 6 4.4s5.2-1.9 6-4.4c.2-.6.3-1.2.3-1.9 0-.6 0-1.1-.2-1.6zm-4.8 3.4c-.3.2-.8.4-1.2.4s-.9-.1-1.2-.4c-.6-.4-1-1.1-1-1.9 0-.8.4-1.5 1-1.9.4-.2.8-.4 1.2-.4s.9.1 1.2.4c.6.4 1 1.1 1 1.9 0 .8-.4 1.5-1 1.9z"/><path id="XMLID_1267_" class="st0" d="M60.2 83.8c0 .8-.4 1.5-1 1.9-.3.2-.8.4-1.2.4s-.9-.1-1.2-.4c-.6-.4-1-1.1-1-1.9 0-.8.4-1.5 1-1.9.4-.2.8-.4 1.2-.4s.9.1 1.2.4c.6.4 1 1.1 1 1.9z"/><path id="XMLID_1083_" class="st0" d="M60.2 83.8c0 .8-.4 1.5-1 1.9-.3.2-.8.4-1.2.4s-.9-.1-1.2-.4c-.6-.4-1-1.1-1-1.9 0-.8.4-1.5 1-1.9.4-.2.8-.4 1.2-.4s.9.1 1.2.4c.6.4 1 1.1 1 1.9z"/><path id="XMLID_1271_" class="st0" d="M40.8 83.8c0 .8-.4 1.5-1 1.9-.4.2-.8.4-1.2.4-.5 0-.9-.1-1.2-.4-.6-.4-1-1.1-1-1.9 0-.8.4-1.5 1-1.9.4-.2.8-.4 1.2-.4.5 0 .9.1 1.2.4.6.4 1 1.1 1 1.9z"/><path id="XMLID_1273_" class="st0" d="M39.4 62H23.1l8.2-5 4.9 3.1z"/><path id="XMLID_1269_" class="st0" d="M55.8 58.8l-.2.9-.1.1-.1.1-3.5 2.1H39.4l-3.2-1.9 1.7-1h.1l2.5-1.4h.1l6.6-3.6z"/><path id="XMLID_1268_" class="st0" d="M56.5 59.2l-1 .6.1-.1.2-.9h.1z"/></g><g id="XMLID_1041_"><path id="XMLID_1045_" class="st0" d="M12.5 61.3H16.1h-3.6z"/><path id="XMLID_1044_" class="st0" d="M9.5 61.3H10.3h-.8z"/></g><g id="XMLID_1035_"><path id="XMLID_1037_" class="st0" d="M23.2 77.3h-5.8 5.8z"/></g></g><path id="XMLID_1030_" class="st0" d="M108.3 80c3.7 0 6.6 3 6.6 6.6 0 3.7-3 6.6-6.6 6.6"/><path id="XMLID_1029_" class="st0" d="M88.5 80c-1.5 0-2.6-1.2-2.6-2.6s1.2-2.6 2.6-2.6"/><path id="XMLID_1028_" class="st0" d="M101.4 70.2c.5.5.8 1.1.8 1.9 0 1.5-1.2 2.6-2.6 2.6"/></g></svg>