<svg id="Layer_1" data-name="Layer 1" xmlns="http://www.w3.org/2000/svg" xmlns:xlink="http://www.w3.org/1999/xlink" width="155.46" height="65.68" viewBox="0 0 155.46 65.68"><defs><style>.cls-1{fill:#a590a0;}.cls-2{fill:#fef7ca;}</style><symbol id="S-Dark" data-name="S-Dark" viewBox="0 0 31.05 32.8"><g id="S-Dark-2-2" data-name="S-Dark-2"><g id="_Group_11" data-name=" Group 11"><path id="_Compound_Path_11" data-name=" Compound Path 11" class="cls-1" d="M15.54,32.8L0,16.4,15.54,0,31.05,16.4ZM1.19,16.4L15.54,31.57,29.88,16.4,15.54,1.24Z"/></g><g id="_Group_12" data-name=" Group 12"><path id="_Compound_Path_12" data-name=" Compound Path 12" class="cls-1" d="M18.21,14.71a7.79,7.79,0,0,0-.88-0.45,8.17,8.17,0,0,0-.86-0.32,3.1,3.1,0,0,0-.93-0.15,1.3,1.3,0,0,0-.59.11,0.4,0.4,0,0,0-.22.38,0.44,0.44,0,0,0,.13.33,1.21,1.21,0,0,0,.37.23,4.59,4.59,0,0,0,.59.21l0.79,0.24a10.41,10.41,0,0,1,1.25.47,3.91,3.91,0,0,1,1,.6,2.33,2.33,0,0,1,.61.84,3.06,3.06,0,0,1,.21,1.2,3.18,3.18,0,0,1-.33,1.52,2.73,2.73,0,0,1-.88,1,3.71,3.71,0,0,1-1.23.53,6,6,0,0,1-1.38.16,7.84,7.84,0,0,1-1.13-.08,9.82,9.82,0,0,1-1.16-.24,10.15,10.15,0,0,1-1.11-.37,7,7,0,0,1-1-.48L12.62,18a8.31,8.31,0,0,0,1,.55,7.34,7.34,0,0,0,1,.38,4.1,4.1,0,0,0,1.17.17,1.19,1.19,0,0,0,.7-0.1,0.37,0.37,0,0,0,.18-0.32,0.46,0.46,0,0,0-.18-0.36A1.63,1.63,0,0,0,16,18.05l-0.72-.23-0.86-.27a7.37,7.37,0,0,1-1.15-.49,3.11,3.11,0,0,1-.79-0.6A2.13,2.13,0,0,1,12,15.71a3,3,0,0,1-.15-1,3.38,3.38,0,0,1,.3-1.47,3,3,0,0,1,.85-1,3.7,3.7,0,0,1,1.2-.64,4.56,4.56,0,0,1,1.42-.22,5.41,5.41,0,0,1,1.08.11,8.67,8.67,0,0,1,1,.27,9.67,9.67,0,0,1,.91.35l0.77,0.36Z"/></g></g></symbol><symbol id="W-Dark" data-name="W-Dark" viewBox="0 0 31 32.8"><g id="W-Dark-2-2" data-name="W-Dark-2"><g id="_Group_13" data-name=" Group 13"><path id="_Compound_Path_13" data-name=" Compound Path 13" class="cls-1" d="M15.52,32.8L0,16.4,15.52,0,31,16.4ZM1.17,16.4L15.52,31.57,29.87,16.4,15.52,1.24Z"/></g><g id="_Group_14" data-name=" Group 14"><path id="_Compound_Path_14" data-name=" Compound Path 14" class="cls-1" d="M23.66,11.36l-3.1,10.06H17.69L15.51,15.9l-2.17,5.54H10.48L7.38,11.38h3.13l1.69,5.88L14,11.38h3l1.83,5.87,1.67-5.88h3.16Z"/></g></g></symbol><symbol id="N-Dark" data-name="N-Dark" viewBox="0 0 31.07 32.8"><g id="N-Dark-2-2" data-name="N-Dark-2"><g id="_Group_15" data-name=" Group 15"><path id="_Compound_Path_15" data-name=" Compound Path 15" class="cls-1" d="M15.55,32.8L0,16.4,15.55,0,31.07,16.4ZM1.2,16.4L15.55,31.57,29.9,16.4,15.55,1.24Z"/></g><g id="_Group_16" data-name=" Group 16"><path id="_Compound_Path_16" data-name=" Compound Path 16" class="cls-1" d="M13.84,16.49v4.95H11.08V11.37h2.15l4,5.12V11.37H20V21.43H17.8Z"/></g></g></symbol><symbol id="C-Dark" data-name="C-Dark" viewBox="0 0 31.04 32.8"><g id="C-Dark-2-2" data-name="C-Dark-2"><g id="_Group_17" data-name=" Group 17"><path id="_Compound_Path_17" data-name=" Compound Path 17" class="cls-1" d="M15.52,32.8L0,16.4,15.52,0,31,16.4ZM1.17,16.4L15.52,31.57,29.87,16.4,15.52,1.24Z"/></g><g id="_Group_18" data-name=" Group 18"><path id="_Compound_Path_18" data-name=" Compound Path 18" class="cls-1" d="M11.12,16.41a5.25,5.25,0,0,1,.33-1.81,4.89,4.89,0,0,1,2.48-2.75,4.61,4.61,0,0,1,2-.44,4.5,4.5,0,0,1,2.35.6,3.74,3.74,0,0,1,1.49,1.59l-2.11,1.5a1.87,1.87,0,0,0-.33-0.61,1.76,1.76,0,0,0-.45-0.38,1.69,1.69,0,0,0-.51-0.2,2.44,2.44,0,0,0-.5-0.06,1.67,1.67,0,0,0-.9.23,2,2,0,0,0-.62.61,2.64,2.64,0,0,0-.36.85,4,4,0,0,0-.11.94,3.72,3.72,0,0,0,.13,1,2.7,2.7,0,0,0,.4.85,2,2,0,0,0,.64.59,1.67,1.67,0,0,0,.86.22,2,2,0,0,0,.5-0.06,1.65,1.65,0,0,0,.49-0.21,1.76,1.76,0,0,0,.73-1l2.3,1.4a2.87,2.87,0,0,1-.64,1,4.1,4.1,0,0,1-1,.74,5.07,5.07,0,0,1-1.18.45,5,5,0,0,1-1.22.16A4.19,4.19,0,0,1,14,21.17,4.86,4.86,0,0,1,12.46,20a5.59,5.59,0,0,1-1-1.67A5.32,5.32,0,0,1,11.12,16.41Z"/></g></g></symbol><symbol id="G-Dark" data-name="G-Dark" viewBox="0 0 31.04 32.8"><g id="G-Dark-2-2" data-name="G-Dark-2"><g id="_Group_19" data-name=" Group 19"><path id="_Compound_Path_19" data-name=" Compound Path 19" class="cls-1" d="M15.52,32.8L0,16.4,15.52,0,31,16.4ZM1.17,16.4L15.52,31.57,29.87,16.4,15.52,1.24Z"/></g><g id="_Group_20" data-name=" Group 20"><path id="_Compound_Path_20" data-name=" Compound Path 20" class="cls-1" d="M17.19,20.76a3.16,3.16,0,0,1-2.24.91,4,4,0,0,1-1.8-.43,4.92,4.92,0,0,1-1.49-1.15,5.6,5.6,0,0,1-1.39-3.71,5.24,5.24,0,0,1,.38-2,4.92,4.92,0,0,1,2.63-2.7,4.81,4.81,0,0,1,1.95-.4,5,5,0,0,1,1.24.15,4.22,4.22,0,0,1,2,1.15,3.75,3.75,0,0,1,.66.93L17,15.11a2.24,2.24,0,0,0-.79-1,1.92,1.92,0,0,0-1.12-.37,1.64,1.64,0,0,0-.8.2,2,2,0,0,0-.63.56,2.8,2.8,0,0,0-.42.86,4,4,0,0,0,0,2.18,2.62,2.62,0,0,0,.43.84,1.93,1.93,0,0,0,.66.55,1.84,1.84,0,0,0,.84.19,2.09,2.09,0,0,0,1-.26,3.17,3.17,0,0,0,.9-0.75h-1.8v-2h4.21V21.6H17.2V20.76h0Z"/></g></g></symbol><symbol id="W-Light" data-name="W-Light" viewBox="0 0 31 32.8"><g id="W-Dark-3" data-name="W-Dark"><g id="_Group_3" data-name=" Group 3"><path id="_Compound_Path_3" data-name=" Compound Path 3" class="cls-2" d="M15.52,32.8L0,16.4,15.52,0,31,16.4ZM1.17,16.4L15.52,31.57,29.87,16.4,15.52,1.24Z"/></g><g id="_Group_4" data-name=" Group 4"><path id="_Compound_Path_4" data-name=" Compound Path 4" class="cls-2" d="M23.66,11.36l-3.1,10.06H17.69L15.51,15.9l-2.17,5.54H10.48L7.38,11.38h3.13l1.69,5.88L14,11.38h3l1.83,5.87,1.67-5.88h3.16Z"/></g></g></symbol><symbol id="S-Light" data-name="S-Light" viewBox="0 0 31.05 32.8"><g id="S-Dark-3" data-name="S-Dark"><g id="_Group_" data-name=" Group "><path id="_Compound_Path_" data-name=" Compound Path " class="cls-2" d="M15.54,32.8L0,16.4,15.54,0,31.05,16.4ZM1.19,16.4L15.54,31.57,29.88,16.4,15.54,1.24Z"/></g><g id="_Group_2" data-name=" Group 2"><path id="_Compound_Path_2" data-name=" Compound Path 2" class="cls-2" d="M18.21,14.71a7.79,7.79,0,0,0-.88-0.45,8.17,8.17,0,0,0-.86-0.32,3.1,3.1,0,0,0-.93-0.15,1.3,1.3,0,0,0-.59.11,0.4,0.4,0,0,0-.22.38,0.44,0.44,0,0,0,.13.33,1.21,1.21,0,0,0,.37.23,4.59,4.59,0,0,0,.59.21l0.79,0.24a10.41,10.41,0,0,1,1.25.47,3.91,3.91,0,0,1,1,.6,2.33,2.33,0,0,1,.61.84,3.06,3.06,0,0,1,.21,1.2,3.18,3.18,0,0,1-.33,1.52,2.73,2.73,0,0,1-.88,1,3.71,3.71,0,0,1-1.23.53,6,6,0,0,1-1.38.16,7.84,7.84,0,0,1-1.13-.08,9.82,9.82,0,0,1-1.16-.24,10.15,10.15,0,0,1-1.11-.37,7,7,0,0,1-1-.48L12.62,18a8.31,8.31,0,0,0,1,.55,7.34,7.34,0,0,0,1,.38,4.1,4.1,0,0,0,1.17.17,1.19,1.19,0,0,0,.7-0.1,0.37,0.37,0,0,0,.18-0.32,0.46,0.46,0,0,0-.18-0.36A1.63,1.63,0,0,0,16,18l-0.72-.23-0.86-.27a7.37,7.37,0,0,1-1.15-.49,3.11,3.11,0,0,1-.79-0.6A2.13,2.13,0,0,1,12,15.71a3,3,0,0,1-.15-1,3.38,3.38,0,0,1,.3-1.47,3,3,0,0,1,.85-1,3.7,3.7,0,0,1,1.2-.64,4.56,4.56,0,0,1,1.42-.22,5.41,5.41,0,0,1,1.08.11,8.67,8.67,0,0,1,1,.27,9.67,9.67,0,0,1,.91.35l0.77,0.36Z"/></g></g></symbol><symbol id="N-Light" data-name="N-Light" viewBox="0 0 31.07 32.8"><g id="N-Dark-3" data-name="N-Dark"><g id="_Group_5" data-name=" Group 5"><path id="_Compound_Path_5" data-name=" Compound Path 5" class="cls-2" d="M15.55,32.8L0,16.4,15.55,0,31.07,16.4ZM1.2,16.4L15.55,31.57,29.9,16.4,15.55,1.24Z"/></g><g id="_Group_6" data-name=" Group 6"><path id="_Compound_Path_6" data-name=" Compound Path 6" class="cls-2" d="M13.84,16.49v4.95H11.08V11.37h2.15l4,5.12V11.37H20V21.43H17.8Z"/></g></g></symbol><symbol id="G-Light" data-name="G-Light" viewBox="0 0 31.04 32.8"><g id="G-Dark-3" data-name="G-Dark"><g id="_Group_9" data-name=" Group 9"><path id="_Compound_Path_9" data-name=" Compound Path 9" class="cls-2" d="M15.52,32.8L0,16.4,15.52,0,31,16.4ZM1.17,16.4L15.52,31.57,29.87,16.4,15.52,1.24Z"/></g><g id="_Group_10" data-name=" Group 10"><path id="_Compound_Path_10" data-name=" Compound Path 10" class="cls-2" d="M17.19,20.76a3.16,3.16,0,0,1-2.24.91,4,4,0,0,1-1.8-.43,4.92,4.92,0,0,1-1.49-1.15,5.6,5.6,0,0,1-1.39-3.71,5.24,5.24,0,0,1,.38-2,4.92,4.92,0,0,1,2.63-2.7,4.81,4.81,0,0,1,1.95-.4,5,5,0,0,1,1.24.15,4.22,4.22,0,0,1,2,1.15,3.75,3.75,0,0,1,.66.93L17,15.11a2.24,2.24,0,0,0-.79-1,1.92,1.92,0,0,0-1.12-.37,1.64,1.64,0,0,0-.8.2,2,2,0,0,0-.63.56,2.8,2.8,0,0,0-.42.86,4,4,0,0,0,0,2.18,2.62,2.62,0,0,0,.43.84,1.93,1.93,0,0,0,.66.55,1.84,1.84,0,0,0,.84.19,2.09,2.09,0,0,0,1-.26,3.17,3.17,0,0,0,.9-0.75h-1.8v-2h4.21V21.6H17.2V20.76h0Z"/></g></g></symbol><symbol id="C-Light" data-name="C-Light" viewBox="0 0 31.04 32.8"><g id="C-Dark-3" data-name="C-Dark"><g id="_Group_7" data-name=" Group 7"><path id="_Compound_Path_7" data-name=" Compound Path 7" class="cls-2" d="M15.52,32.8L0,16.4,15.52,0,31,16.4ZM1.17,16.4L15.52,31.57,29.87,16.4,15.52,1.24Z"/></g><g id="_Group_8" data-name=" Group 8"><path id="_Compound_Path_8" data-name=" Compound Path 8" class="cls-2" d="M11.12,16.41a5.25,5.25,0,0,1,.33-1.81,4.89,4.89,0,0,1,2.48-2.75,4.61,4.61,0,0,1,2-.44,4.5,4.5,0,0,1,2.35.6,3.74,3.74,0,0,1,1.49,1.59l-2.11,1.5a1.87,1.87,0,0,0-.33-0.61,1.76,1.76,0,0,0-.45-0.38,1.69,1.69,0,0,0-.51-0.2,2.44,2.44,0,0,0-.5-0.06,1.67,1.67,0,0,0-.9.23,2,2,0,0,0-.62.61,2.64,2.64,0,0,0-.36.85,4,4,0,0,0-.11.94,3.72,3.72,0,0,0,.13,1,2.7,2.7,0,0,0,.4.85,2,2,0,0,0,.64.59,1.67,1.67,0,0,0,.86.22,2,2,0,0,0,.5-0.06,1.65,1.65,0,0,0,.49-0.21,1.76,1.76,0,0,0,.73-1l2.3,1.4a2.87,2.87,0,0,1-.64,1,4.1,4.1,0,0,1-1,.74,5.07,5.07,0,0,1-1.18.45,5,5,0,0,1-1.22.16A4.19,4.19,0,0,1,14,21.17,4.86,4.86,0,0,1,12.46,20a5.59,5.59,0,0,1-1-1.67A5.32,5.32,0,0,1,11.12,16.41Z"/></g></g></symbol></defs><title>diamonds</title><use width="31.05" height="32.8" transform="translate(31.08 32.88)" xlink:href="#S-Dark"/><use width="31" height="32.8" transform="translate(0 32.88)" xlink:href="#W-Dark"/><use width="31.07" height="32.8" transform="translate(62.18 32.88)" xlink:href="#N-Dark"/><use width="31.04" height="32.8" transform="translate(124.42 32.88)" xlink:href="#C-Dark"/><use width="31.04" height="32.8" transform="translate(93.31 32.88)" xlink:href="#G-Dark"/><use width="31" height="32.8" xlink:href="#W-Light"/><use width="31.05" height="32.8" transform="translate(31.08)" xlink:href="#S-Light"/><use width="31.07" height="32.8" transform="translate(62.18 0.07)" xlink:href="#N-Light"/><use width="31.04" height="32.8" transform="translate(93.31)" xlink:href="#G-Light"/><use width="31.04" height="32.8" transform="translate(124.42 0.08)" xlink:href="#C-Light"/></svg>