<svg id="Layer_1" xmlns="http://www.w3.org/2000/svg" viewBox="0 0 152 100"><style>.st0{fill:none;stroke-width:.75;stroke-linecap:round;stroke-linejoin:round;stroke-miterlimit:10}</style><g id="XMLID_1449_"><path id="XMLID_1489_" class="st0" d="M30.8 52.2c-.1-.3-.2-.5-.2-.8 0-1.2 1-2.2 2.2-2.2h2.5c1.2 0 2.2-1 2.2-2.2 0-1.2-1-2.2-2.2-2.2h-2.5c-1.2 0-2.2-1-2.2-2.2 0-1.2 1-2.2 2.2-2.2H49c1.2 0 2.2 1 2.2 2.2 0 1.2-1 2.2-2.2 2.2h-3.1c-1.2 0-2.2 1-2.2 2.2 0 1.2 1 2.2 2.2 2.2H49c1.2 0 2.2 1 2.2 2.2 0 1.2-1 2.2-2.2 2.2h8.6c-1.2 0-2.2-1-2.2-2.2 0-1.2 1-2.2 2.2-2.2h5.9c1.2 0 2.2-1 2.2-2.2 0-1.2-1-2.2-2.2-2.2h-5.9c-1.2 0-2.2-1-2.2-2.2 0-1.2 1-2.2 2.2-2.2H70c1.5 0 2.7-1 2.7-2.2S71.5 36 70 36h-.8C68 36 67 35 67 33.8c0-1.2 1-2.2 2.2-2.2h7.6c.9 0 1.7-1 1.7-2.2 0-1.2-.8-2.2-1.7-2.2H52.2c-.9 0-1.7 1-1.7 2.2 0 1.2.8 2.2 1.7 2.2h8.5c1.2 0 2.2 1 2.2 2.2 0 1.2-1 2.2-2.2 2.2H24.4c-1.5 0-2.5 1-2.5 2.2 0 1.2 1 2.2 2.4 2.2h.1c1.2.1 2.2 1 2.2 2.2 0 1.2-1 2.2-2.2 2.2h-9c-1.2 0-2.2 1-2.2 2.2 0 1.2 1 2.2 2.2 2.2h9c1.2 0 2.2 1 2.2 2.2 0 .3-.1.6-.2.8"/><path id="XMLID_1451_" class="st0" d="M38.9 31.3H45c1.1 0 1.9-.9 1.9-1.9v-.6c0-1.1-.9-1.9-1.9-1.9h-6.1c-1.1 0-1.9.9-1.9 1.9v.6c0 1 .9 1.9 1.9 1.9z"/></g><g id="XMLID_1428_"><path id="XMLID_1486_" class="st0" d="M40.8 55.6c-1.1-2.1-2.7-3.4-7.7-3.4H21c-4.8 0-6.3 2.3-7.8 5.8l-.5 1.4h-1.2c-1.8 0-3.2 1.4-3.2 3.2 0 .5.2 1 .4 1.5.2.4.6.6 1 .6h1.1l-.2.4c-.5 1.4-.7 2.9-.7 4.3V76c0 2.1 1.6 3.7 3.7 3.7 2 0 3.7-1.7 3.7-3.7h16.6"/><g id="XMLID_1446_"><circle id="XMLID_1447_" class="st0" cx="18.3" cy="68.1" r="2.6"/></g><path id="XMLID_1488_" class="st0" d="M33.8 62.7H15.7l.6-4.4c.2-1.9 1.9-3.3 3.9-3.3H35c1.9 0 3.6 1.3 3.8 3.1"/><path id="XMLID_1444_" class="st0" d="M21.1 72.9h12.8"/></g><g id="XMLID_1321_"><path id="XMLID_1419_" class="st0" d="M77.3 65.9c0 .5-.2 1.2-.5 1.8-.2.4-.7.7-1.2.7h-1.3l.2.5c.5 1.6.8 3.4.8 5.1v7.6c0 2.4-1.9 4.4-4.4 4.4-2.4 0-4.3-2-4.3-4.4h-24c0 2.4-1.9 4.4-4.3 4.4s-4.4-2-4.4-4.4V74c0-1.7.3-3.4.8-5.1l.2-.5h-1.3c-.5 0-.9-.3-1.2-.7-.3-.5-.5-1.2-.5-1.8 0-2.1 1.7-3.8 3.8-3.8h1.4l.6-1.6c1.7-4.2 3.5-6.9 9.2-6.9h14.3c7.8 0 8.5 2.7 10.3 6.9l.6 1.6h1.4c2.1 0 3.8 1.7 3.8 3.8z"/><g id="XMLID_1401_"><circle id="XMLID_1418_" class="st0" cx="43.7" cy="72.3" r="3.1"/><circle id="XMLID_1410_" class="st0" cx="65.5" cy="72.3" r="3.1"/></g><path id="XMLID_1392_" class="st0" d="M68.6 66H40.7l.6-5.1c.3-2.2 2.2-3.8 4.5-3.8h17.5c2.3 0 4.3 1.6 4.5 3.8l.8 5.1z"/><path id="XMLID_1383_" class="st0" d="M47.1 78h15.1"/><g id="XMLID_1342_"><path id="XMLID_1346_" class="st0" d="M58.7 63.7h6.8"/><path id="XMLID_1343_" class="st0" d="M55.6 63.7h1.5"/></g></g><path id="XMLID_1312_" class="st0" d="M139 20.2c-.1-2.6-2.1-4.9-4.9-5.3"/><path id="XMLID_1448_" class="st0" d="M112 11.8L92.1 9.1"/><path id="XMLID_1490_" class="st0" d="M134.1 14.9l-7.6-1.1"/><path id="XMLID_1452_" class="st0" d="M114.9 25.2v-3.1h.3"/><path id="XMLID_1445_" class="st0" d="M122.6 22.1h.7v3.1"/><g id="XMLID_1152_"><circle id="XMLID_1154_" class="st0" cx="118.9" cy="15.3" r="7.7"/><circle id="XMLID_1153_" class="st0" cx="118.9" cy="15.3" r="5.5"/></g><path id="XMLID_1151_" class="st0" d="M128.5 67.1h-19.1V30.6c0-3 2.4-5.4 5.4-5.4h8.4c3 0 5.4 2.4 5.4 5.4v36.5z"/><path id="XMLID_1150_" class="st0" d="M125.8 67.1H112V30.8c0-1.5 1.2-2.7 2.7-2.7h8.5c1.5 0 2.7 1.2 2.7 2.7v36.3z"/><path id="XMLID_1149_" class="st0" d="M106.4 67.1h28.2"/><path id="XMLID_1147_" class="st0" d="M136.2 67.1h2.6"/><path id="XMLID_1146_" class="st0" d="M140.1 67.1h.9"/><path id="XMLID_1145_" class="st0" d="M75.9 89.9H32.5"/><path id="XMLID_1144_" class="st0" d="M30.7 89.9h-4"/><path id="XMLID_1020_" class="st0" d="M24.8 89.9h-1.4"/><path id="XMLID_1018_" class="st0" d="M29.8 83.1H7.3"/><path id="XMLID_1017_" class="st0" d="M128.5 38.3h3.2v4.8h-3.2z"/><path id="XMLID_1016_" class="st0" d="M138.9 49c0 2.5-2 4.5-4.5 4.5s-4.5-2-4.5-4.5"/><path id="XMLID_1014_" class="st0" d="M90.7 19.3c-2.8-.4-4.8-3-4.4-5.8.4-2.8 3-4.8 5.8-4.4"/><path id="XMLID_1001_" class="st0" d="M139 45.8V20.2v25.6z"/><path id="XMLID_1000_" class="st0" d="M103.5 21.1l-12.8-1.8"/><path id="XMLID_998_" class="st0" d="M101.9 31.3c2.8.4 5.5-1.6 5.8-4.4.4-2.8-1.6-5.5-4.4-5.8"/><path id="XMLID_997_" class="st0" d="M91 29.8l10.9 1.5"/><path id="XMLID_995_" class="st0" d="M89.5 40.1c-2.8-.4-4.8-3-4.4-5.8.4-2.8 3-4.8 5.8-4.4"/><path id="XMLID_994_" class="st0" d="M100.7 41.6l-11.2-1.5"/><path id="XMLID_815_" class="st0" d="M99.5 49.3l-3.4-.4"/><path id="XMLID_813_" class="st0" d="M99.5 49.3c2.1.3 4.1-1.2 4.4-3.3s-1.2-4.1-3.3-4.4"/><path id="XMLID_812_" class="st0" d="M96.3 48.9c-2.8-.4-5.5 1.6-5.8 4.4"/><path id="XMLID_757_" class="st0" d="M114.9 32.9h7.5"/><path id="XMLID_756_" class="st0" d="M115.9 35.2h5.6"/><path id="XMLID_738_" class="st0" d="M114.9 37.2h7.5"/><g id="XMLID_672_"><path id="XMLID_1487_" class="st0" d="M93.3 70.3l2.1 7.8-.9.2-1.2.3-1.9-7"/><path id="XMLID_1485_" class="st0" d="M91.7 54.9c.8.1 1.6.3 2.2.7.8.5 1.4 1.4 1.4 2.6v4"/><path id="XMLID_1156_" class="st0" d="M88.9 68.7c-.2.8 0 1.6.6 2.2.9 1 2.3 1 3.2 0l2.7-2.9"/><path id="XMLID_694_" class="st0" d="M96.7 65v.3c0 1.9-1.5 3.4-3.4 3.4h-5.9V63c0-.7.6-1.3 1.3-1.3h4.5c2 0 3.5 1.5 3.5 3.3z"/><path id="XMLID_683_" class="st0" d="M88.9 53.5h2.8v8.2h-2.8z"/><path id="XMLID_681_" class="st0" d="M91.9 58.5l1.6.8"/><path id="XMLID_677_" class="st0" d="M89.9 68.6v-2"/><path id="XMLID_676_" class="st0" d="M91.6 68.7v-2.6"/><path id="XMLID_673_" class="st0" d="M93.4 68.7v-3.5"/></g><path id="XMLID_671_" class="st0" d="M97.7 88.3c0 .9-.7 1.7-1.7 1.7s-1.7-.7-1.7-1.7c0-.4.1-.7.3-.9 0 0 1.1-1.3 1.4-1.6.2.4 1.4 1.6 1.4 1.6.2.2.3.5.3.9z"/><path id="XMLID_670_" class="st0" d="M95.4 83.6c0 1.2-.9 2.1-2.1 2.1-1.2 0-2.1-.9-2.1-2.1 0-.4.1-.9.4-1.2 0 0 1.4-1.6 1.7-2.1.3.5 1.7 2.1 1.7 2.1.3.3.4.7.4 1.2z"/></svg>