<?xml version="1.0" encoding="utf-8"?>
<!-- Generator: Adobe Illustrator 19.0.1, SVG Export Plug-In . SVG Version: 6.00 Build 0)  -->
<svg version="1.1" id="Layer_1" xmlns="http://www.w3.org/2000/svg" xmlns:xlink="http://www.w3.org/1999/xlink" x="0px" y="0px"
	 viewBox="0 0 423.3 150.2" style="enable-background:new 0 0 423.3 150.2;" xml:space="preserve">
<style type="text/css">
	.st0{fill:#FDF7CB;}
</style>
<g>
	<path class="st0" d="M0,105.2V43.5h25.1c2.5,0,4.8,0.5,7,1.6c2.1,1.1,4,2.5,5.5,4.3c1.5,1.8,2.7,3.8,3.6,6c0.9,2.2,1.3,4.5,1.3,6.8
		c0,2.4-0.4,4.8-1.2,7c-0.8,2.3-2,4.3-3.4,6c-1.5,1.7-3.2,3.1-5.3,4.2c-2.1,1-4.3,1.6-6.8,1.6h-24v24.2H0z M1.7,79.2h24
		c2.3,0,4.4-0.5,6.3-1.5c1.9-1,3.5-2.3,4.7-3.9c1.3-1.6,2.3-3.4,3-5.5c0.7-2,1-4.1,1-6.2c0-2.2-0.4-4.3-1.2-6.3
		c-0.8-2-1.9-3.8-3.3-5.4c-1.4-1.6-3.1-2.8-5-3.8c-1.9-1-3.9-1.4-6.1-1.4H1.7V79.2z"/>
	<path class="st0" d="M108.2,105.7c-4.3,0-8.2-0.9-11.7-2.7c-3.5-1.8-6.5-4.1-9.1-7c-2.5-2.9-4.5-6.2-5.9-10
		c-1.4-3.8-2.1-7.6-2.1-11.6c0-4.1,0.7-8.1,2.2-11.8c1.5-3.8,3.5-7.1,6.1-10c2.6-2.9,5.6-5.2,9.1-6.9c3.5-1.7,7.3-2.6,11.3-2.6
		c4.2,0,8.1,0.9,11.6,2.7c3.5,1.8,6.6,4.2,9.1,7.2c2.5,3,4.5,6.3,5.9,10c1.4,3.7,2.1,7.5,2.1,11.3c0,4.2-0.7,8.1-2.2,11.9
		c-1.5,3.8-3.5,7.1-6.1,9.9c-2.6,2.9-5.6,5.2-9.1,6.9C116,104.8,112.2,105.7,108.2,105.7z M81.2,74.4c0,3.8,0.7,7.5,2,11.1
		c1.4,3.6,3.2,6.7,5.6,9.5c2.4,2.8,5.2,4.9,8.5,6.6c3.3,1.6,6.9,2.4,10.9,2.4c4,0,7.7-0.9,11-2.6c3.3-1.7,6.2-4,8.5-6.7
		c2.3-2.8,4.2-5.9,5.5-9.5c1.3-3.5,2-7.1,2-10.8c0-3.8-0.7-7.5-2-11.1c-1.4-3.6-3.3-6.7-5.7-9.5c-2.4-2.8-5.3-4.9-8.6-6.6
		c-3.3-1.6-6.8-2.4-10.6-2.4c-4,0-7.7,0.9-11,2.6c-3.3,1.7-6.2,4-8.6,6.7c-2.4,2.8-4.2,5.9-5.5,9.5S81.2,70.7,81.2,74.4z"/>
	<path class="st0" d="M202,44.1h1.9l10,23.1L224,44.1h1.9l-11,25.2l14.8,33.8l25.9-59.5h1.9l-26.8,61.7h-1.9L214,71.4l-14.7,33.8
		h-1.9l-26.8-61.7h1.9l25.9,59.5L213,69.3L202,44.1z"/>
	<path class="st0" d="M338,103.5v1.7h-40.5V43.5h39.7v1.7h-38v27.5h33.3v1.7h-33.3v28.9H338z"/>
	<path class="st0" d="M380.8,105.2V43.5h25.1c2.5,0,4.8,0.5,7,1.6c2.1,1.1,4,2.5,5.5,4.3c1.5,1.8,2.7,3.8,3.6,6
		c0.9,2.2,1.3,4.5,1.3,6.8c0,2.4-0.4,4.7-1.1,6.9c-0.8,2.2-1.8,4.2-3.2,5.9c-1.4,1.7-3.1,3.1-5,4.2c-1.9,1.1-4.1,1.7-6.4,1.9
		l15.6,24.2h-2.1L405.5,81h-22.9v24.2H380.8z M382.6,79.2h24c2.3,0,4.4-0.5,6.3-1.5c1.9-1,3.4-2.3,4.7-3.9c1.3-1.6,2.3-3.4,3-5.4
		c0.7-2,1-4.1,1-6.3c0-2.2-0.4-4.3-1.2-6.3c-0.8-2-1.9-3.8-3.3-5.4c-1.4-1.6-3.1-2.8-5-3.8c-1.9-1-3.9-1.4-6.1-1.4h-23.4V79.2z"/>
</g>
<g>
	<path class="st0" d="M184.7,1.8h-10.4v26.6h-2V1.8h-10.4V0h22.9V1.8z"/>
	<path class="st0" d="M225,0v28.5h-2V14.8h-18v13.6h-2V0h2v13h18V0H225z"/>
	<path class="st0" d="M265.1,26.6v1.8h-19V0h18.6v1.8h-16.6V13h14.5v1.8h-14.5v11.8H265.1z"/>
</g>
<g>
	<path class="st0" d="M124.1,150.2c-2,0-3.8-0.4-5.4-1.2c-1.6-0.8-3-1.9-4.2-3.2c-1.2-1.3-2.1-2.9-2.7-4.6c-0.6-1.7-1-3.5-1-5.3
		c0-1.9,0.3-3.7,1-5.5c0.7-1.7,1.6-3.3,2.8-4.6c1.2-1.3,2.6-2.4,4.2-3.2c1.6-0.8,3.4-1.2,5.3-1.2c2,0,3.8,0.4,5.4,1.3
		c1.6,0.8,3,1.9,4.2,3.3s2.1,2.9,2.7,4.6c0.6,1.7,1,3.5,1,5.2c0,1.9-0.3,3.8-1,5.5c-0.7,1.7-1.6,3.3-2.8,4.6
		c-1.2,1.3-2.6,2.4-4.2,3.2C127.8,149.8,126,150.2,124.1,150.2z M112.9,135.8c0,1.6,0.3,3.2,0.8,4.7c0.5,1.5,1.3,2.8,2.3,4
		c1,1.2,2.2,2.1,3.6,2.8c1.4,0.7,2.9,1,4.5,1c1.7,0,3.3-0.4,4.6-1.1c1.4-0.7,2.6-1.7,3.5-2.9c1-1.2,1.8-2.5,2.3-4
		c0.5-1.5,0.8-3,0.8-4.6c0-1.6-0.3-3.2-0.8-4.7s-1.3-2.8-2.3-4c-1-1.2-2.2-2.1-3.6-2.8c-1.4-0.7-2.9-1-4.5-1c-1.7,0-3.3,0.4-4.7,1.1
		s-2.6,1.7-3.5,2.9c-1,1.2-1.7,2.5-2.3,4C113.1,132.7,112.9,134.2,112.9,135.8z"/>
	<path class="st0" d="M156.7,150v-28.5h18.5v1.8h-16.5v11.3h14v1.8h-14V150H156.7z"/>
	<path class="st0" d="M238.2,142.6c0,1-0.2,2-0.6,2.9s-0.9,1.7-1.6,2.3c-0.7,0.7-1.5,1.2-2.4,1.6c-0.9,0.4-1.9,0.6-3,0.6h-13.3
		v-28.5h13.3c1,0,1.9,0.2,2.7,0.6c0.8,0.4,1.5,1,2,1.7c0.6,0.7,1,1.5,1.3,2.3s0.5,1.7,0.5,2.6c0,1.4-0.4,2.8-1.1,4
		c-0.7,1.2-1.7,2.1-3,2.6c1.6,0.5,2.9,1.4,3.9,2.7C237.7,139.4,238.2,140.9,238.2,142.6z M219.3,123.4v11.4h10.4
		c0.8,0,1.5-0.2,2.1-0.5c0.6-0.3,1.2-0.7,1.7-1.3c0.5-0.5,0.8-1.1,1.1-1.8c0.3-0.7,0.4-1.4,0.4-2.1c0-0.8-0.1-1.5-0.4-2.2
		c-0.3-0.7-0.6-1.3-1-1.8c-0.4-0.5-1-0.9-1.6-1.2c-0.6-0.3-1.3-0.5-2-0.5H219.3z M236.2,142.3c0-0.7-0.1-1.5-0.4-2.2
		c-0.3-0.7-0.6-1.3-1.1-1.9s-1-1-1.7-1.3c-0.7-0.3-1.4-0.5-2.1-0.5h-11.5v11.7h11.3c0.8,0,1.5-0.2,2.2-0.5c0.7-0.3,1.3-0.8,1.8-1.3
		c0.5-0.5,0.9-1.2,1.2-1.9C236,143.8,236.2,143.1,236.2,142.3z"/>
	<path class="st0" d="M276,123.4h-10.4V150h-2v-26.6h-10.4v-1.8H276V123.4z"/>
	<path class="st0" d="M305.7,148.3c1.9,0,3.5-0.4,4.8-1.1c1.3-0.7,2.3-1.7,3-2.8c0.7-1.2,1.3-2.5,1.6-4c0.3-1.5,0.5-3,0.5-4.5v-14.3
		h2v14.3c0,1.9-0.2,3.7-0.6,5.5c-0.4,1.7-1.1,3.3-2,4.6c-0.9,1.3-2.2,2.4-3.7,3.1c-1.5,0.8-3.4,1.2-5.6,1.2c-2.2,0-4.1-0.4-5.7-1.2
		c-1.5-0.8-2.7-1.9-3.7-3.2c-0.9-1.3-1.6-2.9-2-4.6c-0.4-1.7-0.6-3.5-0.6-5.3v-14.3h2v14.3c0,1.6,0.2,3.1,0.5,4.6
		c0.3,1.5,0.8,2.8,1.6,4c0.7,1.2,1.8,2.1,3,2.8C302.2,148,303.8,148.3,305.7,148.3z"/>
</g>
<rect x="12.1" y="13.9" class="st0" width="7.6" height="1"/>
<rect x="26" y="13.9" class="st0" width="24.9" height="1"/>
<rect x="56.6" y="13.9" class="st0" width="81.1" height="1"/>
<rect x="12.1" y="137.4" class="st0" width="7.6" height="1"/>
<rect x="26" y="137.4" class="st0" width="71.1" height="1"/>
<rect x="410.2" y="137.4" class="st0" width="7.6" height="1"/>
<rect x="332.7" y="137.4" class="st0" width="71.1" height="1"/>
<rect x="403.4" y="13.9" class="st0" width="7.6" height="1"/>
<rect x="372.1" y="13.9" class="st0" width="24.9" height="1"/>
<rect x="285.4" y="13.9" class="st0" width="81.1" height="1"/>
</svg>
