<svg data-name="Layer 1" xmlns="http://www.w3.org/2000/svg" width="423.32" height="150.19" viewBox="0 0 423.32 150.19"><title>hero_title</title><g data-name="&lt;Group&gt;"><g data-name="&lt;Group&gt;" fill="#fdf7cb"><path d="M0 105.19V43.54h25.11a15.33 15.33 0 0 1 7 1.61 17.76 17.76 0 0 1 5.52 4.26 20.34 20.34 0 0 1 3.61 6 18.65 18.65 0 0 1 1.24 6.78 20.7 20.7 0 0 1-1.22 7 19.18 19.18 0 0 1-3.43 6 17 17 0 0 1-5.3 4.17 14.86 14.86 0 0 1-6.82 1.56h-24v24.27H0zm1.74-26h24a13.37 13.37 0 0 0 6.3-1.48 14.48 14.48 0 0 0 4.74-3.91 18.49 18.49 0 0 0 3-5.47 18.89 18.89 0 0 0 1-6.17 17 17 0 0 0-1.22-6.34 17.78 17.78 0 0 0-3.34-5.33 16.89 16.89 0 0 0-5-3.78 13.43 13.43 0 0 0-6.08-1.43H1.73v34zM108.22 105.67a25.24 25.24 0 0 1-11.69-2.69 30.45 30.45 0 0 1-9.08-7 31.44 31.44 0 0 1-5.91-10 33.11 33.11 0 0 1-2.13-11.59 32.07 32.07 0 0 1 2.22-11.82 33 33 0 0 1 6.08-10 29.26 29.26 0 0 1 9.12-6.91 25.53 25.53 0 0 1 11.39-2.55 25 25 0 0 1 11.64 2.74 29.74 29.74 0 0 1 9.08 7.17 33.12 33.12 0 0 1 5.86 10 32.67 32.67 0 0 1-6.25 33.17 29.74 29.74 0 0 1-9.08 6.86 25.25 25.25 0 0 1-11.25 2.62zm-27-31.28a30.77 30.77 0 0 0 2 11.08 31.62 31.62 0 0 0 5.6 9.47 26.62 26.62 0 0 0 8.52 6.56 24.29 24.29 0 0 0 10.88 2.43 23.72 23.72 0 0 0 11-2.56 27.34 27.34 0 0 0 8.52-6.73 31.4 31.4 0 0 0 5.41-9.45 31.12 31.12 0 0 0-5.78-31.32 27.84 27.84 0 0 0-8.56-6.56 24.67 24.67 0 0 0-21.64.13 27.83 27.83 0 0 0-8.55 6.75 31.64 31.64 0 0 0-7.47 20.2zM202.01 44.06h1.91l10 23.11L224 44.06h1.91l-11 25.2 14.77 33.8 25.89-59.52h1.91l-26.88 61.65h-1.91l-14.68-33.8-14.69 33.8h-1.91l-26.85-61.65h1.91l25.89 59.52 14.68-33.8zM337.99 103.49v1.7H297.5V43.54h39.72v1.74h-38v27.54h33.3v1.74h-33.3v28.93h38.75zM380.83 105.19V43.54h25.11a15.33 15.33 0 0 1 7 1.61 17.76 17.76 0 0 1 5.52 4.26 20.32 20.32 0 0 1 3.61 6 18.66 18.66 0 0 1 1.3 6.82 21.06 21.06 0 0 1-1.15 6.86 18.86 18.86 0 0 1-3.21 5.87 16.89 16.89 0 0 1-5 4.17 15.41 15.41 0 0 1-6.39 1.87l15.6 24.19h-2.08l-15.64-24.2h-22.94v24.2h-1.74zm1.74-26h24a13.12 13.12 0 0 0 6.26-1.48 15.35 15.35 0 0 0 4.73-3.87 17.4 17.4 0 0 0 3-5.43 19.15 19.15 0 0 0 1-6.26 16.94 16.94 0 0 0-1.22-6.34 17.76 17.76 0 0 0-3.34-5.39 16.9 16.9 0 0 0-5-3.78 13.43 13.43 0 0 0-6.08-1.43h-23.36v34z"/></g><g data-name="&lt;Group&gt;" fill="#fdf7cb"><path d="M184.71 1.85h-10.43v26.62h-2V1.85h-10.46V0h22.89v1.85zM224.99 0v28.47h-2V14.84h-18v13.63h-2V0h2v13h18V0h2zM265.12 26.62v1.84h-19V0h18.6v1.85h-16.5v11.18h14.47v1.76h-14.47v11.83h16.9z"/></g><g data-name="&lt;Group&gt;" fill="#fdf7cb"><path d="M124.11 150.19a11.77 11.77 0 0 1-5.41-1.24 14 14 0 0 1-4.21-3.25 14.51 14.51 0 0 1-2.73-4.61 15.28 15.28 0 0 1-1-5.33 14.81 14.81 0 0 1 1-5.45 15.24 15.24 0 0 1 2.81-4.61 13.44 13.44 0 0 1 4.23-3.19 12 12 0 0 1 5.29-1.18 11.62 11.62 0 0 1 5.41 1.26 13.72 13.72 0 0 1 4.19 3.31 15.29 15.29 0 0 1 2.71 4.63 15.07 15.07 0 0 1-2.87 15.31 13.64 13.64 0 0 1-4.21 3.17 11.86 11.86 0 0 1-5.21 1.18zm-11.26-14.43a13.69 13.69 0 0 0 .82 4.71 12.72 12.72 0 0 0 2.33 4 11.52 11.52 0 0 0 3.57 2.79 9.94 9.94 0 0 0 4.55 1 9.83 9.83 0 0 0 4.63-1.08 11.52 11.52 0 0 0 3.55-2.87 13.17 13.17 0 0 0 2.29-4 13.51 13.51 0 0 0 0-9.28 13 13 0 0 0-2.35-4 11.51 11.51 0 0 0-3.57-2.79 10.41 10.41 0 0 0-9.16 0 11.23 11.23 0 0 0-3.59 2.95 13.75 13.75 0 0 0-3.07 8.57zM156.74 150v-28.47h18.48v1.84h-16.43v11.3h14v1.76h-14v13.55h-2zM214.63 121.53l9.94 15.75 10-15.75h2.25l-11.2 17.72v10.74h-2v-10.8l-11.18-17.64h2.25zM264.46 150.19a11.78 11.78 0 0 1-5.41-1.24 14 14 0 0 1-4.21-3.25 14.52 14.52 0 0 1-2.73-4.61 15.28 15.28 0 0 1-1-5.33 14.82 14.82 0 0 1 1-5.45 15.24 15.24 0 0 1 2.81-4.61 13.45 13.45 0 0 1 4.23-3.19 12 12 0 0 1 5.29-1.18 11.62 11.62 0 0 1 5.41 1.26 13.73 13.73 0 0 1 4.19 3.31 15.28 15.28 0 0 1 2.71 4.63 15.08 15.08 0 0 1-2.87 15.31 13.64 13.64 0 0 1-4.21 3.17 11.85 11.85 0 0 1-5.21 1.18zm-11.24-14.43a13.7 13.7 0 0 0 .82 4.71 12.74 12.74 0 0 0 2.33 4 11.52 11.52 0 0 0 3.57 2.79 9.94 9.94 0 0 0 4.55 1 9.83 9.83 0 0 0 4.63-1.08 11.51 11.51 0 0 0 3.55-2.87 13.15 13.15 0 0 0 2.29-4 13.51 13.51 0 0 0 0-9.28 13 13 0 0 0-2.35-4 11.51 11.51 0 0 0-3.57-2.79 10.41 10.41 0 0 0-9.16 0 11.24 11.24 0 0 0-3.66 2.95 13.74 13.74 0 0 0-3 8.57zM308.48 148.31a9.6 9.6 0 0 0 4.74-1.12 8.49 8.49 0 0 0 3-2.85 11.83 11.83 0 0 0 1.58-4 22.44 22.44 0 0 0 .46-4.53v-14.28h2v14.31a23.43 23.43 0 0 1-.62 5.45 13.14 13.14 0 0 1-2 4.59 10 10 0 0 1-3.67 3.15 12.06 12.06 0 0 1-5.45 1.16 11.86 11.86 0 0 1-5.65-1.22 10.15 10.15 0 0 1-3.67-3.25 13.23 13.23 0 0 1-2-4.59 23.92 23.92 0 0 1-.58-5.29v-14.31h2v14.31a22.84 22.84 0 0 0 .46 4.61 11.6 11.6 0 0 0 1.58 4 8.43 8.43 0 0 0 3 2.81 9.52 9.52 0 0 0 4.82 1.05z"/></g><path data-name="&lt;Path&gt;" fill="none" stroke="#fdf7cb" stroke-miterlimit="10" d="M19.65 14.41h-7.57M50.88 14.41H25.96M137.63 14.41H56.56M19.65 137.95h-7.57M97.09 137.95H25.96M410.17 137.95h7.58M332.73 137.95h71.13M403.37 14.41h7.57M372.14 14.41h24.92M285.39 14.41h81.08"/></g></svg>