<?xml version="1.0" encoding="utf-8"?>
<!-- Generator: Adobe Illustrator 19.0.1, SVG Export Plug-In . SVG Version: 6.00 Build 0)  -->
<svg version="1.1" id="Layer_1" xmlns="http://www.w3.org/2000/svg" xmlns:xlink="http://www.w3.org/1999/xlink" x="0px" y="0px"
	 viewBox="0 0 466.8 164.7" style="enable-background:new 0 0 466.8 164.7;" xml:space="preserve">
<style type="text/css">
	.st0{fill:#FDF7CB;}
	.st1{font-family:'Raleway-Thin';}
	.st2{font-size:86.8882px;}
	.st3{letter-spacing:29;}
	.st4{font-family:'Raleway-Light';}
	.st5{font-size:40.0878px;}
	.st6{letter-spacing:13;}
	.st7{fill:none;stroke:#FDF7CB;stroke-miterlimit:10;}
</style>
<g id="XMLID_484_">
	<text id="XMLID_545_" transform="matrix(1 0 0 1 -2.441406e-04 111.0413)" class="st0 st1 st2 st3">Power</text>
	<text id="XMLID_1592_" transform="matrix(1 0 0 1 169.7546 34.2756)" class="st0 st4 st5 st6">The</text>
	<text id="XMLID_544_" transform="matrix(1 0 0 1 117.6599 155.8059)" class="st0 st4 st5 st6">of BTU</text>
	<line id="XMLID_543_" class="st7" x1="28.4" y1="20.2" x2="20.9" y2="20.2"/>
	<line id="XMLID_542_" class="st7" x1="59.7" y1="20.2" x2="34.7" y2="20.2"/>
	<line id="XMLID_541_" class="st7" x1="146.4" y1="20.2" x2="65.3" y2="20.2"/>
	<line id="XMLID_540_" class="st7" x1="28.4" y1="143.8" x2="20.9" y2="143.8"/>
	<line id="XMLID_535_" class="st7" x1="105.9" y1="143.8" x2="34.7" y2="143.8"/>
	<line id="XMLID_530_" class="st7" x1="418.9" y1="143.8" x2="426.5" y2="143.8"/>
	<line id="XMLID_500_" class="st7" x1="341.5" y1="143.8" x2="412.6" y2="143.8"/>
	<line id="XMLID_499_" class="st7" x1="412.1" y1="20.2" x2="419.7" y2="20.2"/>
	<line id="XMLID_498_" class="st7" x1="380.9" y1="20.2" x2="405.8" y2="20.2"/>
	<line id="XMLID_486_" class="st7" x1="294.2" y1="20.2" x2="375.2" y2="20.2"/>
</g>
</svg>
