<svg id="Layer_1" xmlns="http://www.w3.org/2000/svg" viewBox="0 0 423.3 150.2"><style>.st0{fill:#fdf7cb}</style><path class="st0" d="M0 105.2V43.5h25.1c2.5 0 4.8.5 7 1.6 2.1 1.1 4 2.5 5.5 4.3 1.5 1.8 2.7 3.8 3.6 6 .9 2.2 1.3 4.5 1.3 6.8 0 2.4-.4 4.8-1.2 7-.8 2.3-2 4.3-3.4 6-1.5 1.7-3.2 3.1-5.3 4.2-2.1 1-4.3 1.6-6.8 1.6h-24v24.2H0zm1.7-26h24c2.3 0 4.4-.5 6.3-1.5 1.9-1 3.5-2.3 4.7-3.9 1.3-1.6 2.3-3.4 3-5.5.7-2 1-4.1 1-6.2 0-2.2-.4-4.3-1.2-6.3-.8-2-1.9-3.8-3.3-5.4-1.4-1.6-3.1-2.8-5-3.8s-3.9-1.4-6.1-1.4H1.7v34zM108.2 105.7c-4.3 0-8.2-.9-11.7-2.7-3.5-1.8-6.5-4.1-9.1-7-2.5-2.9-4.5-6.2-5.9-10-1.4-3.8-2.1-7.6-2.1-11.6 0-4.1.7-8.1 2.2-11.8 1.5-3.8 3.5-7.1 6.1-10 2.6-2.9 5.6-5.2 9.1-6.9 3.5-1.7 7.3-2.6 11.3-2.6 4.2 0 8.1.9 11.6 2.7 3.5 1.8 6.6 4.2 9.1 7.2s4.5 6.3 5.9 10c1.4 3.7 2.1 7.5 2.1 11.3 0 4.2-.7 8.1-2.2 11.9-1.5 3.8-3.5 7.1-6.1 9.9-2.6 2.9-5.6 5.2-9.1 6.9-3.4 1.8-7.2 2.7-11.2 2.7zm-27-31.3c0 3.8.7 7.5 2 11.1 1.4 3.6 3.2 6.7 5.6 9.5 2.4 2.8 5.2 4.9 8.5 6.6 3.3 1.6 6.9 2.4 10.9 2.4s7.7-.9 11-2.6c3.3-1.7 6.2-4 8.5-6.7 2.3-2.8 4.2-5.9 5.5-9.5 1.3-3.5 2-7.1 2-10.8 0-3.8-.7-7.5-2-11.1-1.4-3.6-3.3-6.7-5.7-9.5-2.4-2.8-5.3-4.9-8.6-6.6-3.3-1.6-6.8-2.4-10.6-2.4-4 0-7.7.9-11 2.6-3.3 1.7-6.2 4-8.6 6.7-2.4 2.8-4.2 5.9-5.5 9.5s-2 7.1-2 10.8zM202 44.1h1.9l10 23.1L224 44.1h1.9l-11 25.2 14.8 33.8 25.9-59.5h1.9l-26.8 61.7h-1.9L214 71.4l-14.7 33.8h-1.9l-26.8-61.7h1.9l25.9 59.5L213 69.3l-11-25.2zM338 103.5v1.7h-40.5V43.5h39.7v1.7h-38v27.5h33.3v1.7h-33.3v28.9H338zM380.8 105.2V43.5h25.1c2.5 0 4.8.5 7 1.6 2.1 1.1 4 2.5 5.5 4.3 1.5 1.8 2.7 3.8 3.6 6 .9 2.2 1.3 4.5 1.3 6.8 0 2.4-.4 4.7-1.1 6.9-.8 2.2-1.8 4.2-3.2 5.9-1.4 1.7-3.1 3.1-5 4.2s-4.1 1.7-6.4 1.9l15.6 24.2h-2.1L405.5 81h-22.9v24.2h-1.8zm1.8-26h24c2.3 0 4.4-.5 6.3-1.5 1.9-1 3.4-2.3 4.7-3.9 1.3-1.6 2.3-3.4 3-5.4.7-2 1-4.1 1-6.3s-.4-4.3-1.2-6.3c-.8-2-1.9-3.8-3.3-5.4-1.4-1.6-3.1-2.8-5-3.8s-3.9-1.4-6.1-1.4h-23.4v34zM184.7 1.8h-10.4v26.6h-2V1.8h-10.4V0h22.9v1.8zM225 0v28.5h-2V14.8h-18v13.6h-2V0h2v13h18V0h2zM265.1 26.6v1.8h-19V0h18.6v1.8h-16.6V13h14.5v1.8h-14.5v11.8h17zM124.1 150.2c-2 0-3.8-.4-5.4-1.2-1.6-.8-3-1.9-4.2-3.2-1.2-1.3-2.1-2.9-2.7-4.6-.6-1.7-1-3.5-1-5.3 0-1.9.3-3.7 1-5.5.7-1.7 1.6-3.3 2.8-4.6 1.2-1.3 2.6-2.4 4.2-3.2 1.6-.8 3.4-1.2 5.3-1.2 2 0 3.8.4 5.4 1.3 1.6.8 3 1.9 4.2 3.3s2.1 2.9 2.7 4.6c.6 1.7 1 3.5 1 5.2 0 1.9-.3 3.8-1 5.5-.7 1.7-1.6 3.3-2.8 4.6-1.2 1.3-2.6 2.4-4.2 3.2-1.6.7-3.4 1.1-5.3 1.1zm-11.2-14.4c0 1.6.3 3.2.8 4.7s1.3 2.8 2.3 4c1 1.2 2.2 2.1 3.6 2.8 1.4.7 2.9 1 4.5 1 1.7 0 3.3-.4 4.6-1.1 1.4-.7 2.6-1.7 3.5-2.9 1-1.2 1.8-2.5 2.3-4 .5-1.5.8-3 .8-4.6 0-1.6-.3-3.2-.8-4.7s-1.3-2.8-2.3-4c-1-1.2-2.2-2.1-3.6-2.8-1.4-.7-2.9-1-4.5-1-1.7 0-3.3.4-4.7 1.1s-2.6 1.7-3.5 2.9c-1 1.2-1.7 2.5-2.3 4-.5 1.5-.7 3-.7 4.6zM156.7 150v-28.5h18.5v1.8h-16.5v11.3h14v1.8h-14V150h-2zM238.2 142.6c0 1-.2 2-.6 2.9s-.9 1.7-1.6 2.3c-.7.7-1.5 1.2-2.4 1.6-.9.4-1.9.6-3 .6h-13.3v-28.5h13.3c1 0 1.9.2 2.7.6.8.4 1.5 1 2 1.7.6.7 1 1.5 1.3 2.3s.5 1.7.5 2.6c0 1.4-.4 2.8-1.1 4-.7 1.2-1.7 2.1-3 2.6 1.6.5 2.9 1.4 3.9 2.7.8 1.4 1.3 2.9 1.3 4.6zm-18.9-19.2v11.4h10.4c.8 0 1.5-.2 2.1-.5.6-.3 1.2-.7 1.7-1.3.5-.5.8-1.1 1.1-1.8.3-.7.4-1.4.4-2.1 0-.8-.1-1.5-.4-2.2-.3-.7-.6-1.3-1-1.8s-1-.9-1.6-1.2c-.6-.3-1.3-.5-2-.5h-10.7zm16.9 18.9c0-.7-.1-1.5-.4-2.2-.3-.7-.6-1.3-1.1-1.9s-1-1-1.7-1.3c-.7-.3-1.4-.5-2.1-.5h-11.5v11.7h11.3c.8 0 1.5-.2 2.2-.5.7-.3 1.3-.8 1.8-1.3s.9-1.2 1.2-1.9c.1-.6.3-1.3.3-2.1zM276 123.4h-10.4V150h-2v-26.6h-10.4v-1.8H276v1.8zM305.7 148.3c1.9 0 3.5-.4 4.8-1.1 1.3-.7 2.3-1.7 3-2.8.7-1.2 1.3-2.5 1.6-4 .3-1.5.5-3 .5-4.5v-14.3h2v14.3c0 1.9-.2 3.7-.6 5.5-.4 1.7-1.1 3.3-2 4.6-.9 1.3-2.2 2.4-3.7 3.1-1.5.8-3.4 1.2-5.6 1.2-2.2 0-4.1-.4-5.7-1.2-1.5-.8-2.7-1.9-3.7-3.2-.9-1.3-1.6-2.9-2-4.6-.4-1.7-.6-3.5-.6-5.3v-14.3h2V136c0 1.6.2 3.1.5 4.6.3 1.5.8 2.8 1.6 4 .7 1.2 1.8 2.1 3 2.8 1.4.6 3 .9 4.9.9zM12.1 13.9h7.6v1h-7.6zM26 13.9h24.9v1H26zM56.6 13.9h81.1v1H56.6zM12.1 137.4h7.6v1h-7.6zM26 137.4h71.1v1H26zM410.2 137.4h7.6v1h-7.6zM332.7 137.4h71.1v1h-71.1zM403.4 13.9h7.6v1h-7.6zM372.1 13.9H397v1h-24.9zM285.4 13.9h81.1v1h-81.1z"/></svg>