<svg id="Layer_1" data-name="Layer 1" xmlns="http://www.w3.org/2000/svg" width="423.32" height="150.19" viewBox="0 0 423.32 150.19"><title>hero_title</title><g id="_Group_" data-name="&lt;Group&gt;"><g id="_Group_2" data-name="&lt;Group&gt;"><path d="M8.78,111V49.35H33.89a15.33,15.33,0,0,1,7,1.61,17.76,17.76,0,0,1,5.52,4.26,20.34,20.34,0,0,1,3.61,6A18.65,18.65,0,0,1,51.26,68a20.7,20.7,0,0,1-1.22,7,19.18,19.18,0,0,1-3.43,6,17,17,0,0,1-5.3,4.17,14.86,14.86,0,0,1-6.82,1.56h-24V111H8.78Zm1.74-26h24a13.37,13.37,0,0,0,6.3-1.48,14.48,14.48,0,0,0,4.74-3.91,18.49,18.49,0,0,0,3-5.47,18.89,18.89,0,0,0,1-6.17,17,17,0,0,0-1.22-6.34A17.78,17.78,0,0,0,45,56.3a16.89,16.89,0,0,0-5-3.78,13.43,13.43,0,0,0-6.08-1.43H10.51v34Z" transform="translate(-8.78 -5.81)" style="fill:#fdf7cb"/><path d="M117,111.48a25.24,25.24,0,0,1-11.69-2.69,30.45,30.45,0,0,1-9.08-7,31.44,31.44,0,0,1-5.91-10A33.11,33.11,0,0,1,88.19,80.2a32.07,32.07,0,0,1,2.22-11.82,33,33,0,0,1,6.08-10,29.26,29.26,0,0,1,9.12-6.91A25.53,25.53,0,0,1,117,48.92a25,25,0,0,1,11.64,2.74,29.74,29.74,0,0,1,9.08,7.17,33.12,33.12,0,0,1,5.86,10A32.67,32.67,0,0,1,137.33,102a29.74,29.74,0,0,1-9.08,6.86A25.25,25.25,0,0,1,117,111.48Zm-27-31.28a30.77,30.77,0,0,0,2,11.08,31.62,31.62,0,0,0,5.6,9.47,26.62,26.62,0,0,0,8.52,6.56A24.29,24.29,0,0,0,117,109.74a23.72,23.72,0,0,0,11-2.56,27.34,27.34,0,0,0,8.52-6.73A31.4,31.4,0,0,0,141.93,91a31.12,31.12,0,0,0-5.78-31.32,27.84,27.84,0,0,0-8.56-6.56,24.67,24.67,0,0,0-21.64.13A27.83,27.83,0,0,0,97.4,60,31.64,31.64,0,0,0,89.93,80.2Z" transform="translate(-8.78 -5.81)" style="fill:#fdf7cb"/><path d="M210.79,49.87h1.91l10,23.11,10.08-23.11h1.91l-11,25.2,14.77,33.8,25.89-59.52h1.91L239.38,111h-1.91l-14.68-33.8L208.1,111h-1.91L179.34,49.35h1.91l25.89,59.52,14.68-33.8Z" transform="translate(-8.78 -5.81)" style="fill:#fdf7cb"/><path d="M346.77,109.3V111H306.28V49.35H346v1.74H308V78.63H341.3v1.74H308V109.3h38.75Z" transform="translate(-8.78 -5.81)" style="fill:#fdf7cb"/><path d="M389.61,111V49.35h25.11a15.33,15.33,0,0,1,7,1.61,17.76,17.76,0,0,1,5.52,4.26,20.32,20.32,0,0,1,3.61,6,18.66,18.66,0,0,1,1.3,6.82A21.06,21.06,0,0,1,431,74.9a18.86,18.86,0,0,1-3.21,5.87,16.89,16.89,0,0,1-5,4.17,15.41,15.41,0,0,1-6.39,1.87L432,111h-2.08L414.28,86.8H391.34V111h-1.74Zm1.74-26h24a13.12,13.12,0,0,0,6.26-1.48,15.35,15.35,0,0,0,4.73-3.87,17.4,17.4,0,0,0,3-5.43,19.15,19.15,0,0,0,1-6.26,16.94,16.94,0,0,0-1.22-6.34,17.76,17.76,0,0,0-3.34-5.39,16.9,16.9,0,0,0-5-3.78,13.43,13.43,0,0,0-6.08-1.43H391.34v34Z" transform="translate(-8.78 -5.81)" style="fill:#fdf7cb"/></g><g id="_Group_3" data-name="&lt;Group&gt;"><path d="M193.49,7.66H183.06V34.28h-2V7.66H170.6V5.81h22.89V7.66Z" transform="translate(-8.78 -5.81)" style="fill:#fdf7cb"/><path d="M233.77,5.81V34.28h-2V20.65h-18V34.28h-2V5.81h2v13h18v-13h2Z" transform="translate(-8.78 -5.81)" style="fill:#fdf7cb"/><path d="M273.9,32.43v1.84h-19V5.81h18.6V7.66H257V18.84h14.47v1.76H257V32.43H273.9Z" transform="translate(-8.78 -5.81)" style="fill:#fdf7cb"/></g><g id="_Group_4" data-name="&lt;Group&gt;"><path d="M132.89,156a11.77,11.77,0,0,1-5.41-1.24,14,14,0,0,1-4.21-3.25,14.51,14.51,0,0,1-2.73-4.61,15.28,15.28,0,0,1-1-5.33,14.81,14.81,0,0,1,1-5.45,15.24,15.24,0,0,1,2.81-4.61,13.44,13.44,0,0,1,4.23-3.19,12,12,0,0,1,5.29-1.18,11.62,11.62,0,0,1,5.41,1.26,13.72,13.72,0,0,1,4.19,3.31,15.29,15.29,0,0,1,2.71,4.63,15.07,15.07,0,0,1-2.87,15.31,13.64,13.64,0,0,1-4.21,3.17A11.86,11.86,0,0,1,132.89,156Zm-11.26-14.43a13.69,13.69,0,0,0,.82,4.71,12.72,12.72,0,0,0,2.33,4,11.52,11.52,0,0,0,3.57,2.79,9.94,9.94,0,0,0,4.55,1,9.83,9.83,0,0,0,4.63-1.08,11.52,11.52,0,0,0,3.55-2.87,13.17,13.17,0,0,0,2.29-4,13.51,13.51,0,0,0,0-9.28,13,13,0,0,0-2.35-4,11.51,11.51,0,0,0-3.57-2.79,10.41,10.41,0,0,0-9.16,0A11.23,11.23,0,0,0,124.7,133,13.75,13.75,0,0,0,121.63,141.57Z" transform="translate(-8.78 -5.81)" style="fill:#fdf7cb"/><path d="M165.52,155.81V127.34H184v1.84H167.57v11.3h14v1.76h-14v13.55h-2Z" transform="translate(-8.78 -5.81)" style="fill:#fdf7cb"/><path d="M223.41,127.34l9.94,15.75,10-15.75h2.25L234.4,145.06v10.74h-2V145l-11.18-17.64h2.25Z" transform="translate(-8.78 -5.81)" style="fill:#fdf7cb"/><path d="M273.24,156a11.78,11.78,0,0,1-5.41-1.24,14,14,0,0,1-4.21-3.25,14.52,14.52,0,0,1-2.73-4.61,15.28,15.28,0,0,1-1-5.33,14.82,14.82,0,0,1,1-5.45,15.24,15.24,0,0,1,2.81-4.61,13.45,13.45,0,0,1,4.23-3.19,12,12,0,0,1,5.29-1.18,11.62,11.62,0,0,1,5.41,1.26,13.73,13.73,0,0,1,4.19,3.31,15.28,15.28,0,0,1,2.71,4.63,15.08,15.08,0,0,1-2.87,15.31,13.64,13.64,0,0,1-4.21,3.17A11.85,11.85,0,0,1,273.24,156ZM262,141.57a13.7,13.7,0,0,0,.82,4.71,12.74,12.74,0,0,0,2.33,4,11.52,11.52,0,0,0,3.57,2.79,9.94,9.94,0,0,0,4.55,1,9.83,9.83,0,0,0,4.63-1.08,11.51,11.51,0,0,0,3.55-2.87,13.15,13.15,0,0,0,2.29-4,13.51,13.51,0,0,0,0-9.28,13,13,0,0,0-2.35-4,11.51,11.51,0,0,0-3.57-2.79,10.41,10.41,0,0,0-9.16,0A11.24,11.24,0,0,0,265,133,13.74,13.74,0,0,0,262,141.57Z" transform="translate(-8.78 -5.81)" style="fill:#fdf7cb"/><path d="M317.26,154.12A9.6,9.6,0,0,0,322,153a8.49,8.49,0,0,0,3-2.85,11.83,11.83,0,0,0,1.58-4,22.44,22.44,0,0,0,.46-4.53V127.34h2v14.31a23.43,23.43,0,0,1-.62,5.45,13.14,13.14,0,0,1-2,4.59,10,10,0,0,1-3.67,3.15A12.06,12.06,0,0,1,317.3,156a11.86,11.86,0,0,1-5.65-1.22,10.15,10.15,0,0,1-3.67-3.25,13.23,13.23,0,0,1-2-4.59,23.92,23.92,0,0,1-.58-5.29V127.34h2v14.31a22.84,22.84,0,0,0,.46,4.61,11.6,11.6,0,0,0,1.58,4,8.43,8.43,0,0,0,3,2.81A9.52,9.52,0,0,0,317.26,154.12Z" transform="translate(-8.78 -5.81)" style="fill:#fdf7cb"/></g><line id="_Path_" data-name="&lt;Path&gt;" x1="19.65" y1="14.41" x2="12.08" y2="14.41" style="fill:none;stroke:#fdf7cb;stroke-miterlimit:10"/><line id="_Path_2" data-name="&lt;Path&gt;" x1="50.88" y1="14.41" x2="25.96" y2="14.41" style="fill:none;stroke:#fdf7cb;stroke-miterlimit:10"/><line id="_Path_3" data-name="&lt;Path&gt;" x1="137.63" y1="14.41" x2="56.56" y2="14.41" style="fill:none;stroke:#fdf7cb;stroke-miterlimit:10"/><line id="_Path_4" data-name="&lt;Path&gt;" x1="19.65" y1="137.95" x2="12.08" y2="137.95" style="fill:none;stroke:#fdf7cb;stroke-miterlimit:10"/><line id="_Path_5" data-name="&lt;Path&gt;" x1="97.09" y1="137.95" x2="25.96" y2="137.95" style="fill:none;stroke:#fdf7cb;stroke-miterlimit:10"/><line id="_Path_6" data-name="&lt;Path&gt;" x1="410.17" y1="137.95" x2="417.75" y2="137.95" style="fill:none;stroke:#fdf7cb;stroke-miterlimit:10"/><line id="_Path_7" data-name="&lt;Path&gt;" x1="332.73" y1="137.95" x2="403.86" y2="137.95" style="fill:none;stroke:#fdf7cb;stroke-miterlimit:10"/><line id="_Path_8" data-name="&lt;Path&gt;" x1="403.37" y1="14.41" x2="410.94" y2="14.41" style="fill:none;stroke:#fdf7cb;stroke-miterlimit:10"/><line id="_Path_9" data-name="&lt;Path&gt;" x1="372.14" y1="14.41" x2="397.06" y2="14.41" style="fill:none;stroke:#fdf7cb;stroke-miterlimit:10"/><line id="_Path_10" data-name="&lt;Path&gt;" x1="285.39" y1="14.41" x2="366.47" y2="14.41" style="fill:none;stroke:#fdf7cb;stroke-miterlimit:10"/></g></svg>