<svg data-name="Layer 1" xmlns="http://www.w3.org/2000/svg" width="1280" height="804" viewBox="0 0 1280 804"><title>individual_bg</title><path d="M1280 0H0v143.06a188.3 188.3 0 0 0 120.39 56.29A200.19 200.19 0 0 0 375 266.44a130.91 130.91 0 0 0 92.13-49.89q7 .57 14.21.58a173.65 173.65 0 0 0 57.19-9.63 201.31 201.31 0 0 0 77.07 15.24 201 201 0 0 0 105.33-29.62q3.58.17 7.19.18a146.68 146.68 0 0 0 25.59-2.24 165.18 165.18 0 0 0 189.58 3.49 219.93 219.93 0 0 0 154.61 63.25 220.41 220.41 0 0 0 182.1-96.07V0z" fill="#e5ad93" opacity=".11"/><g data-name="&lt;Group&gt;" opacity=".19" stroke="#7d5f76" stroke-miterlimit="10" stroke-width="2"><path data-name="&lt;Path&gt;" d="M448.88 505.44c0 25.67-20 47.3-45.69 47.3S357.1 530.7 357.1 505s21.2-47.72 46.87-47.72h387.92" fill="none" stroke-linecap="round"/><path data-name="&lt;Path&gt;" d="M474 507.06a68.74 68.74 0 1 1-68.43-69h347.9" fill="none" stroke-linecap="round"/><path data-name="&lt;Path&gt;" d="M495.23 507.09A88.23 88.23 0 1 1 407 418.9h311.91M193.56 547.22c0-19.28 15-35.53 34.32-35.53s34.62 16.56 34.62 35.84-15.93 35.84-35.21 35.84H30.8" fill="none" stroke-linecap="round"/><path data-name="&lt;Path&gt;" d="M174.68 546a51.64 51.64 0 1 1 51.4 51.8H59.65" fill="none" stroke-linecap="round"/><path data-name="&lt;Path&gt;" d="M158.74 546A66.28 66.28 0 1 1 225 612.23H85.62" fill="none" stroke-linecap="round"/><g data-name="&lt;Group&gt;" fill="#fef7ca"><path data-name="&lt;Path&gt;" d="M368.4 803c28.4-36.32 73.28-61.4 123.74-61.4s95.36 25.08 123.73 61.4M216.08 768.06l5.48-215.49h8.29l5.47 215.49h84.18"/><g data-name="&lt;Group&gt;"><path data-name="&lt;Path&gt;" d="M103.82 539.42l-.35 8.29 113.83 10.27.81-19.23-114.29.67zM280.65 660.2l7.35-3.84-48.02-103.72-17.05 8.91 57.72 98.65zM296.83 446.67l-7-4.44-65.81 93.43 16.24 10.32 56.57-99.31z"/><circle data-name="&lt;Path&gt;" cx="227.1" cy="548.76" r="13.65" transform="rotate(-87.59 227.085 548.76)"/><circle data-name="&lt;Path&gt;" cx="227.1" cy="548.76" r="6.2" transform="rotate(-87.59 227.085 548.76)"/></g><path data-name="&lt;Path&gt;" d="M107.5 803c48.05-61.46 124-103.9 209.37-103.9S478.24 741.54 526.25 803h103"/><g data-name="&lt;Group&gt;"><path data-name="&lt;Path&gt;" d="M341.8 367.05l-9.25 4.33 53.62 130.29 21.48-10.07-65.85-124.55zM456.54 772.76H413.7l-6.75-265.63h-10.23l-6.75 265.63h-71.09"/><path data-name="&lt;Path&gt;" d="M310.54 629.16l8.38 5.84 86.02-111.58-19.47-13.56-74.93 119.3zM553.16 525.18l.87-10.19L414.4 496.3l-2.02 23.63 140.78 5.25z"/><circle data-name="&lt;Path&gt;" cx="401.83" cy="507.13" r="16.83" transform="rotate(-25.12 401.82 507.105)"/><circle data-name="&lt;Path&gt;" cx="401.83" cy="507.13" r="7.8" transform="rotate(-25.12 401.82 507.105)"/></g></g><path data-name="&lt;Path&gt;" d="M753.48 344a47.05 47.05 0 0 1 0 94.1M764.96 401.62H546.02" fill="none" stroke-linecap="round"/></g></svg>