<svg id="Layer_1" data-name="Layer 1" xmlns="http://www.w3.org/2000/svg" width="1280" height="804" viewBox="0 0 1280 804"><title>individual_bg</title><path d="M1280,0H0V143.06a188.3,188.3,0,0,0,120.39,56.29A200.19,200.19,0,0,0,375,266.44a130.91,130.91,0,0,0,92.13-49.89q7,0.57,14.21.58a173.65,173.65,0,0,0,57.19-9.63,201.31,201.31,0,0,0,77.07,15.24,201,201,0,0,0,105.33-29.62q3.58,0.17,7.19.18a146.68,146.68,0,0,0,25.59-2.24,165.18,165.18,0,0,0,189.58,3.49,219.93,219.93,0,0,0,154.61,63.25A220.41,220.41,0,0,0,1280,161.73V0Z" style="fill:#e5ad93;opacity:0.11"/><g id="_Group_" data-name="&lt;Group&gt;" style="opacity:0.19"><path id="_Path_" data-name="&lt;Path&gt;" d="M448.88,505.44c0,25.67-20,47.3-45.69,47.3S357.1,530.7,357.1,505s21.2-47.72,46.87-47.72H791.89" style="fill:none;stroke:#7d5f76;stroke-linecap:round;stroke-miterlimit:10;stroke-width:2px"/><path id="_Path_2" data-name="&lt;Path&gt;" d="M474,507.06a68.74,68.74,0,1,1-68.43-69h347.9" style="fill:none;stroke:#7d5f76;stroke-linecap:round;stroke-miterlimit:10;stroke-width:2px"/><path id="_Path_3" data-name="&lt;Path&gt;" d="M495.23,507.09A88.23,88.23,0,1,1,407,418.9H718.91" style="fill:none;stroke:#7d5f76;stroke-linecap:round;stroke-miterlimit:10;stroke-width:2px"/><path id="_Path_4" data-name="&lt;Path&gt;" d="M193.56,547.22c0-19.28,15-35.53,34.32-35.53s34.62,16.56,34.62,35.84-15.93,35.84-35.21,35.84H30.8" style="fill:none;stroke:#7d5f76;stroke-linecap:round;stroke-miterlimit:10;stroke-width:2px"/><path id="_Path_5" data-name="&lt;Path&gt;" d="M174.68,546a51.64,51.64,0,1,1,51.4,51.8H59.65" style="fill:none;stroke:#7d5f76;stroke-linecap:round;stroke-miterlimit:10;stroke-width:2px"/><path id="_Path_6" data-name="&lt;Path&gt;" d="M158.74,546A66.28,66.28,0,1,1,225,612.23H85.62" style="fill:none;stroke:#7d5f76;stroke-linecap:round;stroke-miterlimit:10;stroke-width:2px"/><g id="_Group_2" data-name="&lt;Group&gt;"><path id="_Path_7" data-name="&lt;Path&gt;" d="M368.4,803c28.4-36.32,73.28-61.4,123.74-61.4S587.5,766.68,615.87,803" style="fill:#fef7ca;stroke:#7d5f76;stroke-miterlimit:10;stroke-width:2px"/><polyline id="_Path_8" data-name="&lt;Path&gt;" points="216.08 768.06 216.08 768.06 221.56 552.57 229.85 552.57 235.32 768.06 319.5 768.06" style="fill:#fef7ca;stroke:#7d5f76;stroke-miterlimit:10;stroke-width:2px"/><g id="_Group_3" data-name="&lt;Group&gt;"><polygon id="_Path_9" data-name="&lt;Path&gt;" points="103.82 539.42 103.47 547.71 217.3 557.98 218.11 538.75 103.82 539.42" style="fill:#fef7ca;stroke:#7d5f76;stroke-miterlimit:10;stroke-width:2px"/><polygon id="_Path_10" data-name="&lt;Path&gt;" points="280.65 660.2 288 656.36 239.98 552.64 222.93 561.55 280.65 660.2" style="fill:#fef7ca;stroke:#7d5f76;stroke-miterlimit:10;stroke-width:2px"/><polygon id="_Path_11" data-name="&lt;Path&gt;" points="296.83 446.67 289.83 442.23 224.02 535.66 240.26 545.98 296.83 446.67" style="fill:#fef7ca;stroke:#7d5f76;stroke-miterlimit:10;stroke-width:2px"/><circle id="_Path_12" data-name="&lt;Path&gt;" cx="227.1" cy="548.76" r="13.65" transform="translate(-330.74 752.57) rotate(-87.59)" style="fill:#fef7ca;stroke:#7d5f76;stroke-miterlimit:10;stroke-width:2px"/><circle id="_Path_13" data-name="&lt;Path&gt;" cx="227.1" cy="548.76" r="6.2" transform="translate(-330.74 752.57) rotate(-87.59)" style="fill:#fef7ca;stroke:#7d5f76;stroke-miterlimit:10;stroke-width:2px"/></g><path id="_Path_14" data-name="&lt;Path&gt;" d="M107.5,803c48.05-61.46,124-103.9,209.37-103.9S478.24,741.54,526.25,803h103" style="fill:#fef7ca;stroke:#7d5f76;stroke-miterlimit:10;stroke-width:2px"/><g id="_Group_4" data-name="&lt;Group&gt;"><polygon id="_Path_15" data-name="&lt;Path&gt;" points="341.8 367.05 332.55 371.38 386.17 501.67 407.65 491.6 341.8 367.05" style="fill:#fef7ca;stroke:#7d5f76;stroke-miterlimit:10;stroke-width:2px"/><polyline id="_Path_16" data-name="&lt;Path&gt;" points="456.54 772.76 413.7 772.76 406.95 507.13 396.72 507.13 389.97 772.76 318.88 772.76" style="fill:#fef7ca;stroke:#7d5f76;stroke-miterlimit:10;stroke-width:2px"/><polygon id="_Path_17" data-name="&lt;Path&gt;" points="310.54 629.16 318.92 635 404.94 523.42 385.47 509.86 310.54 629.16" style="fill:#fef7ca;stroke:#7d5f76;stroke-miterlimit:10;stroke-width:2px"/><polygon id="_Path_18" data-name="&lt;Path&gt;" points="553.16 525.18 554.03 514.99 414.4 496.3 412.38 519.93 553.16 525.18" style="fill:#fef7ca;stroke:#7d5f76;stroke-miterlimit:10;stroke-width:2px"/><circle id="_Path_19" data-name="&lt;Path&gt;" cx="401.83" cy="507.13" r="16.83" transform="translate(-177.27 218.54) rotate(-25.12)" style="fill:#fef7ca;stroke:#7d5f76;stroke-miterlimit:10;stroke-width:2px"/><circle id="_Path_20" data-name="&lt;Path&gt;" cx="401.83" cy="507.13" r="7.8" transform="translate(-177.27 218.54) rotate(-25.12)" style="fill:#fef7ca;stroke:#7d5f76;stroke-miterlimit:10;stroke-width:2px"/></g></g><path id="_Path_21" data-name="&lt;Path&gt;" d="M753.48,344a47.05,47.05,0,0,1,0,94.1" style="fill:none;stroke:#7d5f76;stroke-linecap:round;stroke-miterlimit:10;stroke-width:2px"/><line id="_Path_22" data-name="&lt;Path&gt;" x1="764.96" y1="401.62" x2="546.02" y2="401.62" style="fill:none;stroke:#7d5f76;stroke-linecap:round;stroke-miterlimit:10;stroke-width:2px"/></g></svg>