<svg id="Layer_1" data-name="Layer 1" xmlns="http://www.w3.org/2000/svg" width="144.46" height="52.75" viewBox="0 0 144.46 52.75"><title>logo</title><g id="_Group_" data-name="&lt;Group&gt;"><g id="_Group_2" data-name="&lt;Group&gt;"><g id="_Group_3" data-name="&lt;Group&gt;"><path id="_Compound_Path_" data-name="&lt;Compound Path&gt;" d="M17.73,35.94v-19h7.83a4.9,4.9,0,0,1,2.23.51,5.69,5.69,0,0,1,1.76,1.35,6.46,6.46,0,0,1,1.15,1.9,5.8,5.8,0,0,1,.42,2.13A6.48,6.48,0,0,1,30.72,25a6.11,6.11,0,0,1-1.1,1.9,5.43,5.43,0,0,1-1.69,1.33,4.76,4.76,0,0,1-2.18.5H19.1v7.18H17.73ZM19.1,27.5h6.57a3.61,3.61,0,0,0,1.69-.39,3.9,3.9,0,0,0,1.27-1,4.87,4.87,0,0,0,.8-1.5,5.52,5.52,0,0,0,.28-1.76A4.8,4.8,0,0,0,29.38,21a5,5,0,0,0-.91-1.49,4.4,4.4,0,0,0-1.34-1,3.63,3.63,0,0,0-1.62-.37H19.1V27.5Z" style="fill:#7d5f76"/><path id="_Compound_Path_2" data-name="&lt;Compound Path&gt;" d="M50.11,36.08a7.86,7.86,0,0,1-3.62-.83,9.35,9.35,0,0,1-2.81-2.17A9.71,9.71,0,0,1,41.85,30a10.22,10.22,0,0,1-.64-3.57,9.9,9.9,0,0,1,.68-3.65,10.19,10.19,0,0,1,1.88-3.08,9,9,0,0,1,2.83-2.13,8,8,0,0,1,3.54-.79,7.76,7.76,0,0,1,3.62.84,9.17,9.17,0,0,1,2.8,2.21,10.23,10.23,0,0,1,1.81,3.1,10.08,10.08,0,0,1-1.92,10.24,9.13,9.13,0,0,1-2.81,2.12A8,8,0,0,1,50.11,36.08Zm-7.53-9.65a9.15,9.15,0,0,0,.55,3.15,8.5,8.5,0,0,0,1.55,2.68,7.7,7.7,0,0,0,2.39,1.86,6.65,6.65,0,0,0,3,.7,6.57,6.57,0,0,0,3.1-.72,7.72,7.72,0,0,0,2.37-1.92,8.83,8.83,0,0,0,1.53-2.69,9,9,0,0,0,0-6.21,8.72,8.72,0,0,0-1.57-2.68,7.7,7.7,0,0,0-2.39-1.86,7,7,0,0,0-6.12,0,7.51,7.51,0,0,0-2.37,1.92A9.18,9.18,0,0,0,42.58,26.43Z" style="fill:#7d5f76"/><path id="_Compound_Path_3" data-name="&lt;Compound Path&gt;" d="M75.84,17h1.34L80,24,82.86,17H84.2l-3.35,8,4,9.27,7.29-17.42h1.5l-8.15,19H84.23L80,26.16l-4.21,9.78H74.58l-8.12-19h1.47l7.32,17.42,3.94-9.27Z" style="fill:#7d5f76"/><path id="_Compound_Path_4" data-name="&lt;Compound Path&gt;" d="M117.81,34.71v1.23H105.14v-19h12.44v1.23H106.5v7.48h9.68V26.8H106.5v7.91h11.31Z" style="fill:#7d5f76"/><path id="_Compound_Path_5" data-name="&lt;Compound Path&gt;" d="M130.73,35.94v-19h7.93a4.9,4.9,0,0,1,2.22.51,5.53,5.53,0,0,1,1.74,1.35,6.59,6.59,0,0,1,1.14,1.9,5.8,5.8,0,0,1,.42,2.13,6.44,6.44,0,0,1-.32,2,6,6,0,0,1-.91,1.76,5.12,5.12,0,0,1-1.42,1.29,5,5,0,0,1-1.82.67l4.74,7.4h-1.58l-4.61-7.18H132.1v7.18h-1.37Zm1.37-8.44h6.67a3.46,3.46,0,0,0,1.66-.4A4.2,4.2,0,0,0,141.72,26a4.69,4.69,0,0,0,.82-1.5,5.42,5.42,0,0,0,.28-1.73,4.72,4.72,0,0,0-.33-1.76,4.94,4.94,0,0,0-.91-1.49,4.55,4.55,0,0,0-1.34-1,3.59,3.59,0,0,0-1.65-.39H132.1V27.5Z" style="fill:#7d5f76"/></g><g id="_Group_4" data-name="&lt;Group&gt;"><path id="_Compound_Path_6" data-name="&lt;Compound Path&gt;" d="M24,3.14H20.47v9.12h-1.3V3.14H15.62V2H24V3.14Z" style="fill:#7d5f76"/><path id="_Compound_Path_7" data-name="&lt;Compound Path&gt;" d="M38.7,2V12.26H37.4V7.58H31.74v4.68h-1.3V2h1.3V6.42H37.4V2h1.3Z" style="fill:#7d5f76"/><path id="_Compound_Path_8" data-name="&lt;Compound Path&gt;" d="M53.07,11.1v1.16h-7V2h6.85V3.14H47.39V6.47h4.82V7.55H47.39V11.1h5.68Z" style="fill:#7d5f76"/></g><g id="_Group_5" data-name="&lt;Group&gt;"><path id="_Compound_Path_9" data-name="&lt;Compound Path&gt;" d="M20.24,50.88a4.38,4.38,0,0,1-2-.44,4.87,4.87,0,0,1-1.53-1.17,5.33,5.33,0,0,1-1-1.67,5.51,5.51,0,0,1-.35-1.93,5.34,5.34,0,0,1,.37-2,5.43,5.43,0,0,1,1-1.67,4.92,4.92,0,0,1,1.54-1.15,4.42,4.42,0,0,1,1.93-.43,4.22,4.22,0,0,1,2,.46,5,5,0,0,1,1.52,1.19,5.54,5.54,0,0,1,1.33,3.58,5.34,5.34,0,0,1-.37,2,5.4,5.4,0,0,1-1,1.66,4.89,4.89,0,0,1-1.54,1.14A4.42,4.42,0,0,1,20.24,50.88Zm-3.52-5.21A4.58,4.58,0,0,0,17,47.18a4.16,4.16,0,0,0,.72,1.3,3.47,3.47,0,0,0,1.12.9,3.14,3.14,0,0,0,1.45.33,3,3,0,0,0,1.48-.36,3.6,3.6,0,0,0,1.11-.93,4.13,4.13,0,0,0,.7-1.3,4.64,4.64,0,0,0,.24-1.46,4.59,4.59,0,0,0-.25-1.51,4,4,0,0,0-.72-1.29A3.61,3.61,0,0,0,21.68,42a3.27,3.27,0,0,0-2.9,0,3.56,3.56,0,0,0-1.11.91,4.17,4.17,0,0,0-.7,1.29A4.55,4.55,0,0,0,16.72,45.67Z" style="fill:#7d5f76"/><path id="_Compound_Path_10" data-name="&lt;Compound Path&gt;" d="M31.84,50.81V40.53h6.79v1.16H33.15v3.43h4.62v1.09H33.15v4.61h-1.3Z" style="fill:#7d5f76"/><path id="_Compound_Path_11" data-name="&lt;Compound Path&gt;" d="M53.15,40.53l3.11,5.36,3.14-5.36h1.42l-3.91,6.53v3.75h-1.3V47l-3.9-6.5h1.43Z" style="fill:#7d5f76"/><path id="_Compound_Path_12" data-name="&lt;Compound Path&gt;" d="M70.66,50.88a4.38,4.38,0,0,1-2-.44,4.87,4.87,0,0,1-1.53-1.17,5.33,5.33,0,0,1-1-1.67,5.51,5.51,0,0,1-.35-1.93,5.34,5.34,0,0,1,.37-2,5.43,5.43,0,0,1,1-1.67,4.92,4.92,0,0,1,1.54-1.15,4.42,4.42,0,0,1,1.93-.43,4.22,4.22,0,0,1,2,.46,5,5,0,0,1,1.52,1.19,5.54,5.54,0,0,1,1.33,3.58,5.34,5.34,0,0,1-.37,2,5.4,5.4,0,0,1-1,1.66,4.89,4.89,0,0,1-1.54,1.14A4.42,4.42,0,0,1,70.66,50.88Zm-3.52-5.21a4.58,4.58,0,0,0,.25,1.51,4.16,4.16,0,0,0,.72,1.3,3.47,3.47,0,0,0,1.12.9,3.14,3.14,0,0,0,1.45.33,3,3,0,0,0,1.48-.36,3.6,3.6,0,0,0,1.11-.93,4.13,4.13,0,0,0,.7-1.3,4.64,4.64,0,0,0,.24-1.46,4.59,4.59,0,0,0-.25-1.51,4,4,0,0,0-.72-1.29A3.61,3.61,0,0,0,72.1,42a3.27,3.27,0,0,0-2.9,0,3.56,3.56,0,0,0-1.11.91,4.17,4.17,0,0,0-.7,1.29A4.55,4.55,0,0,0,67.14,45.67Z" style="fill:#7d5f76"/><path id="_Compound_Path_13" data-name="&lt;Compound Path&gt;" d="M86.48,49.71A2.92,2.92,0,0,0,88,49.36a2.75,2.75,0,0,0,.95-0.91,3.73,3.73,0,0,0,.5-1.27,7.37,7.37,0,0,0,.14-1.46v-5.2h1.3v5.2a8,8,0,0,1-.24,2,4.73,4.73,0,0,1-.76,1.64,3.66,3.66,0,0,1-1.35,1.12,4.51,4.51,0,0,1-2,.41,4.47,4.47,0,0,1-2.07-.43,3.74,3.74,0,0,1-1.35-1.15,4.66,4.66,0,0,1-.74-1.65,8.16,8.16,0,0,1-.22-1.92v-5.2h1.3v5.2a7.15,7.15,0,0,0,.15,1.48,3.76,3.76,0,0,0,.51,1.27,2.73,2.73,0,0,0,.94.89A2.89,2.89,0,0,0,86.48,49.71Z" style="fill:#7d5f76"/></g></g><line id="_Path_" data-name="&lt;Path&gt;" x1="5.62" y1="25.32" x2="5.62" y2="52.75" style="fill:none;stroke:#7d5f76;stroke-miterlimit:10"/><line id="_Path_2" data-name="&lt;Path&gt;" x1="5.62" y1="6.62" x2="5.62" y2="23.2" style="fill:none;stroke:#7d5f76;stroke-miterlimit:10"/><path id="_Path_3" data-name="&lt;Path&gt;" d="M5.62,15.34" style="fill:none;stroke:#7d5f76;stroke-miterlimit:10"/><line id="_Path_4" data-name="&lt;Path&gt;" x1="5.62" x2="5.62" y2="5.03" style="fill:none;stroke:#7d5f76;stroke-miterlimit:10"/><line id="_Path_5" data-name="&lt;Path&gt;" x1="0.5" y1="46.49" x2="0.5" y2="52.75" style="fill:none;stroke:#7d5f76;stroke-miterlimit:10"/><line id="_Path_6" data-name="&lt;Path&gt;" x1="0.5" y1="17.2" x2="0.5" y2="44.37" style="fill:none;stroke:#7d5f76;stroke-miterlimit:10"/><path id="_Path_7" data-name="&lt;Path&gt;" d="M0.5,36.52" style="fill:none;stroke:#7d5f76;stroke-miterlimit:10"/><line id="_Path_8" data-name="&lt;Path&gt;" x1="0.5" x2="0.5" y2="15.61" style="fill:none;stroke:#7d5f76;stroke-miterlimit:10"/></g></svg>