<?xml version="1.0" encoding="utf-8"?>
<!-- Generator: Adobe Illustrator 19.0.1, SVG Export Plug-In . SVG Version: 6.00 Build 0)  -->
<svg version="1.1" id="Layer_1" xmlns="http://www.w3.org/2000/svg" xmlns:xlink="http://www.w3.org/1999/xlink" x="0px" y="0px"
	 viewBox="0 0 144.5 52.8" style="enable-background:new 0 0 144.5 52.8;" xml:space="preserve">
<style type="text/css">
	.st0{fill:#A590A0;}
	.st1{fill:none;stroke:#A590A0;stroke-miterlimit:10;}
</style>
<g id="XMLID_405_">
	<path id="XMLID_406_" class="st0" d="M17.7,35.9v-19h7.8c0.8,0,1.5,0.2,2.2,0.5c0.7,0.3,1.3,0.8,1.8,1.4c0.5,0.6,0.9,1.2,1.2,1.9
		c0.3,0.7,0.4,1.4,0.4,2.1c0,0.8-0.1,1.5-0.4,2.2c-0.3,0.7-0.6,1.3-1.1,1.9c-0.5,0.6-1,1-1.7,1.3c-0.7,0.3-1.4,0.5-2.2,0.5h-6.6v7.2
		H17.7z M19.1,27.5h6.6c0.6,0,1.2-0.1,1.7-0.4c0.5-0.3,0.9-0.6,1.3-1c0.3-0.4,0.6-0.9,0.8-1.5c0.2-0.6,0.3-1.1,0.3-1.8
		c0-0.6-0.1-1.2-0.3-1.8c-0.2-0.6-0.5-1.1-0.9-1.5c-0.4-0.4-0.8-0.8-1.3-1c-0.5-0.2-1.1-0.4-1.6-0.4h-6.4V27.5z"/>
	<path id="XMLID_409_" class="st0" d="M50.1,36.1c-1.3,0-2.5-0.3-3.6-0.8c-1.1-0.6-2-1.3-2.8-2.2c-0.8-0.9-1.4-1.9-1.8-3.1
		c-0.4-1.2-0.6-2.3-0.6-3.6c0-1.3,0.2-2.5,0.7-3.6c0.5-1.2,1.1-2.2,1.9-3.1s1.7-1.6,2.8-2.1c1.1-0.5,2.3-0.8,3.5-0.8
		c1.3,0,2.5,0.3,3.6,0.8c1.1,0.6,2,1.3,2.8,2.2s1.4,1.9,1.8,3.1c0.4,1.2,0.6,2.3,0.6,3.5c0,1.3-0.2,2.5-0.7,3.7
		c-0.5,1.2-1.1,2.2-1.9,3.1c-0.8,0.9-1.7,1.6-2.8,2.1C52.6,35.8,51.4,36.1,50.1,36.1z M42.6,26.4c0,1.1,0.2,2.1,0.5,3.1
		c0.4,1,0.9,1.9,1.6,2.7c0.7,0.8,1.5,1.4,2.4,1.9s1.9,0.7,3,0.7c1.1,0,2.2-0.2,3.1-0.7s1.7-1.1,2.4-1.9c0.7-0.8,1.2-1.7,1.5-2.7
		c0.4-1,0.5-2,0.5-3.1c0-1.1-0.2-2.1-0.6-3.1c-0.4-1-0.9-1.9-1.6-2.7c-0.7-0.8-1.5-1.4-2.4-1.9c-0.9-0.5-1.9-0.7-3-0.7
		c-1.1,0-2.2,0.2-3.1,0.7s-1.7,1.1-2.4,1.9s-1.2,1.7-1.5,2.7C42.8,24.4,42.6,25.4,42.6,26.4z"/>
	<path id="XMLID_416_" class="st0" d="M75.8,17h1.3L80,24l2.8-6.9h1.3l-3.4,8l4,9.3l7.3-17.4h1.5l-8.1,19h-1.3L80,26.2l-4.2,9.8
		h-1.3l-8.1-19h1.5l7.3,17.4l3.9-9.3L75.8,17z"/>
	<path id="XMLID_420_" class="st0" d="M117.8,34.7v1.2h-12.7v-19h12.4v1.2h-11.1v7.5h9.7v1.2h-9.7v7.9H117.8z"/>
	<path id="XMLID_425_" class="st0" d="M130.7,35.9v-19h7.9c0.8,0,1.5,0.2,2.2,0.5s1.3,0.8,1.7,1.4c0.5,0.6,0.9,1.2,1.1,1.9
		s0.4,1.4,0.4,2.1c0,0.7-0.1,1.4-0.3,2c-0.2,0.7-0.5,1.2-0.9,1.8s-0.9,0.9-1.4,1.3c-0.6,0.3-1.2,0.6-1.8,0.7l4.7,7.4h-1.6l-4.6-7.2
		h-6.2v7.2H130.7z M132.1,27.5h6.7c0.6,0,1.2-0.1,1.7-0.4c0.5-0.3,0.9-0.6,1.3-1.1c0.4-0.4,0.6-0.9,0.8-1.5c0.2-0.6,0.3-1.1,0.3-1.7
		c0-0.6-0.1-1.2-0.3-1.8c-0.2-0.6-0.5-1.1-0.9-1.5c-0.4-0.4-0.8-0.8-1.3-1s-1.1-0.4-1.6-0.4h-6.5V27.5z"/>
</g>
<g id="XMLID_397_">
	<path id="XMLID_398_" class="st0" d="M24,3.1h-3.5v9.1h-1.3V3.1h-3.5V2H24V3.1z"/>
	<path id="XMLID_400_" class="st0" d="M38.7,2v10.3h-1.3V7.6h-5.7v4.7h-1.3V2h1.3v4.4h5.7V2H38.7z"/>
	<path id="XMLID_402_" class="st0" d="M53.1,11.1v1.2h-7V2h6.9v1.2h-5.5v3.3h4.8v1.1h-4.8v3.5H53.1z"/>
</g>
<path id="XMLID_377_" class="st0" d="M20.2,50.9c-0.7,0-1.4-0.1-2-0.4c-0.6-0.3-1.1-0.7-1.5-1.2c-0.4-0.5-0.8-1-1-1.7
	c-0.2-0.6-0.3-1.3-0.3-1.9c0-0.7,0.1-1.3,0.4-2c0.2-0.6,0.6-1.2,1-1.7c0.4-0.5,0.9-0.9,1.5-1.2c0.6-0.3,1.2-0.4,1.9-0.4
	c0.7,0,1.4,0.2,2,0.5c0.6,0.3,1.1,0.7,1.5,1.2c0.4,0.5,0.8,1.1,1,1.7c0.2,0.6,0.3,1.3,0.3,1.9c0,0.7-0.1,1.3-0.4,2
	c-0.2,0.6-0.6,1.2-1,1.7s-0.9,0.9-1.5,1.1C21.6,50.7,20.9,50.9,20.2,50.9z M16.7,45.7c0,0.5,0.1,1,0.3,1.5c0.2,0.5,0.4,0.9,0.7,1.3
	c0.3,0.4,0.7,0.7,1.1,0.9c0.4,0.2,0.9,0.3,1.4,0.3c0.6,0,1-0.1,1.5-0.4c0.4-0.2,0.8-0.5,1.1-0.9c0.3-0.4,0.5-0.8,0.7-1.3
	s0.2-1,0.2-1.5c0-0.5-0.1-1-0.3-1.5s-0.4-0.9-0.7-1.3c-0.3-0.4-0.7-0.7-1.1-0.9c-0.4-0.2-0.9-0.3-1.4-0.3c-0.6,0-1,0.1-1.5,0.3
	c-0.4,0.2-0.8,0.5-1.1,0.9s-0.5,0.8-0.7,1.3C16.8,44.7,16.7,45.2,16.7,45.7z"/>
<path id="XMLID_387_" class="st0" d="M31.8,50.8V40.5h6.8v1.2h-5.5v3.4h4.6v1.1h-4.6v4.6H31.8z"/>
<rect x="5.1" y="25.3" class="st0" width="1" height="27.4"/>
<rect x="5.1" y="6.6" class="st0" width="1" height="16.6"/>
<path id="XMLID_1098_" class="st1" d="M5.6,15.3"/>
<rect x="0" y="46.5" class="st0" width="1" height="6.3"/>
<rect x="0" y="17.2" class="st0" width="1" height="27.2"/>
<path id="XMLID_1088_" class="st1" d="M0.5,36.5"/>
<rect x="0" y="0" class="st0" width="1" height="15.6"/>
<g id="XMLID_270_">
	<path id="XMLID_376_" class="st0" d="M59.3,48c0,0.4-0.1,0.7-0.2,1c-0.2,0.3-0.4,0.6-0.6,0.8c-0.3,0.2-0.6,0.4-0.9,0.5
		c-0.4,0.1-0.7,0.2-1.1,0.2h-4.7v-9.9h4.9c0.3,0,0.7,0.1,0.9,0.2c0.3,0.1,0.5,0.3,0.7,0.6c0.2,0.2,0.3,0.5,0.5,0.8
		c0.1,0.3,0.2,0.6,0.2,0.9c0,0.5-0.1,1-0.4,1.4c-0.2,0.4-0.6,0.7-1.1,0.9c0.6,0.2,1,0.5,1.4,0.9C59.2,46.9,59.3,47.4,59.3,48z
		 M53,41.8v3.3h3.2c0.2,0,0.4,0,0.6-0.1c0.2-0.1,0.3-0.2,0.5-0.4s0.2-0.3,0.3-0.5c0.1-0.2,0.1-0.4,0.1-0.6c0-0.2,0-0.5-0.1-0.7
		s-0.2-0.4-0.3-0.5S57,42,56.8,41.9c-0.2-0.1-0.4-0.1-0.6-0.1H53z M58.1,47.8c0-0.2,0-0.4-0.1-0.7c-0.1-0.2-0.2-0.4-0.3-0.6
		c-0.1-0.2-0.3-0.3-0.5-0.4c-0.2-0.1-0.4-0.1-0.6-0.1H53v3.4h3.5c0.2,0,0.4,0,0.6-0.1c0.2-0.1,0.4-0.2,0.5-0.4
		c0.1-0.2,0.3-0.3,0.4-0.5C58,48.3,58.1,48,58.1,47.8z"/>
	<path id="XMLID_628_" class="st0" d="M72.8,41.8h-3.4v8.8h-1.3v-8.8h-3.4v-1.1h8.1V41.8z"/>
	<path id="XMLID_796_" class="st0" d="M83.2,49.5c0.6,0,1.1-0.1,1.4-0.3c0.4-0.2,0.7-0.5,0.9-0.9c0.2-0.4,0.4-0.8,0.5-1.2
		s0.1-0.9,0.1-1.4v-5h1.3v5c0,0.7-0.1,1.3-0.2,1.9c-0.2,0.6-0.4,1.1-0.7,1.6s-0.8,0.8-1.3,1.1s-1.2,0.4-2,0.4c-0.8,0-1.5-0.1-2-0.4
		c-0.5-0.3-1-0.7-1.3-1.1c-0.3-0.5-0.6-1-0.7-1.6c-0.1-0.6-0.2-1.2-0.2-1.9v-5h1.3v5c0,0.5,0,1,0.1,1.4c0.1,0.5,0.3,0.9,0.5,1.2
		c0.2,0.4,0.5,0.6,0.9,0.9C82.2,49.4,82.6,49.5,83.2,49.5z"/>
</g>
</svg>
