<svg id="Layer_1" xmlns="http://www.w3.org/2000/svg" viewBox="0 0 144.5 52.8"><style>.st0{fill:#a590a0}.st1{fill:none;stroke:#a590a0;stroke-miterlimit:10}</style><g id="XMLID_405_"><path id="XMLID_406_" class="st0" d="M17.7 35.9v-19h7.8c.8 0 1.5.2 2.2.5.7.3 1.3.8 1.8 1.4.5.6.9 1.2 1.2 1.9.3.7.4 1.4.4 2.1 0 .8-.1 1.5-.4 2.2-.3.7-.6 1.3-1.1 1.9-.5.6-1 1-1.7 1.3-.7.3-1.4.5-2.2.5h-6.6v7.2h-1.4zm1.4-8.4h6.6c.6 0 1.2-.1 1.7-.4.5-.3.9-.6 1.3-1 .3-.4.6-.9.8-1.5.2-.6.3-1.1.3-1.8 0-.6-.1-1.2-.3-1.8-.2-.6-.5-1.1-.9-1.5-.4-.4-.8-.8-1.3-1-.5-.2-1.1-.4-1.6-.4h-6.4v9.4z"/><path id="XMLID_409_" class="st0" d="M50.1 36.1c-1.3 0-2.5-.3-3.6-.8-1.1-.6-2-1.3-2.8-2.2-.8-.9-1.4-1.9-1.8-3.1-.4-1.2-.6-2.3-.6-3.6 0-1.3.2-2.5.7-3.6.5-1.2 1.1-2.2 1.9-3.1s1.7-1.6 2.8-2.1c1.1-.5 2.3-.8 3.5-.8 1.3 0 2.5.3 3.6.8 1.1.6 2 1.3 2.8 2.2s1.4 1.9 1.8 3.1c.4 1.2.6 2.3.6 3.5 0 1.3-.2 2.5-.7 3.7-.5 1.2-1.1 2.2-1.9 3.1-.8.9-1.7 1.6-2.8 2.1-1 .5-2.2.8-3.5.8zm-7.5-9.7c0 1.1.2 2.1.5 3.1.4 1 .9 1.9 1.6 2.7.7.8 1.5 1.4 2.4 1.9s1.9.7 3 .7 2.2-.2 3.1-.7 1.7-1.1 2.4-1.9c.7-.8 1.2-1.7 1.5-2.7.4-1 .5-2 .5-3.1s-.2-2.1-.6-3.1c-.4-1-.9-1.9-1.6-2.7-.7-.8-1.5-1.4-2.4-1.9-.9-.5-1.9-.7-3-.7s-2.2.2-3.1.7-1.7 1.1-2.4 1.9-1.2 1.7-1.5 2.7c-.2 1.1-.4 2.1-.4 3.1z"/><path id="XMLID_416_" class="st0" d="M75.8 17h1.3l2.9 7 2.8-6.9h1.3l-3.4 8 4 9.3L92 17h1.5l-8.1 19h-1.3L80 26.2 75.8 36h-1.3l-8.1-19h1.5l7.3 17.4 3.9-9.3-3.3-8.1z"/><path id="XMLID_420_" class="st0" d="M117.8 34.7v1.2h-12.7v-19h12.4v1.2h-11.1v7.5h9.7v1.2h-9.7v7.9h11.4z"/><path id="XMLID_425_" class="st0" d="M130.7 35.9v-19h7.9c.8 0 1.5.2 2.2.5s1.3.8 1.7 1.4c.5.6.9 1.2 1.1 1.9s.4 1.4.4 2.1c0 .7-.1 1.4-.3 2-.2.7-.5 1.2-.9 1.8s-.9.9-1.4 1.3c-.6.3-1.2.6-1.8.7l4.7 7.4h-1.6l-4.6-7.2h-6.2V36h-1.2zm1.4-8.4h6.7c.6 0 1.2-.1 1.7-.4.5-.3.9-.6 1.3-1.1.4-.4.6-.9.8-1.5.2-.6.3-1.1.3-1.7 0-.6-.1-1.2-.3-1.8-.2-.6-.5-1.1-.9-1.5-.4-.4-.8-.8-1.3-1s-1.1-.4-1.6-.4h-6.5v9.4z"/></g><g id="XMLID_397_"><path id="XMLID_398_" class="st0" d="M24 3.1h-3.5v9.1h-1.3V3.1h-3.5V2H24v1.1z"/><path id="XMLID_400_" class="st0" d="M38.7 2v10.3h-1.3V7.6h-5.7v4.7h-1.3V2h1.3v4.4h5.7V2h1.3z"/><path id="XMLID_402_" class="st0" d="M53.1 11.1v1.2h-7V2H53v1.2h-5.5v3.3h4.8v1.1h-4.8v3.5h5.6z"/></g><path id="XMLID_377_" class="st0" d="M20.2 50.9c-.7 0-1.4-.1-2-.4-.6-.3-1.1-.7-1.5-1.2-.4-.5-.8-1-1-1.7-.2-.6-.3-1.3-.3-1.9 0-.7.1-1.3.4-2 .2-.6.6-1.2 1-1.7s.9-.9 1.5-1.2c.6-.3 1.2-.4 1.9-.4s1.4.2 2 .5c.6.3 1.1.7 1.5 1.2.4.5.8 1.1 1 1.7.2.6.3 1.3.3 1.9 0 .7-.1 1.3-.4 2-.2.6-.6 1.2-1 1.7s-.9.9-1.5 1.1c-.5.2-1.2.4-1.9.4zm-3.5-5.2c0 .5.1 1 .3 1.5.2.5.4.9.7 1.3.3.4.7.7 1.1.9.4.2.9.3 1.4.3.6 0 1-.1 1.5-.4.4-.2.8-.5 1.1-.9.3-.4.5-.8.7-1.3s.2-1 .2-1.5-.1-1-.3-1.5-.4-.9-.7-1.3c-.3-.4-.7-.7-1.1-.9-.4-.2-.9-.3-1.4-.3-.6 0-1 .1-1.5.3-.4.2-.8.5-1.1.9s-.5.8-.7 1.3c-.1.6-.2 1.1-.2 1.6z"/><path id="XMLID_387_" class="st0" d="M31.8 50.8V40.5h6.8v1.2h-5.5v3.4h4.6v1.1h-4.6v4.6h-1.3z"/><path class="st0" d="M5.1 25.3h1v27.4h-1zM5.1 6.6h1v16.6h-1zM0 46.5h1v6.3H0zM0 17.2h1v27.2H0zM0 0h1v15.6H0z"/><g id="XMLID_270_"><path id="XMLID_376_" class="st0" d="M59.3 48c0 .4-.1.7-.2 1-.2.3-.4.6-.6.8-.3.2-.6.4-.9.5-.4.1-.7.2-1.1.2h-4.7v-9.9h4.9c.3 0 .7.1.9.2.3.1.5.3.7.6.2.2.3.5.5.8.1.3.2.6.2.9 0 .5-.1 1-.4 1.4-.2.4-.6.7-1.1.9.6.2 1 .5 1.4.9.3.6.4 1.1.4 1.7zM53 41.8v3.3h3.2c.2 0 .4 0 .6-.1.2-.1.3-.2.5-.4s.2-.3.3-.5c.1-.2.1-.4.1-.6 0-.2 0-.5-.1-.7s-.2-.4-.3-.5-.3-.3-.5-.4c-.2-.1-.4-.1-.6-.1H53zm5.1 6c0-.2 0-.4-.1-.7l-.3-.6c-.1-.2-.3-.3-.5-.4-.2-.1-.4-.1-.6-.1H53v3.4h3.5c.2 0 .4 0 .6-.1.2-.1.4-.2.5-.4.1-.2.3-.3.4-.5 0-.1.1-.4.1-.6z"/><path id="XMLID_628_" class="st0" d="M72.8 41.8h-3.4v8.8h-1.3v-8.8h-3.4v-1.1h8.1v1.1z"/><path id="XMLID_796_" class="st0" d="M83.2 49.5c.6 0 1.1-.1 1.4-.3.4-.2.7-.5.9-.9.2-.4.4-.8.5-1.2s.1-.9.1-1.4v-5h1.3v5c0 .7-.1 1.3-.2 1.9-.2.6-.4 1.1-.7 1.6s-.8.8-1.3 1.1-1.2.4-2 .4-1.5-.1-2-.4c-.5-.3-1-.7-1.3-1.1-.3-.5-.6-1-.7-1.6-.1-.6-.2-1.2-.2-1.9v-5h1.3v5c0 .5 0 1 .1 1.4.1.5.3.9.5 1.2.2.4.5.6.9.9.4.2.8.3 1.4.3z"/></g></svg>