<svg id="Layer_1" xmlns="http://www.w3.org/2000/svg" viewBox="0 0 152 100"><style>.st0{fill:none;stroke:#333;stroke-linecap:round;stroke-miterlimit:10}.st0,.st1{stroke-width:.75;stroke-linejoin:round}.st1{fill:#FFF}.st1,.st2{stroke:#333;stroke-linecap:round;stroke-miterlimit:10}.st2{fill:none;stroke-width:.7432}</style><path id="XMLID_1567_" class="st0" d="M11.6 51.9v-1.7c0-1.1.9-2 2-2s2 .9 2 2v1.7"/><path id="XMLID_1566_" class="st0" d="M29.3 51.9v-1.7c0-1.1.9-2 2-2s2 .9 2 2v1.7"/><path id="XMLID_1565_" class="st0" d="M46.9 51.9v-1.7c0-1.1.9-2 2-2s2 .9 2 2v1.7"/><path id="XMLID_1564_" class="st0" d="M66.8 74.2h3.7"/><g id="XMLID_1510_"><path id="XMLID_1539_" class="st0" d="M138.8 63.7h-5"/><path id="XMLID_1537_" class="st0" d="M138.8 67.8h-5"/><path id="XMLID_1562_" class="st0" d="M148 73v19.7h-3.9V73"/><g id="XMLID_1549_"><path id="XMLID_1561_" class="st0" d="M54.9 55.9H1.6"/><path id="XMLID_1560_" class="st0" d="M1.6 51.9h53.3"/><path id="XMLID_1559_" class="st0" d="M74.2 63.1c0-5.1 4.1-9.1 9.1-9.1 5.1 0 9.1 4.1 9.1 9.1"/><path id="XMLID_1592_" class="st0" d="M88.5 69.8v-6.7"/><path id="XMLID_1591_" class="st0" d="M92.5 69.8v-6.7"/><path id="XMLID_1531_" class="st0" d="M74.2 75.5V63.1"/><path id="XMLID_1529_" class="st0" d="M78.3 76V63.1"/><path id="XMLID_1556_" class="st0" d="M60 75.4V60.2"/><path id="XMLID_1555_" class="st0" d="M64.1 60.2v15.2"/><path id="XMLID_1554_" class="st0" d="M78.3 63c0-2.8 2.3-5.1 5.1-5.1s5.1 2.3 5.1 5.1"/><path id="XMLID_1553_" class="st0" d="M54.9 51.9C60 51.9 64 56 64 61"/><path id="XMLID_1552_" class="st0" d="M54.9 55.9c2.8 0 5.1 2.3 5.1 5.1"/><path id="XMLID_1551_" class="st0" d="M78.3 75.4c0 5.1-4.1 9.1-9.1 9.1s-9.2-4-9.2-9.1"/><path id="XMLID_1550_" class="st0" d="M74.2 75.5c0 2.8-2.3 5.1-5.1 5.1S64 78.3 64 75.5"/></g><g id="XMLID_1546_"><path id="XMLID_1563_" class="st0" d="M107.1 81.7l-6.7 2-6.7 2"/><path id="XMLID_1547_" class="st0" d="M107.1 85.7l-13.5-4"/></g><g id="XMLID_1543_"><path id="XMLID_1545_" class="st0" d="M113.3 85.7l13.5-4"/><path id="XMLID_1548_" class="st0" d="M113.3 81.7l6.7 2 6.7 2"/></g><path id="XMLID_1595_" class="st0" d="M133.8 62v7.8h-8.6c0-.1-.1-.1-.2-.2-.4-.4-.9-.6-1.4-.6v-3.4h-4.2V62h14.4z"/><path id="XMLID_1581_" class="st0" d="M93.7 79.6v9.9"/><path id="XMLID_1540_" class="st0" d="M87.4 89.5v-9.9"/><path id="XMLID_1599_" class="st0" d="M121.6 78.4c0 .5.1.9.4 1.2h-10.2c.3-.3.4-.8.4-1.2V71c0-.5-.2-.9-.4-1.2H122c-.3.3-.4.8-.4 1.2v7.4z"/><path id="XMLID_1542_" class="st0" d="M113.3 79.6v8.6"/><path id="XMLID_1558_" class="st0" d="M107.1 88.6v-9"/><path id="XMLID_1586_" class="st0" d="M132.9 89.5v-9.9"/><path id="XMLID_1523_" class="st0" d="M126.7 79.6v9.9"/><g id="XMLID_1524_"><path id="XMLID_1538_" class="st0" d="M115.2 65.6h-10l2.1-30.2h5.8z"/><path id="XMLID_1602_" class="st0" d="M94.8 78.4c0 .5.2.9.4 1.2H84.3v-9.9h10.9c-.3.3-.4.8-.4 1.2v7.5z"/><path id="XMLID_1585_" class="st0" d="M112.2 71v7.4c0 .5-.2.9-.4 1.2-.4.5-.9.8-1.6.8-.6 0-1.2-.3-1.6-.8-.3-.3-.4-.8-.4-1.2V71c0-.5.2-.9.4-1.2.4-.5.9-.8 1.6-.8.5 0 1 .2 1.4.6l.2.2c.2.3.4.7.4 1.2z"/><path id="XMLID_1584_" class="st0" d="M110.2 65.6V37.8"/></g><path id="XMLID_1588_" class="st0" d="M125.6 71v7.4c0 .5-.2.9-.4 1.2-.4.5-.9.8-1.6.8-.7 0-1.2-.3-1.6-.8-.3-.3-.4-.8-.4-1.2V71c0-.5.1-.9.4-1.2.4-.5.9-.8 1.6-.8.5 0 1.1.2 1.4.6l.2.2c.2.3.4.7.4 1.2z"/><path id="XMLID_1582_" class="st0" d="M123.6 65.6V69c-.7 0-1.2.3-1.6.8h-10.2c0-.1-.1-.1-.2-.2-.4-.4-.9-.6-1.4-.6-.6 0-1.2.3-1.6.8H98.4c0-.1-.1-.1-.2-.2-.4-.4-.9-.6-1.4-.6v-3.4h26.8z"/><path id="XMLID_1587_" class="st0" d="M98.8 71v7.4c0 .5-.2.9-.4 1.2-.4.5-.9.8-1.6.8-.7 0-1.2-.3-1.6-.8-.3-.3-.4-.8-.4-1.2V71c0-.5.2-.9.4-1.2.4-.5.9-.8 1.6-.8.6 0 1.1.2 1.4.6l.2.2c.2.3.4.7.4 1.2z"/><path id="XMLID_1608_" class="st0" d="M108.2 78.4c0 .5.2.9.4 1.2H98.4c.3-.3.4-.8.4-1.2V71c0-.5-.2-.9-.4-1.2h10.2c-.3.3-.4.8-.4 1.2v7.4z"/><path id="XMLID_1541_" class="st0" d="M135.3 69.8v9.9h-10.1c.3-.3.4-.8.4-1.2V71c0-.5-.2-.9-.4-1.2h10.1z"/><path id="XMLID_1518_" class="st0" d="M123.6 27.3c0 5.3-2.9 10.2-7.7 12.5 2.4-2.8 2.2-6.8 0-9.6-1.7-2.2-3.5-4.4-4.4-7.1-2.3 1.7-3.8 4.5-3.7 7.4-1.1-.8-2.2-2.2-2.3-3.6-2.4 3.7-4.2 9-1 12.8-6.6-3-9.6-11.1-6.5-17.7 1.1-2.4 3.1-4.3 4.6-6.4 2.1-2.9 4.1-6 5.2-9.3 4 3 7.1 8.2 6.6 13.4 2.2-1.6 3.9-4.7 4.1-7.4 3 4.3 5.1 9.6 5.1 15z"/><path id="XMLID_1517_" class="st2" d="M83.8 89.6h5.5"/><path id="XMLID_1516_" class="st2" d="M124.6 89.6H138"/><path id="XMLID_1515_" class="st2" d="M142.4 92.7h7.4"/><path id="XMLID_1514_" class="st2" d="M119.7 89.6h3"/><path id="XMLID_1513_" class="st2" d="M111.3 88.2h4"/><path id="XMLID_1512_" class="st0" d="M138.9 63.7c5.1 0 9.1 4.1 9.1 9.1"/><path id="XMLID_1511_" class="st0" d="M139 67.8c2.8 0 5.1 2.3 5.1 5.1"/></g><path id="XMLID_1509_" class="st0" d="M43.7 69H56"/><path id="XMLID_1508_" class="st0" d="M19.3 41.2c0 2.3-1.2 4.3-3.3 5.3 1-1.2.9-2.9 0-4.1-.7-.9-1.5-1.9-1.9-3-1 .7-1.6 1.9-1.6 3.2-.5-.3-.9-.9-1-1.5-1 1.6-1.8 3.8-.4 5.4-2.8-1.3-4.1-4.8-2.8-7.6.5-1 1.3-1.8 2-2.7.9-1.2 1.8-2.5 2.2-4 1.7 1.3 3 3.5 2.8 5.7.9-.7 1.6-2 1.8-3.1 1.4 1.8 2.2 4.1 2.2 6.4z"/><path id="XMLID_1507_" class="st0" d="M54.6 41.2c0 2.3-1.2 4.3-3.3 5.3 1-1.2.9-2.9 0-4.1-.7-.9-1.5-1.9-1.9-3-1 .7-1.6 1.9-1.6 3.2-.5-.3-.9-.9-1-1.5-1 1.6-1.8 3.8-.4 5.4-2.8-1.3-4.1-4.8-2.8-7.6.5-1 1.3-1.8 2-2.7.9-1.2 1.8-2.5 2.2-4 1.7 1.3 3 3.5 2.8 5.7.9-.7 1.6-2 1.8-3.1 1.3 1.8 2.2 4.1 2.2 6.4z"/><path id="XMLID_1506_" class="st0" d="M26.9 41.7c0 1.7.9 3.4 2.5 4.1-.8-.9-.7-2.2 0-3.1.6-.7 1.2-1.5 1.4-2.3.8.6 1.3 1.5 1.2 2.4.4-.3.7-.7.8-1.2.8 1.2 1.4 3 .3 4.2 2.2-1 3.1-3.7 2.1-5.9-.4-.8-1-1.4-1.5-2.1-.7-.9-1.4-2-1.7-3.1-1.3 1-2.3 2.7-2.2 4.4-.7-.5-1.3-1.5-1.4-2.4-.9 1.5-1.5 3.3-1.5 5z"/><path id="XMLID_1505_" class="st0" d="M98.3 95.4h22.1"/><path id="XMLID_1504_" class="st0" d="M124.7 95.4h3.2"/><path id="XMLID_1503_" class="st0" d="M10.9 95.4h15.8"/><path id="XMLID_1502_" class="st0" d="M67.7 95.4h8.6"/><path id="XMLID_1501_" class="st0" d="M23.5 89.6h16.9"/><path id="XMLID_1500_" class="st0" d="M4.9 89.6h18.6"/><path id="XMLID_1499_" class="st0" d="M13.4 83.8h16.7"/><path id="XMLID_1498_" class="st0" d="M12 72.2h9.9"/><path id="XMLID_1497_" class="st0" d="M4.9 72.2H12"/><path id="XMLID_1496_" class="st0" d="M49.9 78h3.3"/><path id="XMLID_1495_" class="st0" d="M73.9 86.7H85"/><path id="XMLID_1494_" class="st0" d="M34.6 75.1h11"/><path id="XMLID_1493_" class="st0" d="M6.9 75.1h11.3"/><path id="XMLID_1492_" class="st0" d="M43.9 80.9h10.2"/><path id="XMLID_1491_" class="st0" d="M4.9 80.9h19.5"/><path id="XMLID_1155_" class="st0" d="M16.2 92.5H18"/><path id="XMLID_705_" class="st0" d="M66.8 92.5h1.8"/><path id="XMLID_687_" class="st0" d="M45.9 92.5h11.3"/></svg>