<svg id="Layer_1" xmlns="http://www.w3.org/2000/svg" viewBox="0 0 152 100"><style>.st0{fill:none;stroke-width:.75;stroke-linecap:round;stroke-linejoin:round;stroke-miterlimit:10}</style><g id="XMLID_551_"><path id="XMLID_1322_" class="st0" d="M83.6 75H60.4"/><path id="XMLID_1057_" class="st0" d="M84.8 39.1h19.8"/><path id="XMLID_1344_" class="st0" d="M85.4 42.4c.4 3.1.9 8.1.9 14.1 0 7.3-1.3 13.8-2.7 18.5-1 3.3-2 5.8-2.5 7.1"/><path id="XMLID_1338_" class="st0" d="M115 42.4c-.1.9-.3 2.1-.4 3.4-.3 2.9-.5 6.6-.5 10.8 0 10.5 4 22 5.4 25.6"/><path id="XMLID_1320_" class="st0" d="M84.7 39.1h31v3.3h-31z"/><path id="XMLID_1319_" class="st0" d="M80 82.2h40.3v3.3H80z"/><path id="XMLID_1318_" class="st0" d="M94.8 45.8h19.8"/><path id="XMLID_1317_" class="st0" d="M86 45.8h3.9"/><g id="XMLID_1313_"><path id="XMLID_1316_" class="st0" d="M103.2 60.4c0 4.2-1.3 7.6-3 7.6s-3.1-3.4-3.1-7.6 1.3-7.6 3-7.6 3.1 3.4 3.1 7.6z"/><path id="XMLID_1315_" class="st0" d="M101.9 58.2c3.9 2.4 6.2 5.3 5.2 6.6-1 1.2-4.9.3-8.7-2.1-3.9-2.4-6.2-5.3-5.2-6.6 1-1.2 4.9-.3 8.7 2.1z"/><path id="XMLID_1314_" class="st0" d="M98.4 58.2c-3.9 2.4-6.2 5.3-5.2 6.6 1 1.2 4.9.3 8.7-2.1 3.9-2.4 6.2-5.3 5.2-6.6-.9-1.2-4.8-.3-8.7 2.1z"/></g><g id="XMLID_1308_"><path id="XMLID_1074_" class="st0" d="M101.5 39.1c1 0 1.8-.8 1.8-1.8 0-.9-.7-1.7-1.7-1.8H97c-.8 0-1.2-.2-1.5-.5-1-1.4 0-3 1.3-3h4.8c.4 0 .9-.2 1.1-.6 1-1.4 0-2.9-1.4-2.9H90.1c-1.2 0-2.1-.8-2.1-1.8s1-1.8 2.1-1.8h2.4c.4 0 .9-.2 1.1-.5 1-1.4 0-2.9-1.3-2.9h-7.6c-.7 0-1.3-.8-1.3-1.8s.6-1.8 1.3-1.8h20.9c.7 0 1.3.8 1.3 1.8s-.6 1.8-1.3 1.8h-6.9c-.5 0-.9.2-1.1.6-.9 1.4 0 2.9 1.4 2.9h14.3c.4 0 .9-.2 1.1-.5 1-1.4 0-2.9-1.3-2.9h-.3c-.4 0-.8-.2-1.1-.5-1-1.4 0-3 1.3-3h26.1c1.4 0 2.4 1.5 1.3 3-.2.3-.7.5-1.1.5h-19.8c-.5 0-.9.2-1.1.6-.9 1.4 0 2.9 1.4 2.9h7.6c1.2 0 2.1.8 2.1 1.8s-1 1.8-2.1 1.8h-19.5c-.4 0-.9.2-1.1.5-1 1.4 0 2.9 1.3 2.9h2.6c.4 0 .9.2 1.1.5 1 1.4 0 3-1.3 3h-2.4c-.9 0-1.7.8-1.7 1.8s.8 1.8 1.8 1.8"/><path id="XMLID_1311_" class="st0" d="M122.7 35.6h-5c-.8 0-1.4-.6-1.4-1.4v-.7c0-.8.6-1.4 1.4-1.4h5c.8 0 1.4.6 1.4 1.4v.7c0 .8-.6 1.4-1.4 1.4z"/><path id="XMLID_1310_" class="st0" d="M132.8 15.7h-5c-.8 0-1.4-.6-1.4-1.4v-.7c0-.8.6-1.4 1.4-1.4h5c.8 0 1.4.6 1.4 1.4v.7c0 .8-.6 1.4-1.4 1.4z"/><path id="XMLID_1309_" class="st0" d="M121.2 15.7H99.5c-.8 0-1.4-.6-1.4-1.4v-.7c0-.8.6-1.4 1.4-1.4h21.7c.8 0 1.4.6 1.4 1.4v.7c0 .8-.7 1.4-1.4 1.4z"/></g><path id="XMLID_1307_" class="st0" d="M113 78.8h5"/><path id="XMLID_1306_" class="st0" d="M101.8 78.8h7.8"/><path id="XMLID_1305_" class="st0" d="M82.5 78.8h16.3"/><path id="XMLID_1304_" class="st0" d="M73.8 85.4h55.5"/><path id="XMLID_1297_" class="st0" d="M65.9 85.4h5"/><path id="XMLID_1295_" class="st0" d="M25.9 83.4h13.2"/><path id="XMLID_1294_" class="st0" d="M41.1 83.4h4"/><path id="XMLID_1293_" class="st0" d="M61.5 81.3h9.4"/><path id="XMLID_1290_" class="st0" d="M10 81.3h5.4"/><path id="XMLID_1345_" class="st0" d="M51.6 39c.1.8.2 1.7.3 2.8.2 2.4.4 5.5.4 9 0 3.8-.6 7.7-1.4 11.2 2.9 1.9 5.3 4.4 7.1 7.4.5.9 1 1.8 1.4 2.8.1.3.3.6.4.9"/><path id="XMLID_1337_" class="st0" d="M76.4 39c-.3 2.6-.8 6.8-.8 11.8 0 10.4 3.2 18.7 4.4 21.5"/><path id="XMLID_1336_" class="st0" d="M51.2 36.3h25.6"/><path id="XMLID_1286_" class="st0" d="M51 36.3h26V39H51z"/><path id="XMLID_1339_" class="st0" d="M80.9 72.3V75H60.4l-.6-1.8c-.1-.3-.2-.6-.4-1h21.5z"/><path id="XMLID_1284_" class="st0" d="M68.5 41.8H51.9"/><path id="XMLID_1283_" class="st0" d="M75.9 41.8h-3.3"/><g id="XMLID_1094_"><path id="XMLID_1281_" class="st0" d="M61.4 54.1c0 3.6 1.1 6.5 2.5 6.5s2.6-2.9 2.6-6.4c0-3.6-1.1-6.5-2.5-6.5s-2.5 2.8-2.6 6.4z"/><path id="XMLID_1274_" class="st0" d="M62.5 52.2c-3.3 2-5.2 4.5-4.4 5.6s4.1.3 7.4-1.7c3.3-2 5.2-4.5 4.4-5.6-.8-1.1-4.1-.3-7.4 1.7z"/><path id="XMLID_1270_" class="st0" d="M65.5 52.2c3.3 2 5.2 4.5 4.4 5.6-.8 1.1-4.1.3-7.4-1.7-3.3-2-5.2-4.5-4.4-5.6.8-1.1 4.1-.3 7.4 1.7z"/></g><path id="XMLID_1323_" class="st0" d="M62.6 69.5H58"/><path id="XMLID_1062_" class="st0" d="M78.8 69.5H65.1"/><path id="XMLID_1341_" class="st0" d="M61.3 81.3c0-2.2-.3-4.3-.9-6.3"/><path id="XMLID_1340_" class="st0" d="M15.4 81.3c0-12.7 10.3-23 23-23 4.7 0 9 1.4 12.6 3.8"/><g id="XMLID_1084_"><path id="XMLID_1093_" class="st0" d="M30.1 20.2c0 .8.7 1.5 1.5 1.5h16.2c.8 0 1.5.7 1.5 1.5s-.7 1.5-1.5 1.5h-6.4c-1 0-1.8.7-1.8 1.5s.8 1.5 1.8 1.5h16.1c.8 0 1.5.7 1.5 1.5s-.7 1.5-1.5 1.5h-2c-.8 0-1.5.7-1.5 1.5s.7 1.5 1.5 1.5h2c.8 0 1.5.7 1.5 1.5s-.7 1.5-1.5 1.5h5.6c-.8 0-1.5-.7-1.5-1.5s.7-1.5 1.5-1.5H67c.8 0 1.5-.7 1.5-1.5s-.7-1.5-1.5-1.5h-3.8c-.8 0-1.5-.7-1.5-1.5s.7-1.5 1.5-1.5h9.5c1 0 1.8-.7 1.8-1.5s-.8-1.5-1.8-1.5h-1.8c-.8 0-1.5-.7-1.5-1.5s.7-1.5 1.5-1.5h6.3c.6 0 1.1-.7 1.1-1.5s-.5-1.5-1.1-1.5H59.6c-.6 0-1.1.7-1.1 1.5s.5 1.5 1.1 1.5h5.6c.8 0 1.5.7 1.5 1.5s-.7 1.5-1.5 1.5H53.4c-.8 0-1.5-.7-1.5-1.5s.7-1.5 1.5-1.5 1.5-.7 1.5-1.5-.7-1.5-1.5-1.5H31.6c-.8 0-1.5.7-1.5 1.5z"/><path id="XMLID_1091_" class="st0" d="M45.6 33.4h3.6c.8 0 1.5-.7 1.5-1.5s-.7-1.5-1.5-1.5h-3.6c-.8 0-1.5.7-1.5 1.5.1.8.7 1.5 1.5 1.5z"/><path id="XMLID_1088_" class="st0" d="M37.1 16.7h3.6c.8 0 1.5-.7 1.5-1.5s-.7-1.5-1.5-1.5h-3.6c-.8 0-1.5.7-1.5 1.5.1.8.7 1.5 1.5 1.5z"/><path id="XMLID_1087_" class="st0" d="M46.9 16.7h17.6c.8 0 1.5-.7 1.5-1.5s-.7-1.5-1.5-1.5H46.9c-.8 0-1.5.7-1.5 1.5s.7 1.5 1.5 1.5z"/></g></g></svg>