<svg id="Layer_1" xmlns="http://www.w3.org/2000/svg" viewBox="0 0 152 100"><style>.st0{fill-rule:evenodd;clip-rule:evenodd;fill:none;stroke-width:.75;stroke-linecap:round;stroke-linejoin:round}.st0,.st1{stroke-miterlimit:10}.st1,.st2{fill:none;stroke-width:.75;stroke-linecap:round;stroke-linejoin:round}.st3{stroke-dasharray:1.8592,4.648}.st3,.st4{fill:none;stroke-width:.75;stroke-linecap:round;stroke-linejoin:round}.st4{stroke-dasharray:.9296,2.7888,1.8592,4.648}.st5{stroke-dasharray:4.4203,7.7356}.st5,.st6{fill:none;stroke-width:.75;stroke-linecap:round;stroke-linejoin:round}.st6{stroke-dasharray:3.3152,2.2102,4.4203,7.7356}</style><g id="XMLID_548_"><g id="XMLID_1460_"><path id="XMLID_650_" class="st0" d="M36.1 67.2v-2.6"/><path id="XMLID_601_" class="st0" d="M34 67.3v-2.7"/><g id="XMLID_1461_"><path id="XMLID_651_" class="st1" d="M29.5 64.6h13.8"/><path id="XMLID_621_" class="st1" d="M25.3 63.9V52.8h19.4v9.5"/><g id="XMLID_1462_"><path id="XMLID_1466_" class="st1" d="M28.6 54.8v7.9"/><path id="XMLID_1465_" class="st1" d="M41.4 54.8v7.9"/><path id="XMLID_1464_" class="st1" d="M32.9 54.8v7.9"/><path id="XMLID_1463_" class="st1" d="M37.2 54.8v7.9"/></g></g></g><g id="XMLID_1457_"><path id="XMLID_693_" class="st1" d="M88 86.6h-5.5"/><path id="XMLID_652_" class="st1" d="M43.3 67.8c-2.1-.3-4.3-.5-6.5-.5h-.7c-.7 0-1.4 0-2.1.1-1.5.1-3 .3-4.5.6"/><path id="XMLID_1148_" class="st1" d="M64.3 78.2c-1.6-1.5-3.3-2.9-5.2-4.2"/><path id="XMLID_1347_" class="st1" d="M12.3 75.7c-3.9 3-7.2 6.7-9.7 11"/></g><g id="XMLID_1438_"><g id="XMLID_1450_"><path id="XMLID_701_" class="st2" d="M149 42.5h-.5"/><path id="XMLID_700_" class="st3" d="M145.7 42.4c-1.4-.1-2.8-.3-4.1-.6"/><path id="XMLID_699_" class="st4" d="M139.3 41.3c-16-4.1-28.1-18.1-29.3-35.1"/><path id="XMLID_698_" class="st2" d="M109.9 3.9v-.5"/></g><g id="XMLID_1443_"><path id="XMLID_696_" class="st2" d="M149 37h-1.5"/><path id="XMLID_691_" class="st5" d="M145.3 36.8c-2.8-.3-5.5-1-8.1-1.9"/><path id="XMLID_690_" class="st6" d="M133.7 33.3c-9.3-4.8-16.1-13.8-17.9-24.5"/><path id="XMLID_689_" class="st2" d="M115.4 4.9V3.4"/></g><path id="XMLID_1442_" class="st1" d="M149 25.4c-12.2 0-22-9.9-22-22"/><path id="XMLID_1441_" class="st1" d="M149 25.4c-12.2 0-22-9.9-22-22"/><path id="XMLID_1440_" class="st1" d="M149 30.6c-15 0-27.2-12.2-27.2-27.2"/><path id="XMLID_1439_" class="st1" d="M149 19.7c-9 0-16.3-7.3-16.3-16.3"/></g><g id="XMLID_1429_"><path id="XMLID_1348_" class="st0" d="M20.9 75.7v3.1h2.8"/><path id="XMLID_1437_" class="st0" d="M18.7 75.7v3.1h-2.8"/><g id="XMLID_1430_"><path id="XMLID_1436_" class="st1" d="M10.1 63.9h19.4v11.8H10.1z"/><g id="XMLID_1431_"><path id="XMLID_1435_" class="st1" d="M13.4 65.8v7.9"/><path id="XMLID_1434_" class="st1" d="M26.2 65.8v7.9"/><path id="XMLID_1433_" class="st1" d="M17.7 65.8v7.9"/><path id="XMLID_1432_" class="st1" d="M21.9 65.8v7.9"/></g></g></g><g id="XMLID_1420_"><path id="XMLID_599_" class="st0" d="M54.1 74v3.2h2.8"/><path id="XMLID_655_" class="st0" d="M51.9 74v3.2h-1.4"/><g id="XMLID_1421_"><path id="XMLID_15_" class="st1" d="M50.5 74h12.2V62.3H43.3v11"/><g id="XMLID_1422_"><path id="XMLID_1426_" class="st1" d="M46.6 64.2v7.9"/><path id="XMLID_1425_" class="st1" d="M59.4 64.2v7.9"/><path id="XMLID_1424_" class="st1" d="M50.8 64.2v7.9"/><path id="XMLID_1423_" class="st1" d="M55.1 64.2v7.9"/></g></g></g><g id="XMLID_1402_"><path id="XMLID_695_" class="st0" d="M94.6 83.9v2.7h2.5"/><path id="XMLID_682_" class="st0" d="M92.8 83.9v2.7h-2.5"/><g id="XMLID_1403_"><path id="XMLID_1409_" class="st1" d="M85.3 73.6h16.9v10.2H85.3z"/><g id="XMLID_1404_"><path id="XMLID_1408_" class="st1" d="M88.1 75.3v6.9"/><path id="XMLID_1407_" class="st1" d="M99.3 75.3v6.9"/><path id="XMLID_1406_" class="st1" d="M91.8 75.3v6.9"/><path id="XMLID_1405_" class="st1" d="M95.6 75.3v6.9"/></g></g></g><g id="XMLID_1393_"><path id="XMLID_669_" class="st0" d="M74.5 78.2V76"/><path id="XMLID_668_" class="st0" d="M72.8 78.2V76"/><g id="XMLID_1394_"><path id="XMLID_1400_" class="st1" d="M65.8 66.5h15.8v9.6H65.8z"/><g id="XMLID_1395_"><path id="XMLID_1399_" class="st1" d="M68.4 68.1v6.4"/><path id="XMLID_1398_" class="st1" d="M78.9 68.1v6.4"/><path id="XMLID_1397_" class="st1" d="M71.9 68.1v6.4"/><path id="XMLID_1396_" class="st1" d="M75.4 68.1v6.4"/></g></g></g><g id="XMLID_1384_"><path id="XMLID_653_" class="st0" d="M72.7 91.5v3.6h3.2"/><path id="XMLID_692_" class="st0" d="M70.3 91.5v3.6H67"/><g id="XMLID_1385_"><path id="XMLID_1391_" class="st1" d="M60.5 78.2h22v13.3h-22z"/><g id="XMLID_1386_"><path id="XMLID_1390_" class="st1" d="M64.2 80.4v8.9"/><path id="XMLID_1389_" class="st1" d="M78.7 80.4v8.9"/><path id="XMLID_1388_" class="st1" d="M69.1 80.4v8.9"/><path id="XMLID_1387_" class="st1" d="M73.9 80.4v8.9"/></g></g></g><g id="XMLID_1375_"><path id="XMLID_680_" class="st0" d="M19.4 94.5v3.3h3"/><path id="XMLID_663_" class="st0" d="M17.1 94.5v3.3h-3"/><g id="XMLID_1376_"><path id="XMLID_1382_" class="st1" d="M8 82h20.5v12.5H8z"/><g id="XMLID_1377_"><path id="XMLID_1381_" class="st1" d="M11.5 84.1v8.3"/><path id="XMLID_1380_" class="st1" d="M25.1 84.1v8.3"/><path id="XMLID_1379_" class="st1" d="M16 84.1v8.3"/><path id="XMLID_1378_" class="st1" d="M20.5 84.1v8.3"/></g></g></g><g id="XMLID_1349_"><path id="XMLID_1373_" class="st1" d="M104.2 7.3l-57.8 5.9"/><path id="XMLID_1372_" class="st1" d="M106.2 16.7L60.3 32.2"/><path id="XMLID_1371_" class="st1" d="M110.1 25.5L74 46.2"/><path id="XMLID_1370_" class="st1" d="M115.7 33.2L92.1 54.5"/><path id="XMLID_1369_" class="st1" d="M122.9 39.7l-15.3 21"/><path id="XMLID_1368_" class="st1" d="M131.2 44.5l-10.6 23.8"/><path id="XMLID_1367_" class="st1" d="M140.6 47.6l-5.4 25.5"/><path id="XMLID_1366_" class="st1" d="M150.1 48.6v26.1"/><path id="XMLID_1365_" class="st1" d="M104.9 12l-40.1 8.5"/><path id="XMLID_1364_" class="st1" d="M62.1 21.1l-3.3.7"/><path id="XMLID_1363_" class="st1" d="M103.7 2.2H66.5"/><path id="XMLID_1362_" class="st1" d="M63.7 2.2h-3.4"/><path id="XMLID_1361_" class="st1" d="M107.9 21.2L81.3 33"/><path id="XMLID_1360_" class="st1" d="M78.8 34.1l-3.2 1.4"/><path id="XMLID_1359_" class="st1" d="M112.7 29.5L94.6 42.7"/><path id="XMLID_1358_" class="st1" d="M92.3 44.3l-2.7 2"/><path id="XMLID_1357_" class="st1" d="M119.1 36.6l-13.7 15.2"/><path id="XMLID_1356_" class="st1" d="M103.6 53.9l-2.3 2.5"/><path id="XMLID_1355_" class="st1" d="M126.9 42.3L116.7 60"/><path id="XMLID_1354_" class="st1" d="M115.3 62.4l-1.7 2.9"/><path id="XMLID_1353_" class="st1" d="M135.7 46.2l-6.3 19.4"/><path id="XMLID_1352_" class="st1" d="M128.5 68.3l-1 3.2"/><path id="XMLID_1351_" class="st1" d="M145.1 48.2L143 68.5"/><path id="XMLID_1350_" class="st1" d="M142.7 71.3l-.4 3.4"/></g><path id="XMLID_1287_" class="st1" d="M81.5 95.1h-2.9"/><g id="XMLID_2_"><path id="XMLID_11_" class="st0" d="M41.9 85v3.2h2.8"/><path id="XMLID_10_" class="st0" d="M39.7 85v3.2h-2.9"/><g id="XMLID_3_"><path id="XMLID_9_" class="st1" d="M31.1 73.3h19.4v11.8H31.1z"/><g id="XMLID_4_"><path id="XMLID_8_" class="st1" d="M34.4 75.2v7.9"/><path id="XMLID_7_" class="st1" d="M47.2 75.2v7.9"/><path id="XMLID_6_" class="st1" d="M38.6 75.2v7.9"/><path id="XMLID_5_" class="st1" d="M42.9 75.2v7.9"/></g></g></g></g></svg>