<svg id="Layer_1" data-name="Layer 1" xmlns="http://www.w3.org/2000/svg" width="1280" height="757.01" viewBox="0 0 1280 757.01"><title>clouds</title><path d="M1280,546a220.66,220.66,0,0,0-345.27,14.59,165.52,165.52,0,0,0-136.89-.05,201.93,201.93,0,0,0-300.44-38h-0.81a173.18,173.18,0,0,0-108.15,37.71,199.27,199.27,0,0,0-87.08-19.9c-2.8,0-5.57.07-8.34,0.19A188.87,188.87,0,0,0,0,550V757H1280V546Z" style="fill:#54a4db;opacity:0.06"/><g id="_Group_" data-name="&lt;Group&gt;" style="opacity:0.59"><rect id="_Rectangle_" data-name="&lt;Rectangle&gt;" x="259.14" y="80.52" width="65.14" height="65.14" transform="translate(5.48 239.4) rotate(-45)" style="fill:none;stroke:#fdf7cb;stroke-miterlimit:10;opacity:0.5700000000000001"/><rect id="_Rectangle_2" data-name="&lt;Rectangle&gt;" x="427.13" y="567.26" width="46.31" height="46.31" transform="translate(-285.6 491.33) rotate(-45)" style="fill:none;stroke:#fdf7cb;stroke-miterlimit:10;opacity:0.33"/><rect id="_Rectangle_3" data-name="&lt;Rectangle&gt;" x="224.42" y="328.38" width="24.57" height="24.57" transform="translate(-171.56 267.16) rotate(-45)" style="fill:none;stroke:#fdf7cb;stroke-miterlimit:10;opacity:0.31"/><rect id="_Rectangle_4" data-name="&lt;Rectangle&gt;" x="512.71" y="111.34" width="24.57" height="24.57" transform="translate(66.35 407.44) rotate(-45)" style="fill:none;stroke:#fdf7cb;stroke-miterlimit:10;opacity:0.24"/><rect id="_Rectangle_5" data-name="&lt;Rectangle&gt;" x="727.75" y="643.12" width="24.57" height="24.57" transform="translate(-246.69 715.25) rotate(-45)" style="fill:none;stroke:#fdf7cb;stroke-miterlimit:10;opacity:0.24"/><rect id="_Rectangle_6" data-name="&lt;Rectangle&gt;" x="405.12" y="35" width="53.56" height="53.56" transform="translate(82.82 323.49) rotate(-45)" style="fill:none;stroke:#fdf7cb;stroke-miterlimit:10;opacity:0.24"/><rect id="_Rectangle_7" data-name="&lt;Rectangle&gt;" x="980.94" y="142.57" width="24.57" height="24.57" transform="translate(181.41 747.67) rotate(-45)" style="fill:none;stroke:#fdf7cb;stroke-miterlimit:10;opacity:0.24"/><rect id="_Rectangle_8" data-name="&lt;Rectangle&gt;" x="750.17" y="39.76" width="93.08" height="93.08" transform="translate(1299.04 710.67) rotate(-135)" style="fill:none;stroke:#fdf7cb;stroke-miterlimit:10;opacity:0.78"/><rect id="_Rectangle_9" data-name="&lt;Rectangle&gt;" x="953.67" y="574.05" width="79.11" height="79.11" transform="translate(1261.66 1749.8) rotate(-135)" style="fill:none;stroke:#fdf7cb;stroke-miterlimit:10;opacity:0.49"/><rect id="_Rectangle_10" data-name="&lt;Rectangle&gt;" x="1022.87" y="272.1" width="79.11" height="79.11" transform="translate(1593.3 1283.27) rotate(-135)" style="fill:none;stroke:#fdf7cb;stroke-miterlimit:10;opacity:0.49"/><circle id="_Path_" data-name="&lt;Path&gt;" cx="661.86" cy="14.89" r="14.39" style="fill:none;stroke:#fdf7cb;stroke-miterlimit:10;opacity:0.68"/><circle id="_Path_2" data-name="&lt;Path&gt;" cx="260.04" cy="644.81" r="14.39" style="fill:none;stroke:#fdf7cb;stroke-miterlimit:10"/><circle id="_Path_3" data-name="&lt;Path&gt;" cx="1135.09" cy="490.94" r="33.93" style="fill:none;stroke:#fdf7cb;stroke-miterlimit:10;opacity:0.42"/><circle id="_Path_4" data-name="&lt;Path&gt;" cx="1109.16" cy="67.7" r="25.92" style="fill:none;stroke:#fdf7cb;stroke-miterlimit:10;opacity:0.53"/><circle id="_Path_5" data-name="&lt;Path&gt;" cx="137.43" cy="478.34" r="25.92" style="fill:none;stroke:#fdf7cb;stroke-miterlimit:10;opacity:0.53"/><circle id="_Path_6" data-name="&lt;Path&gt;" cx="853.57" cy="571.5" r="25.92" style="fill:none;stroke:#fdf7cb;stroke-miterlimit:10;opacity:0.53"/><circle id="_Path_7" data-name="&lt;Path&gt;" cx="151.82" cy="186.61" r="14.39" style="fill:none;stroke:#fdf7cb;stroke-miterlimit:10;opacity:0.8"/></g></svg>