<svg data-name="Layer 1" xmlns="http://www.w3.org/2000/svg" width="1280" height="757.01" viewBox="0 0 1280 757.01"><title>clouds</title><path d="M1280 546a220.66 220.66 0 0 0-345.27 14.59 165.52 165.52 0 0 0-136.89-.05 201.93 201.93 0 0 0-300.44-38h-.81a173.18 173.18 0 0 0-108.15 37.71 199.27 199.27 0 0 0-87.08-19.9c-2.8 0-5.57.07-8.34.19A188.87 188.87 0 0 0 0 550v207h1280V546z" fill="#54a4db" opacity=".06"/><g data-name="&lt;Group&gt;" opacity=".59" fill="none" stroke="#fdf7cb" stroke-miterlimit="10"><path data-name="&lt;Rectangle&gt;" opacity=".57" d="M245.656 113.097l46.06-46.06 46.062 46.06-46.06 46.06z"/><path data-name="&lt;Rectangle&gt;" opacity=".33" d="M417.54 590.417l32.746-32.746 32.746 32.747-32.746 32.746z"/><path data-name="&lt;Rectangle&gt;" opacity=".31" d="M219.33 340.67l17.372-17.373 17.374 17.374-17.374 17.374z"/><path data-name="&lt;Rectangle&gt;" opacity=".24" d="M507.62 123.63l17.374-17.375 17.373 17.374L524.994 141zM722.66 655.408l17.375-17.374 17.374 17.374-17.375 17.373zM394.032 61.776l37.872-37.873 37.873 37.873-37.873 37.872zM975.852 154.853l17.373-17.374 17.374 17.373-17.375 17.374z"/><path data-name="&lt;Rectangle&gt;" opacity=".78" d="M796.704 152.105l-65.817-65.817 65.817-65.818 65.818 65.818z"/><path data-name="&lt;Rectangle&gt;" opacity=".49" d="M993.228 669.54l-55.94-55.94 55.94-55.94 55.94 55.94zM1062.425 367.588l-55.94-55.94 55.94-55.94 55.94 55.94z"/><circle data-name="&lt;Path&gt;" cx="661.86" cy="14.89" r="14.39" opacity=".68"/><circle data-name="&lt;Path&gt;" cx="260.04" cy="644.81" r="14.39"/><circle data-name="&lt;Path&gt;" cx="1135.09" cy="490.94" r="33.93" opacity=".42"/><circle data-name="&lt;Path&gt;" cx="1109.16" cy="67.7" r="25.92" opacity=".53"/><circle data-name="&lt;Path&gt;" cx="137.43" cy="478.34" r="25.92" opacity=".53"/><circle data-name="&lt;Path&gt;" cx="853.57" cy="571.5" r="25.92" opacity=".53"/><circle data-name="&lt;Path&gt;" cx="151.82" cy="186.61" r="14.39" opacity=".8"/></g></svg>