<svg id="Layer_1" xmlns="http://www.w3.org/2000/svg" xmlns:xlink="http://www.w3.org/1999/xlink" viewBox="0 0 528.5 324.8"><style>.st0{clip-path:url(#XMLID_197_)}.st1{fill:none;stroke:url(#XMLID_198_);stroke-miterlimit:10}.st2{stroke:url(#XMLID_199_)}.st2,.st3{fill:none;stroke-miterlimit:10}.st3{stroke:url(#XMLID_200_)}.st4{stroke:url(#XMLID_201_)}.st4,.st5{fill:none;stroke-miterlimit:10}.st5{stroke:url(#XMLID_202_)}.st6{stroke:url(#XMLID_203_)}.st6,.st7{fill:none;stroke-miterlimit:10}.st7{stroke:url(#XMLID_204_)}.st8{stroke:url(#XMLID_205_)}.st8,.st9{fill:none;stroke-miterlimit:10}.st9{stroke:url(#XMLID_206_)}.st10{stroke:url(#XMLID_207_)}.st10,.st11{fill:none;stroke-miterlimit:10}.st11{stroke:url(#XMLID_208_)}.st12{stroke:url(#XMLID_209_)}.st12,.st13{fill:none;stroke-miterlimit:10}.st13{stroke:url(#XMLID_210_)}.st14{stroke:url(#XMLID_211_)}.st14,.st15{fill:none;stroke-miterlimit:10}.st15{stroke:url(#XMLID_212_)}.st16{stroke:url(#XMLID_213_)}.st16,.st17{fill:none;stroke-miterlimit:10}.st17{stroke:url(#XMLID_214_)}.st18{stroke:url(#XMLID_215_)}.st18,.st19{fill:none;stroke-miterlimit:10}.st19{stroke:url(#XMLID_216_)}.st20{stroke:url(#XMLID_217_)}.st20,.st21{fill:none;stroke-miterlimit:10}.st21{stroke:url(#XMLID_218_)}.st22{stroke:url(#XMLID_219_)}.st22,.st23{fill:none;stroke-miterlimit:10}.st23{stroke:url(#XMLID_220_)}.st24{stroke:url(#XMLID_221_)}.st24,.st25{fill:none;stroke-miterlimit:10}.st25{stroke:url(#XMLID_222_)}.st26{stroke:url(#XMLID_223_)}.st26,.st27{fill:none;stroke-miterlimit:10}.st27{stroke:url(#XMLID_224_)}.st28{stroke:url(#XMLID_225_)}.st28,.st29{fill:none;stroke-miterlimit:10}.st29{stroke:url(#XMLID_226_)}.st30{stroke:url(#XMLID_227_)}.st30,.st31{fill:none;stroke-miterlimit:10}.st31{stroke:url(#XMLID_228_)}.st32{stroke:url(#XMLID_229_)}.st32,.st33{fill:none;stroke-miterlimit:10}.st33{stroke:url(#XMLID_230_)}.st34{stroke:url(#XMLID_231_)}.st34,.st35{fill:none;stroke-miterlimit:10}.st35{stroke:url(#XMLID_232_)}.st36{stroke:url(#XMLID_233_)}.st36,.st37{fill:none;stroke-miterlimit:10}.st37{stroke:url(#XMLID_234_)}.st38{stroke:url(#XMLID_235_)}.st38,.st39{fill:none;stroke-miterlimit:10}.st39{stroke:url(#XMLID_236_)}.st40{stroke:url(#XMLID_237_)}.st40,.st41{fill:none;stroke-miterlimit:10}.st41{stroke:url(#XMLID_238_)}.st42{stroke:url(#XMLID_239_)}.st42,.st43{fill:none;stroke-miterlimit:10}.st43{stroke:url(#XMLID_240_)}.st44{stroke:url(#XMLID_241_)}.st44,.st45{fill:none;stroke-miterlimit:10}.st45{stroke:url(#XMLID_242_)}.st46{stroke:url(#XMLID_243_)}.st46,.st47{fill:none;stroke-miterlimit:10}.st47{stroke:url(#XMLID_244_)}.st48{stroke:url(#XMLID_245_)}.st48,.st49{fill:none;stroke-miterlimit:10}.st49{stroke:url(#XMLID_246_)}.st50{stroke:url(#XMLID_247_)}.st50,.st51{fill:none;stroke-miterlimit:10}.st51{stroke:url(#XMLID_248_)}.st52{stroke:url(#XMLID_249_)}.st52,.st53{fill:none;stroke-miterlimit:10}.st53{stroke:url(#XMLID_250_)}.st54{stroke:url(#XMLID_251_)}.st54,.st55{fill:none;stroke-miterlimit:10}.st55{stroke:url(#XMLID_252_)}.st56{stroke:url(#XMLID_253_)}.st56,.st57{fill:none;stroke-miterlimit:10}.st57{stroke:url(#XMLID_254_)}.st58{stroke:url(#XMLID_255_)}.st58,.st59{fill:none;stroke-miterlimit:10}.st59{stroke:url(#XMLID_256_)}.st60{stroke:url(#XMLID_257_)}.st60,.st61{fill:none;stroke-miterlimit:10}.st61{stroke:url(#XMLID_258_)}.st62{stroke:url(#XMLID_259_)}.st62,.st63{fill:none;stroke-miterlimit:10}.st63{stroke:url(#XMLID_260_)}.st64{stroke:url(#XMLID_261_)}.st64,.st65{fill:none;stroke-miterlimit:10}.st65{stroke:url(#XMLID_262_)}.st66{stroke:url(#XMLID_263_)}.st66,.st67{fill:none;stroke-miterlimit:10}.st67{stroke:url(#XMLID_264_)}.st68{stroke:url(#XMLID_265_)}.st68,.st69{fill:none;stroke-miterlimit:10}.st69{stroke:url(#XMLID_266_)}.st70{stroke:url(#XMLID_267_)}.st70,.st71{fill:none;stroke-miterlimit:10}.st71{stroke:url(#XMLID_268_)}.st72{stroke:url(#XMLID_269_)}.st72,.st73{fill:none;stroke-miterlimit:10}.st73{stroke:url(#XMLID_270_)}.st74{stroke:url(#XMLID_271_)}.st74,.st75{fill:none;stroke-miterlimit:10}.st75{stroke:url(#XMLID_272_)}.st76{stroke:url(#XMLID_273_)}.st76,.st77{fill:none;stroke-miterlimit:10}.st77{stroke:url(#XMLID_274_)}.st78{stroke:url(#XMLID_275_)}.st78,.st79{fill:none;stroke-miterlimit:10}.st79{stroke:url(#XMLID_276_)}.st80{stroke:url(#XMLID_277_)}.st80,.st81{fill:none;stroke-miterlimit:10}.st81{stroke:url(#XMLID_278_)}.st82{stroke:url(#XMLID_279_)}.st82,.st83{fill:none;stroke-miterlimit:10}.st83{stroke:url(#XMLID_280_)}.st84{stroke:url(#XMLID_281_)}.st84,.st85{fill:none;stroke-miterlimit:10}.st85{stroke:url(#XMLID_282_)}.st86{stroke:url(#XMLID_283_)}.st86,.st87{fill:none;stroke-miterlimit:10}.st87{stroke:url(#XMLID_284_)}.st88{stroke:url(#XMLID_285_)}.st88,.st89{fill:none;stroke-miterlimit:10}.st89{stroke:url(#XMLID_286_)}.st90{stroke:url(#XMLID_287_)}.st90,.st91{fill:none;stroke-miterlimit:10}.st91{stroke:url(#XMLID_288_)}.st92{stroke:url(#XMLID_289_)}.st92,.st93{fill:none;stroke-miterlimit:10}.st93{stroke:url(#XMLID_290_)}.st94{stroke:url(#XMLID_291_)}.st94,.st95{fill:none;stroke-miterlimit:10}.st95{stroke:url(#XMLID_292_)}.st96{stroke:url(#XMLID_293_)}.st96,.st97{fill:none;stroke-miterlimit:10}.st97{stroke:url(#XMLID_294_)}.st98{stroke:url(#XMLID_295_)}.st98,.st99{fill:none;stroke-miterlimit:10}.st99{stroke:url(#XMLID_296_)}.st100{stroke:url(#XMLID_297_)}.st100,.st101{fill:none;stroke-miterlimit:10}.st101{stroke:url(#XMLID_298_)}.st102{stroke:url(#XMLID_299_)}.st102,.st103{fill:none;stroke-miterlimit:10}.st103{stroke:url(#XMLID_300_)}.st104{stroke:url(#XMLID_301_)}.st104,.st105{fill:none;stroke-miterlimit:10}.st105{stroke:url(#XMLID_302_)}.st106{stroke:url(#XMLID_303_)}.st106,.st107{fill:none;stroke-miterlimit:10}.st107{stroke:url(#XMLID_304_)}.st108{stroke:url(#XMLID_305_)}.st108,.st109{fill:none;stroke-miterlimit:10}.st109{stroke:url(#XMLID_306_)}.st110{stroke:url(#XMLID_307_)}.st110,.st111{fill:none;stroke-miterlimit:10}.st111{stroke:url(#XMLID_308_)}.st112{stroke:url(#XMLID_309_)}.st112,.st113{fill:none;stroke-miterlimit:10}.st113{stroke:url(#XMLID_310_)}.st114{stroke:url(#XMLID_311_)}.st114,.st115{fill:none;stroke-miterlimit:10}.st115{stroke:url(#XMLID_312_)}</style><g id="XMLID_940_"><defs><path id="XMLID_941_" d="M202.8 28.5l-17.9-1.6-17.1-2.1-17.1-2.4-18.9-3.1-10.8-2-18.7-4-3-.5-5.7-.8-8.9-1.9-13.2-3.2-11.7-3.3-5-1.1L49.1.9 46.6 0l-.6.5-.2.5 1.4 2.8.7 1.5-1 2.1v1.3l.4.8-.5 1 .3 1.9.6.8-.2.8-.8.1-.4-1.1-.7-1.4-1-.8.2-1.2 1.3-.3-.2-1-.2-.7-1.2.8-.8.7v1.4l-1.3.1-2-.6-1.7-1-1.8-.4-2.6-1.2-1.9-1.1-1.6-1.5L29.3 3l-1.2-.3-1.3 5.5 1 1.9v4.6l-.4 1.7.8 4.2 1.6 1.6-2.5.4-.1 2.2 1.5.7-.9 2.4-1.6.2-.2 1.5 1.3 1.9 2.1-.7 1.3.3-1.4-.3L26 32l-1.3 3.8-1.9 5.9-1.9 3.8-2.9 8.1-3.8 7.9-4.7 7.4-1.1 1.7-.5 5 .2 7.1.2-.3-.9 2.8-.1 4.3-3 6.9-1.8 1.5-.2.7-1 .5-.8 2.5-.5 1.7 1.6 2.5.9 2.5.7 2.1-.2 3.7-1 1.8-.4 3.4-.6 2.1 1 2.3 1.6 2.6 1.3 2.8.8 2.4-.2 1.9-.2.3v1.2l3.3 3.7-.2 1.4-.4 1.3-.4 1.1.1 4.8 1.2 2.2 1.1 1.5 1.6.3.6 1.6-.7 2.1-1.2.9h-.6l-.5 2.3.3 1.7 1.9 2.5.9 3.1.8 2.7.9 1.9 2 3.4.8 1.5.3 1.7.9.6v1.4l-.5 1.1-1 4.2-.3 1.1 1.4 1.6 2.5.3 2.6 1 2.3 1.2h1.7l1.7 1.8 1.5 2.8.7 1.3 2.3 1.2 2.8.5.8 1.2.4 1.9-.8.4.2.6 1.9.5 1.6.1 1.8-1 2.3 2.5.5 1.3 1.5 2.5.2 1.9v5.5l.3 1 5.9.8 11.5 1.6 8.1.8 2.3-.3.4-.6-.4.6-2.2.5-1.5 1.3-.2.8.3.6 11 6.2 7.1 4.4 8.6 5 9.8 5.9 7.2 1.4 14.5 1.6 9 1.2.8-5.9 17.1 1.7-.7-2.7h.1l.4 2.7 1.1.3 1.5 1.7.8 2.5 2.7 1.3.8 1.9 4.2 4.6.8.9 2.9 1.2.7 1.2.9.6.3 1.6 1.9 3.8v4.7l1.3 2.7 4.3 4.5 3 1.2 1 1.1v.4l2.3 1.3 1.1.4 1 .7 1.5.6 1.4-1.4 2.5-3.6.6-2.2 1.3-1.9 2.1-.8 2.6-1 1.8 1.3 4.3.4 4 .7 1.5 1.2v.7l1.5 1.8 3.5 3.1.1.8 1 1.1.5 2.5 3.1 7.2-.1 1.1 2.5 1.5 2.1 3.9 2 2.5 1.9.8.9 1.3-.8 2.5.4.6.8.4-.2 2-.4.4.4 1.3 1.9 1.1.8 3.8 1.2 2.3 4.4 2 3 .7 2.5 1.8 1.9.4.8-.3 3.2.7 3.3 2.3 1.8-1.1.6-.8-1-1.6-.6-3.6-1-4.1-.5-1.4.5-2.6.7-2.3.8-2.6.8-3.2-1.3-1.1.6-1.1 2.4-.2 2.3-3.2 2-.4 3.4-2.1 1-.8 3.7-2 3.3-1.4 3.1-1.9 1.6-1.2 3.3-3.1.8-.5 1.2-.8 1.5-1.1.6-1.1 5.8-2.6 3.3-.9 2.7-.9 7.1.1 6 2.1 3.8.7 2.2-.8 1.9.7 1.9.6.5-1.2-1.9-.7-1.5.3-1.6-.9s.1-.8.5-.8c.4-.1 1.8-.6 1.8-.6l1 .8 1-.6 1.9.4.8 1.4.2 1.3 2.6.2 1 1-.5.9-.8.5.9.9 4.9 2.1 2.1-.8.6-1.4 1.5-.4 1-.8.8.6.5 1.7-1.3.5.4.4 2-.8 1.3-2 .5-.3-1.2-.2.5-.9-.1-.8 1.2-.3.7-.8.4.5s-.1 1.8.4 1.8 2.5.4 2.5.4l2.4 1.1.6.8h1.7l.7.6 1.3-1.8v-.8h-.8l-2-1.6-3.4-.5-1.9-1.3.7-1.6 1.3.2.1-.4-1-.6v-.3h1.9l1-1.8-.8-1.1-.2-1.6-.8.1-1.1 1.2-.4 1.5-1.8-.4-.6-1 1-1.1 1.1-2-.6-1.4-.7-2.3-.6-.6.7.6.7 2.3.7 1.5.6-.5 1.5-2.5 1 .5 4-1.1 1.2.2.8.5h3v-.1h1.6l.4.1.8-1.6.8-2.5 1.3.4 1.8 3.5v.6l-1.6 1.1 1.6.2 3.2-1.5 1.7-.3 3.5-1.2 3.5-.3 2.5-.4 4.4 1 4.7 2.3.9.8 1.7.7.9 1.1.2 1.6 1.9-.8h2.3l2.1-1.1 2.2-2.1 1.8.1.3-.7-.5-.6.1-1.1 2.4-.5h1.5l1.7.8 2.5.8 1.4 2.2 1.6.6.7 2 2 .9.9 1.5 1.1.4 3 .8.8 1.8 1.8 2.2v5.6l-.8 2.7.2 1.6.8 2.8 1 2.4.5-.3.8-2.6-1.5-.6-.2-.4.9-.4 2.6.6.1.9-1.9 3.2-1.2 1.4 2.1 2.2 1.5 1.8 1.7 3.1 1.7 2.3 1.2 2.9 1 .2.9-1.2 1 .7 1.5 2.4.4 2.1 1.8 2.5.5-.8 2.3.2 2.1 1.3 2 3 .5 2 .2 1.7.7.6.8.3 1.4-.6.8-.9 2.3-.1 1.8-.8 1.6-1.9-.3-1.1-.2-1.4.4-1.1-.2-1.1 1.4-.8.2-2-.4-1-.3-7-.8-4.4-2.6-4.8-2.1-3.4-1.5-3.1-1.7-1.7-1.7-4.3.5-.8.7-.8-.9-1.7-2.4-2.2-2.8-3.2-2.2-3.7-3.1-5.5-2.2-5.7-1.3-4.2-.4-3.7 1.3-5.9.8-2.5-.3-1.5 1.9-3.6-.3-.8-1.1.4-1.5-.8v-.1l1.5.8 1-.6 1.2-.8 2.9-3.2-.6-1.9 1.7-.1 2.1-2 .9-.5 1.3-2 1.6-1.6 1.2-2.1 1.4-.4.7-1.6.9-.5.3-3.7 1.5-3.6 3.2-3.2 3.1-.8 2.7-.3.3-1.4 1.1-3.8 2-2.7 3.8-3.1 3-1.4 1.6-.4.7.3h.8l1.8-2.8 1.1-2.1-.8.3-1.3 1.3-.4-.9h-2.5l1.1-3.7-.5-.8h-1.1v-.6l-.2-.8.9.8.8.1 1.4.2 2.2-.9.8-1.7.4-1.2 1.5-.8.2-2.5-.5-.4 1.4-.1-.4-1.3-1.4-1.4-2.1-3.8-1.2-2.9-2.1-3.5-3.4 1-.9-.9 1.5-.8-.3-1.5-1-1-.1-.8-1.3-.9-.1-.9 1.6.1.1-.8-.7-.5.3-1.1-.8-.6.3-2.7-.5-.7-1.9-.2-.4-1.8-1.1-.2-1.8-.6h-.8.8l1.8.6 1.2.2.6-1.2-.8-1.2v-1l-1.4-1.2-1.2-3.2.8-3.1-.1-1.2-.8-.8s.8-.9.8-1.3.3-1.2.3-1.2l1.1-.8 1.1-.9.3.6-.8.9-.8 2.2.2.7 1 .2.3 3.2-1.2.6.2 2.1.3-.1.7-1.1.9 1-.9.8-.2 2 1.5 2 2.3.3.9-.5 1.9 2.4.8.3.1 1.1-.4 1.8-.9 2.4-.3 3.2.9 2.7 1.3-1.1 1.1-2.9-.3-2 .2-2.7 1.7-2.2.4-1.9-2.6 1 2.7-1.1 1.2-2.3-.3-2.9-1.3-4.3-.6.3-2.1-1.4-1-2.7-1.1-2.1-1.8-1.6 1.9 1.7 2.8 1.3 2.4.4.1.8-.5.6.2 1.6h.5l1.2-1.4.5-2.8 1.6-2.4 1.8-3.8.7-3.2-.4-.7-.1-5.5-.9-2-.7.5-1.6.2-.3-.3.7-.6 1.2-1.1v-.6.1l.7.3 2.4-.7 3.4-1.1 1.5-.6 4.2-3.1 2.3-1.7 2-2.1-2.5-.9-.8.8-1.7 1.6-4.6 2.3-1.3-.1-.9-.4-.7.4-1.3 1.5-.8.8-.8.2-.2-.8 1.1-1-.5-1-1.1-1.2 1.1 1.1 2.5-2.3 2.1-1.9 1.1-1.2.5.4 1.6-.8 3-.7 4.5-1.9 1.7-.6 1.4-1.1.7-1 .8.1 1.8-.9-1.6-2.6-1.9-2.5-1.3-1.1 1.2 1.1 2 2.5 1.6 2.6 1.2-.6-.3-1.3.5-.8 1.7-.8.5 1.8-.3 1-1.4.8v.6l1.1-.8 2.3-2.6 2.3-1.1 2.5-.8-.2-1.4-.6-1.7-1.1-1.4-1-.5-1.2.1-.3.3.6.8.8-.5 1.2.9.5 1.6-1 1-1.3.6-2.1-.3-2.3-3.5-1.3-1.5h-1l-.7.5-1.1-1.5.2-.8 1.4-3-1.7-2.6-.1.1.5-.6.6-1.7h.1l.7-3.7.1-2.5.8-.8-.6-1.9 1.8-2.1.9.8.8-.3 3.1-1.8.2-1.7 1.7-.3.9-1.5-.1-.9-.2-1.8.5-.8-.2-.7-.8-.8 1.2-.8 1 1.9.8-.2.2.8v.1l1.1.1.3-1.6.3-.4-.9-.8.6-.8 1.4-.8.6-.8 1-.1s.2 1.2.6 1.2h.8l2.8-3.2 2-1.8 1.1-.4 1.2-2.7v-1.1l-1.3-2.2-1.1-1.2-1.6.1.3.7-.1.3h-.5l-1.7-1.3-.1-2.8-.5-1.1h-3.5l-5.3-17.5-1.4-.8-3.5-1.4-.8-.1-1 1-2.4 1.7v.6l-.5.5-1.6-.4-.8-1.3v-.7l-.8-.1h-.8l-1.2 2.5-1.7 5.2-1 2.8.1 2.8.1.8-.5 1.6-.5.6v3.5l1.1 1.4-.8 2.4-1.5 2.7-.8 2.6v1.5l-.9-.2-.8.1h-.5l-.4.9-.4-.3-.6-.6-.8 1.1v3l-15.2 3.9-4.4 1.2-2.6.8-1.9-.1-3.2.8-1.8.7-1.4 1.1L457 63l-1.6 2.2-1.7 2.6-.8 1.7-.4.5-3.4 3.2.1 1.5.5.7 1 .5h1v.8L451 78l.2.8.8 1.2-.1 1.3-1.1.7h-1.2l-.9 1.1-1 1.9-1.2 1-3 .3-1.5.7-1.2.8-.9-.1-1.1-.8-3.7.1-1.9.3-2.4.8-2.5.8-1.7 1 1.1 3.6 1 .1.8 1.8.1.6-.7.6-1.2 1.6-.3.9-1.1 1-1 .7-.6.9-.8.7-.8.7-3.1 2.9-.8.3-2.5 1.8 1.7 11.2 1.4 5.4-.7.8-.5.8.1-.5 1.1-1-1.3-5.3-1.7-11.3-3.6 2.4-2.3 1.3-2 2.2-2.4 2.3-1.9.5-1.7.3-3.2 1.5-1.2.1-2-1.8-3 .4-1.5-.8-1.4-.8-2.9.4.1-.8 1.2-2.2 1.2-1-.2-3.2.9-.9.6-.2.1-2.1.9-1.8.6.4.1.4.5.1 1.1-.6-.2-5.6-1.9-4.8-1.3-5.3-1.4-1.9-1.5-1-.9.7-2.3 1-1.1 2.9-1.6 2.2-.7.4-.8-.4s-1.5-.8-1.4-1.2c.1-.4.3-2.9.3-2.9l2-.8.5-2 .4-1.5 1.4-.9-.2-5.9-.9-1.3-.8-.5-.5-1.2.5-.5.9.2.1-.9-1.4-1.3-.8-1.5h-1.5l-2.6-.8-3.2-2h-1.6l-.4.4-.6-.3-1.8-1.3-1.7 1-1.7 1.3.2 2.1.6.2 1.2.3.3.5-1.5.5-1.5.2-.8 1-.2 1.2.2.9.2 3.2-2.1 1.2-.4-.1v-2.5l.8-1.4.4-1.4-.5-.5-1.1.5-.6 2.5-1.6.7-1 1.1-.1.6.4.5-.4 1.5-1.3.3v.7l.5 1.4-.7 3.6-.9 2.4.4 2.7.3.7-.5 1.4-.2.5-.2 1.6 2.1 3.5 1.7 3.8.8 2.8-.5 2.7-.6 3.5-1.4 3-.2 1.6-1.9 1.8-1.6.9-1.2 1.1-.7.2-.8-.6-1.8-.5.6 6.8.8 9 .8 9.3.3 4.1-.5 3.2.2 1.9 1 1.6.3 3.4-1.4 2.3v-.1l1.3-2.3-.2-3.1-1.2-2.1-.1-2 .4-3.1-.5-4.2-.6-9.2-.8-8.8-.5-6.8-.2-.5-.5-1.5-.8-2.2-.9-1-.8-1.5-.1-3.2-1.1.1 1.1-.1v-1.8l-.7-2.6-.4-3.6-.7-1.4.6-1.8.5-1.7.8-1.5-.4-2-.4-2.1.3-1 1.1-1.4.1-1.6-.5-.8.4-1.5-.3-2.4 1.6-3.3 1.7-4 .1-1.3-.2-.6-.5.3-2.5 3.7-1.6 2.4-1.1 1-.5 1.3-1.1.5-.7 1.1-.8-.2-.1-1 .8-1.4 1.2-2.7 1-.9.6-1.3 1.9-4.1.6-2.4 1.1-2.5.5-.1.7.9h.4l2.6-1.4.8.9.3.1.8-.7.7-1.8 1.4-.5 4.1-.4 1.1-1.5 3-.1 3.4.8h1l1.9-.8 1.3.1 1.2-.4 2.2.3.5.2.8-.2-.8-.6-.8-.4-1.9-1.8v-4.1l-.8-.3-.7.7-3.6.9-1.1.3-1.7-.5-.3-.2V54l-.8-.1-1.5.8-2.6 1.1-3.9.2-2 .7-2.4 2.1-.9.6h-.7l-.8.5-.9-.3-.9-.8-.8.6-2.3.1-1.6-1.6-.8-1.8-.8-.7-1.9-.6h-1.3l-.8-.8-2.1 1.7-.6.7-.5-.3.2-1.5 1.4-1.9.3-1.4 1.3-.5.8-1.8 2.2-.6.2-.6-.7-.7-2.7.3-2.5 1.4-1.3 1.3-.8 1-1 .5-1.1 1.7-.1.8-2.5 1.2-1.4 1.1-3.5.6-.4.4v.6l-2.1 1.3-1.6.5-.4.3 1.4 2-1.4-1.9-.4.3-.7-.1-.4-.7-.8.2-.7.1-1 .6-.6-.4.4-1.1 1.1-1.8.7-.7-1.1-.8-1.2.5-1.7 1.1-4.3 1.9-1.7.4-1.7-.3-.6-.5.2-.2 2.5-1.6.8-.1 2.6-2.9 1-.5 1.3-2.3 1.4-2.1 1.8-1.5 2.8-1.2 5.4-2.4L326 43l.4-1.3-2.6.2-.4.6h-.4l-1-1.8-5.2.2-.6.5h-.6l-.3-.8-.5-1-1.5.3-1.9 1.9-.9.5h-1.8l-1.5-.6v-1.2l-.8-.1-.3.3-1.5-.8-.3-1.7-.8.3-.3.6-1.4-.3-3.1-1.4-2.3-1.5h-1.7l-.8-.6-1.3.4-.7.7-.2.8H289V36l-3.7-.2-.2-.8h-2.8l-.9-.9-.8-3.6-.5-3.2-1.1-.5-1.3-.3-.4.1-.2 4.8h-17.6l1.1 3.2-.4 2.3v6l.9 2.9.7 1.3-.6-1.1-1-3v-6.1l.4-2.2-1.1-3.2-16.7-.3-10.9-.4-15.5-.8-13.6-1.5"/></defs><clipPath id="XMLID_197_"><use xlink:href="#XMLID_941_" overflow="visible"/></clipPath><g id="XMLID_942_" class="st0"><linearGradient id="XMLID_198_" gradientUnits="userSpaceOnUse" x1="-355.93" y1="162.405" x2="16.407" y2="162.405"><stop offset="0" stop-color="#e29baa"/><stop offset="1" stop-color="#7c5e75"/></linearGradient><path id="XMLID_1225_" class="st1" d="M16.1-23.4l-371.7 371.6"/><linearGradient id="XMLID_199_" gradientUnits="userSpaceOnUse" x1="-348.63" y1="162.405" x2="23.707" y2="162.405"><stop offset="0" stop-color="#e29baa"/><stop offset="1" stop-color="#7c5e75"/></linearGradient><path id="XMLID_1224_" class="st2" d="M23.4-23.4l-371.7 371.6"/><linearGradient id="XMLID_200_" gradientUnits="userSpaceOnUse" x1="-341.331" y1="162.405" x2="31.006" y2="162.405"><stop offset="0" stop-color="#e29baa"/><stop offset="1" stop-color="#7c5e75"/></linearGradient><path id="XMLID_1223_" class="st3" d="M30.7-23.4L-341 348.2"/><linearGradient id="XMLID_201_" gradientUnits="userSpaceOnUse" x1="-334.031" y1="162.405" x2="38.306" y2="162.405"><stop offset="0" stop-color="#e29baa"/><stop offset="1" stop-color="#7c5e75"/></linearGradient><path id="XMLID_1222_" class="st4" d="M38-23.4l-371.7 371.6"/><linearGradient id="XMLID_202_" gradientUnits="userSpaceOnUse" x1="-326.732" y1="162.405" x2="45.605" y2="162.405"><stop offset="0" stop-color="#e29baa"/><stop offset="1" stop-color="#7c5e75"/></linearGradient><path id="XMLID_1221_" class="st5" d="M45.3-23.4l-371.7 371.6"/><linearGradient id="XMLID_203_" gradientUnits="userSpaceOnUse" x1="-319.432" y1="162.405" x2="52.905" y2="162.405"><stop offset="0" stop-color="#e29baa"/><stop offset="1" stop-color="#7c5e75"/></linearGradient><path id="XMLID_1220_" class="st6" d="M52.6-23.4l-371.7 371.6"/><linearGradient id="XMLID_204_" gradientUnits="userSpaceOnUse" x1="-312.133" y1="162.405" x2="60.205" y2="162.405"><stop offset="0" stop-color="#e29baa"/><stop offset="1" stop-color="#7c5e75"/></linearGradient><path id="XMLID_1219_" class="st7" d="M59.9-23.4l-371.7 371.6"/><linearGradient id="XMLID_205_" gradientUnits="userSpaceOnUse" x1="-304.833" y1="162.405" x2="67.504" y2="162.405"><stop offset="0" stop-color="#e29baa"/><stop offset="1" stop-color="#7c5e75"/></linearGradient><path id="XMLID_1218_" class="st8" d="M67.2-23.4l-371.7 371.6"/><linearGradient id="XMLID_206_" gradientUnits="userSpaceOnUse" x1="-297.534" y1="162.405" x2="74.803" y2="162.405"><stop offset="0" stop-color="#e29baa"/><stop offset="1" stop-color="#7c5e75"/></linearGradient><path id="XMLID_1200_" class="st9" d="M74.4-23.4l-371.6 371.6"/><linearGradient id="XMLID_207_" gradientUnits="userSpaceOnUse" x1="-290.234" y1="162.405" x2="82.103" y2="162.405"><stop offset="0" stop-color="#e29baa"/><stop offset="1" stop-color="#7c5e75"/></linearGradient><path id="XMLID_1199_" class="st10" d="M81.7-23.4l-371.6 371.6"/><linearGradient id="XMLID_208_" gradientUnits="userSpaceOnUse" x1="-282.935" y1="162.405" x2="89.403" y2="162.405"><stop offset="0" stop-color="#e29baa"/><stop offset="1" stop-color="#7c5e75"/></linearGradient><path id="XMLID_1198_" class="st11" d="M89-23.4l-371.6 371.6"/><linearGradient id="XMLID_209_" gradientUnits="userSpaceOnUse" x1="-275.635" y1="162.405" x2="96.702" y2="162.405"><stop offset="0" stop-color="#e29baa"/><stop offset="1" stop-color="#7c5e75"/></linearGradient><path id="XMLID_1197_" class="st12" d="M96.3-23.4l-371.6 371.6"/><linearGradient id="XMLID_210_" gradientUnits="userSpaceOnUse" x1="-268.335" y1="162.405" x2="104.002" y2="162.405"><stop offset="0" stop-color="#e29baa"/><stop offset="1" stop-color="#7c5e75"/></linearGradient><path id="XMLID_1196_" class="st13" d="M103.6-23.4L-268 348.2"/><linearGradient id="XMLID_211_" gradientUnits="userSpaceOnUse" x1="-261.036" y1="162.405" x2="111.301" y2="162.405"><stop offset="0" stop-color="#e29baa"/><stop offset="1" stop-color="#7c5e75"/></linearGradient><path id="XMLID_1194_" class="st14" d="M110.9-23.4l-371.6 371.6"/><linearGradient id="XMLID_212_" gradientUnits="userSpaceOnUse" x1="-253.736" y1="162.405" x2="118.601" y2="162.405"><stop offset="0" stop-color="#e29baa"/><stop offset="1" stop-color="#7c5e75"/></linearGradient><path id="XMLID_1193_" class="st15" d="M118.2-23.4l-371.6 371.6"/><linearGradient id="XMLID_213_" gradientUnits="userSpaceOnUse" x1="-246.437" y1="162.405" x2="125.9" y2="162.405"><stop offset="0" stop-color="#e29baa"/><stop offset="1" stop-color="#7c5e75"/></linearGradient><path id="XMLID_1192_" class="st16" d="M125.5-23.4l-371.6 371.6"/><linearGradient id="XMLID_214_" gradientUnits="userSpaceOnUse" x1="-239.137" y1="162.405" x2="133.2" y2="162.405"><stop offset="0" stop-color="#e29baa"/><stop offset="1" stop-color="#7c5e75"/></linearGradient><path id="XMLID_1191_" class="st17" d="M132.8-23.4l-371.6 371.6"/><linearGradient id="XMLID_215_" gradientUnits="userSpaceOnUse" x1="-231.838" y1="162.405" x2="140.499" y2="162.405"><stop offset="0" stop-color="#e29baa"/><stop offset="1" stop-color="#7c5e75"/></linearGradient><path id="XMLID_1190_" class="st18" d="M140.1-23.4l-371.6 371.6"/><linearGradient id="XMLID_216_" gradientUnits="userSpaceOnUse" x1="-224.538" y1="162.405" x2="147.799" y2="162.405"><stop offset="0" stop-color="#e29baa"/><stop offset="1" stop-color="#7c5e75"/></linearGradient><path id="XMLID_1188_" class="st19" d="M147.4-23.4l-371.6 371.6"/><linearGradient id="XMLID_217_" gradientUnits="userSpaceOnUse" x1="-217.239" y1="162.405" x2="155.098" y2="162.405"><stop offset="0" stop-color="#e29baa"/><stop offset="1" stop-color="#7c5e75"/></linearGradient><path id="XMLID_1187_" class="st20" d="M154.7-23.4l-371.6 371.6"/><linearGradient id="XMLID_218_" gradientUnits="userSpaceOnUse" x1="-209.939" y1="162.405" x2="162.398" y2="162.405"><stop offset="0" stop-color="#e29baa"/><stop offset="1" stop-color="#7c5e75"/></linearGradient><path id="XMLID_1186_" class="st21" d="M162-23.4l-371.6 371.6"/><linearGradient id="XMLID_219_" gradientUnits="userSpaceOnUse" x1="-202.64" y1="162.405" x2="169.697" y2="162.405"><stop offset="0" stop-color="#e29baa"/><stop offset="1" stop-color="#7c5e75"/></linearGradient><path id="XMLID_1185_" class="st22" d="M169.3-23.4l-371.6 371.6"/><linearGradient id="XMLID_220_" gradientUnits="userSpaceOnUse" x1="-195.34" y1="162.405" x2="176.997" y2="162.405"><stop offset="0" stop-color="#e29baa"/><stop offset="1" stop-color="#7c5e75"/></linearGradient><path id="XMLID_1184_" class="st23" d="M176.6-23.4L-195 348.2"/><linearGradient id="XMLID_221_" gradientUnits="userSpaceOnUse" x1="-188.041" y1="162.405" x2="184.296" y2="162.405"><stop offset="0" stop-color="#e29baa"/><stop offset="1" stop-color="#7c5e75"/></linearGradient><path id="XMLID_1183_" class="st24" d="M183.9-23.4l-371.6 371.6"/><linearGradient id="XMLID_222_" gradientUnits="userSpaceOnUse" x1="-180.741" y1="162.405" x2="191.596" y2="162.405"><stop offset="0" stop-color="#e29baa"/><stop offset="1" stop-color="#7c5e75"/></linearGradient><path id="XMLID_1182_" class="st25" d="M191.2-23.4l-371.6 371.6"/><linearGradient id="XMLID_223_" gradientUnits="userSpaceOnUse" x1="-173.442" y1="162.405" x2="198.895" y2="162.405"><stop offset="0" stop-color="#e29baa"/><stop offset="1" stop-color="#7c5e75"/></linearGradient><path id="XMLID_1178_" class="st26" d="M198.5-23.4l-371.6 371.6"/><linearGradient id="XMLID_224_" gradientUnits="userSpaceOnUse" x1="-166.142" y1="162.405" x2="206.195" y2="162.405"><stop offset="0" stop-color="#e29baa"/><stop offset="1" stop-color="#7c5e75"/></linearGradient><path id="XMLID_1177_" class="st27" d="M205.8-23.4l-371.6 371.6"/><linearGradient id="XMLID_225_" gradientUnits="userSpaceOnUse" x1="-158.843" y1="162.405" x2="213.494" y2="162.405"><stop offset="0" stop-color="#e29baa"/><stop offset="1" stop-color="#7c5e75"/></linearGradient><path id="XMLID_1176_" class="st28" d="M213.1-23.4l-371.6 371.6"/><linearGradient id="XMLID_226_" gradientUnits="userSpaceOnUse" x1="-151.543" y1="162.405" x2="220.794" y2="162.405"><stop offset="0" stop-color="#e29baa"/><stop offset="1" stop-color="#7c5e75"/></linearGradient><path id="XMLID_1174_" class="st29" d="M220.4-23.4l-371.6 371.6"/><linearGradient id="XMLID_227_" gradientUnits="userSpaceOnUse" x1="-144.244" y1="162.405" x2="228.094" y2="162.405"><stop offset="0" stop-color="#e29baa"/><stop offset="1" stop-color="#7c5e75"/></linearGradient><path id="XMLID_1173_" class="st30" d="M227.7-23.4l-371.6 371.6"/><linearGradient id="XMLID_228_" gradientUnits="userSpaceOnUse" x1="-136.944" y1="162.405" x2="235.393" y2="162.405"><stop offset="0" stop-color="#e29baa"/><stop offset="1" stop-color="#7c5e75"/></linearGradient><path id="XMLID_1172_" class="st31" d="M235-23.4l-371.6 371.6"/><linearGradient id="XMLID_229_" gradientUnits="userSpaceOnUse" x1="-129.644" y1="162.405" x2="242.692" y2="162.405"><stop offset="0" stop-color="#e29baa"/><stop offset="1" stop-color="#7c5e75"/></linearGradient><path id="XMLID_1171_" class="st32" d="M242.3-23.4l-371.6 371.6"/><linearGradient id="XMLID_230_" gradientUnits="userSpaceOnUse" x1="-122.345" y1="162.405" x2="249.992" y2="162.405"><stop offset="0" stop-color="#e29baa"/><stop offset="1" stop-color="#7c5e75"/></linearGradient><path id="XMLID_1170_" class="st33" d="M249.6-23.4L-122 348.2"/><linearGradient id="XMLID_231_" gradientUnits="userSpaceOnUse" x1="-115.046" y1="162.405" x2="257.292" y2="162.405"><stop offset="0" stop-color="#e29baa"/><stop offset="1" stop-color="#7c5e75"/></linearGradient><path id="XMLID_1169_" class="st34" d="M256.9-23.4l-371.6 371.6"/><linearGradient id="XMLID_232_" gradientUnits="userSpaceOnUse" x1="-107.746" y1="162.405" x2="264.591" y2="162.405"><stop offset="0" stop-color="#e29baa"/><stop offset="1" stop-color="#7c5e75"/></linearGradient><path id="XMLID_1168_" class="st35" d="M264.2-23.4l-371.6 371.6"/><linearGradient id="XMLID_233_" gradientUnits="userSpaceOnUse" x1="-100.446" y1="162.405" x2="271.891" y2="162.405"><stop offset="0" stop-color="#e29baa"/><stop offset="1" stop-color="#7c5e75"/></linearGradient><path id="XMLID_1167_" class="st36" d="M271.5-23.4l-371.6 371.6"/><linearGradient id="XMLID_234_" gradientUnits="userSpaceOnUse" x1="-93.147" y1="162.405" x2="279.19" y2="162.405"><stop offset="0" stop-color="#e29baa"/><stop offset="1" stop-color="#7c5e75"/></linearGradient><path id="XMLID_1166_" class="st37" d="M278.8-23.4L-92.8 348.2"/><linearGradient id="XMLID_235_" gradientUnits="userSpaceOnUse" x1="-85.847" y1="162.405" x2="286.49" y2="162.405"><stop offset="0" stop-color="#e29baa"/><stop offset="1" stop-color="#7c5e75"/></linearGradient><path id="XMLID_1165_" class="st38" d="M286.1-23.4L-85.5 348.2"/><linearGradient id="XMLID_236_" gradientUnits="userSpaceOnUse" x1="-78.548" y1="162.405" x2="293.789" y2="162.405"><stop offset="0" stop-color="#e29baa"/><stop offset="1" stop-color="#7c5e75"/></linearGradient><path id="XMLID_1164_" class="st39" d="M293.4-23.4L-78.2 348.2"/><linearGradient id="XMLID_237_" gradientUnits="userSpaceOnUse" x1="-71.248" y1="162.405" x2="301.089" y2="162.405"><stop offset="0" stop-color="#e29baa"/><stop offset="1" stop-color="#7c5e75"/></linearGradient><path id="XMLID_1163_" class="st40" d="M300.7-23.4L-70.9 348.2"/><linearGradient id="XMLID_238_" gradientUnits="userSpaceOnUse" x1="-63.949" y1="162.405" x2="308.388" y2="162.405"><stop offset="0" stop-color="#e29baa"/><stop offset="1" stop-color="#7c5e75"/></linearGradient><path id="XMLID_1162_" class="st41" d="M308-23.4L-63.6 348.2"/><linearGradient id="XMLID_239_" gradientUnits="userSpaceOnUse" x1="-56.649" y1="162.405" x2="315.688" y2="162.405"><stop offset="0" stop-color="#e29baa"/><stop offset="1" stop-color="#7c5e75"/></linearGradient><path id="XMLID_1161_" class="st42" d="M315.3-23.4L-56.3 348.2"/><linearGradient id="XMLID_240_" gradientUnits="userSpaceOnUse" x1="-49.35" y1="162.405" x2="322.987" y2="162.405"><stop offset="0" stop-color="#e29baa"/><stop offset="1" stop-color="#7c5e75"/></linearGradient><path id="XMLID_1156_" class="st43" d="M322.6-23.4L-49 348.2"/><linearGradient id="XMLID_241_" gradientUnits="userSpaceOnUse" x1="-42.05" y1="162.405" x2="330.287" y2="162.405"><stop offset="0" stop-color="#e29baa"/><stop offset="1" stop-color="#7c5e75"/></linearGradient><path id="XMLID_1155_" class="st44" d="M329.9-23.4L-41.7 348.2"/><linearGradient id="XMLID_242_" gradientUnits="userSpaceOnUse" x1="-34.751" y1="162.405" x2="337.586" y2="162.405"><stop offset="0" stop-color="#e29baa"/><stop offset="1" stop-color="#7c5e75"/></linearGradient><path id="XMLID_1154_" class="st45" d="M337.2-23.4L-34.4 348.2"/><linearGradient id="XMLID_243_" gradientUnits="userSpaceOnUse" x1="-27.451" y1="162.405" x2="344.886" y2="162.405"><stop offset="0" stop-color="#e29baa"/><stop offset="1" stop-color="#7c5e75"/></linearGradient><path id="XMLID_1153_" class="st46" d="M344.5-23.4L-27.1 348.2"/><linearGradient id="XMLID_244_" gradientUnits="userSpaceOnUse" x1="-20.152" y1="162.405" x2="352.185" y2="162.405"><stop offset="0" stop-color="#e29baa"/><stop offset="1" stop-color="#7c5e75"/></linearGradient><path id="XMLID_1152_" class="st47" d="M351.8-23.4L-19.8 348.2"/><linearGradient id="XMLID_245_" gradientUnits="userSpaceOnUse" x1="-12.852" y1="162.405" x2="359.485" y2="162.405"><stop offset="0" stop-color="#e29baa"/><stop offset="1" stop-color="#7c5e75"/></linearGradient><path id="XMLID_1151_" class="st48" d="M359.1-23.4L-12.5 348.2"/><linearGradient id="XMLID_246_" gradientUnits="userSpaceOnUse" x1="-5.553" y1="162.405" x2="366.784" y2="162.405"><stop offset="0" stop-color="#e29baa"/><stop offset="1" stop-color="#7c5e75"/></linearGradient><path id="XMLID_1150_" class="st49" d="M366.4-23.4L-5.2 348.2"/><linearGradient id="XMLID_247_" gradientUnits="userSpaceOnUse" x1="1.747" y1="162.405" x2="374.084" y2="162.405"><stop offset="0" stop-color="#e29baa"/><stop offset="1" stop-color="#7c5e75"/></linearGradient><path id="XMLID_1149_" class="st50" d="M373.7-23.4L2.1 348.2"/><linearGradient id="XMLID_248_" gradientUnits="userSpaceOnUse" x1="9.046" y1="162.405" x2="381.384" y2="162.405"><stop offset="0" stop-color="#e29baa"/><stop offset="1" stop-color="#7c5e75"/></linearGradient><path id="XMLID_1148_" class="st51" d="M381-23.4L9.4 348.2"/><linearGradient id="XMLID_249_" gradientUnits="userSpaceOnUse" x1="16.346" y1="162.405" x2="388.683" y2="162.405"><stop offset="0" stop-color="#e29baa"/><stop offset="1" stop-color="#7c5e75"/></linearGradient><path id="XMLID_1147_" class="st52" d="M388.3-23.4L16.7 348.2"/><linearGradient id="XMLID_250_" gradientUnits="userSpaceOnUse" x1="23.645" y1="162.405" x2="395.983" y2="162.405"><stop offset="0" stop-color="#e29baa"/><stop offset="1" stop-color="#7c5e75"/></linearGradient><path id="XMLID_1140_" class="st53" d="M395.6-23.4L24 348.2"/><linearGradient id="XMLID_251_" gradientUnits="userSpaceOnUse" x1="30.945" y1="162.405" x2="403.282" y2="162.405"><stop offset="0" stop-color="#e29baa"/><stop offset="1" stop-color="#7c5e75"/></linearGradient><path id="XMLID_1139_" class="st54" d="M402.9-23.4L31.3 348.2"/><linearGradient id="XMLID_252_" gradientUnits="userSpaceOnUse" x1="38.245" y1="162.405" x2="410.582" y2="162.405"><stop offset="0" stop-color="#e29baa"/><stop offset="1" stop-color="#7c5e75"/></linearGradient><path id="XMLID_1138_" class="st55" d="M410.2-23.4L38.6 348.2"/><linearGradient id="XMLID_253_" gradientUnits="userSpaceOnUse" x1="45.544" y1="162.405" x2="417.881" y2="162.405"><stop offset="0" stop-color="#e29baa"/><stop offset="1" stop-color="#7c5e75"/></linearGradient><path id="XMLID_1137_" class="st56" d="M417.5-23.4L45.9 348.2"/><linearGradient id="XMLID_254_" gradientUnits="userSpaceOnUse" x1="52.843" y1="162.405" x2="425.181" y2="162.405"><stop offset="0" stop-color="#e29baa"/><stop offset="1" stop-color="#7c5e75"/></linearGradient><path id="XMLID_1136_" class="st57" d="M424.8-23.4L53.2 348.2"/><linearGradient id="XMLID_255_" gradientUnits="userSpaceOnUse" x1="60.143" y1="162.405" x2="432.48" y2="162.405"><stop offset="0" stop-color="#e29baa"/><stop offset="1" stop-color="#7c5e75"/></linearGradient><path id="XMLID_1135_" class="st58" d="M432.1-23.4L60.5 348.2"/><linearGradient id="XMLID_256_" gradientUnits="userSpaceOnUse" x1="67.443" y1="162.405" x2="439.78" y2="162.405"><stop offset="0" stop-color="#e29baa"/><stop offset="1" stop-color="#7c5e75"/></linearGradient><path id="XMLID_1134_" class="st59" d="M439.4-23.4L67.8 348.2"/><linearGradient id="XMLID_257_" gradientUnits="userSpaceOnUse" x1="74.742" y1="162.405" x2="447.079" y2="162.405"><stop offset="0" stop-color="#e29baa"/><stop offset="1" stop-color="#7c5e75"/></linearGradient><path id="XMLID_1133_" class="st60" d="M446.7-23.4L75.1 348.2"/><linearGradient id="XMLID_258_" gradientUnits="userSpaceOnUse" x1="82.042" y1="162.405" x2="454.379" y2="162.405"><stop offset="0" stop-color="#e29baa"/><stop offset="1" stop-color="#7c5e75"/></linearGradient><path id="XMLID_1132_" class="st61" d="M454-23.4L82.4 348.2"/><linearGradient id="XMLID_259_" gradientUnits="userSpaceOnUse" x1="89.341" y1="162.405" x2="461.678" y2="162.405"><stop offset="0" stop-color="#e29baa"/><stop offset="1" stop-color="#7c5e75"/></linearGradient><path id="XMLID_1131_" class="st62" d="M461.3-23.4L89.7 348.2"/><linearGradient id="XMLID_260_" gradientUnits="userSpaceOnUse" x1="96.641" y1="162.405" x2="468.978" y2="162.405"><stop offset="0" stop-color="#e29baa"/><stop offset="1" stop-color="#7c5e75"/></linearGradient><path id="XMLID_1130_" class="st63" d="M468.6-23.4L97 348.2"/><linearGradient id="XMLID_261_" gradientUnits="userSpaceOnUse" x1="103.94" y1="162.405" x2="476.277" y2="162.405"><stop offset="0" stop-color="#e29baa"/><stop offset="1" stop-color="#7c5e75"/></linearGradient><path id="XMLID_1129_" class="st64" d="M475.9-23.4L104.3 348.2"/><linearGradient id="XMLID_262_" gradientUnits="userSpaceOnUse" x1="111.24" y1="162.405" x2="483.577" y2="162.405"><stop offset="0" stop-color="#e29baa"/><stop offset="1" stop-color="#7c5e75"/></linearGradient><path id="XMLID_1128_" class="st65" d="M483.2-23.4L111.6 348.2"/><linearGradient id="XMLID_263_" gradientUnits="userSpaceOnUse" x1="118.539" y1="162.405" x2="490.876" y2="162.405"><stop offset="0" stop-color="#e29baa"/><stop offset="1" stop-color="#7c5e75"/></linearGradient><path id="XMLID_1127_" class="st66" d="M490.5-23.4L118.9 348.2"/><linearGradient id="XMLID_264_" gradientUnits="userSpaceOnUse" x1="125.839" y1="162.405" x2="498.176" y2="162.405"><stop offset="0" stop-color="#e29baa"/><stop offset="1" stop-color="#7c5e75"/></linearGradient><path id="XMLID_1126_" class="st67" d="M497.8-23.4L126.2 348.2"/><linearGradient id="XMLID_265_" gradientUnits="userSpaceOnUse" x1="133.138" y1="162.405" x2="505.475" y2="162.405"><stop offset="0" stop-color="#e29baa"/><stop offset="1" stop-color="#7c5e75"/></linearGradient><path id="XMLID_1125_" class="st68" d="M505.1-23.4L133.5 348.2"/><linearGradient id="XMLID_266_" gradientUnits="userSpaceOnUse" x1="140.438" y1="162.405" x2="512.775" y2="162.405"><stop offset="0" stop-color="#e29baa"/><stop offset="1" stop-color="#7c5e75"/></linearGradient><path id="XMLID_1124_" class="st69" d="M512.4-23.4L140.8 348.2"/><linearGradient id="XMLID_267_" gradientUnits="userSpaceOnUse" x1="147.737" y1="162.405" x2="520.074" y2="162.405"><stop offset="0" stop-color="#e29baa"/><stop offset="1" stop-color="#7c5e75"/></linearGradient><path id="XMLID_1123_" class="st70" d="M519.7-23.4L148.1 348.2"/><linearGradient id="XMLID_268_" gradientUnits="userSpaceOnUse" x1="155.037" y1="162.405" x2="527.374" y2="162.405"><stop offset="0" stop-color="#e29baa"/><stop offset="1" stop-color="#7c5e75"/></linearGradient><path id="XMLID_1122_" class="st71" d="M527-23.4L155.4 348.2"/><linearGradient id="XMLID_269_" gradientUnits="userSpaceOnUse" x1="162.336" y1="162.405" x2="534.673" y2="162.405"><stop offset="0" stop-color="#e29baa"/><stop offset="1" stop-color="#7c5e75"/></linearGradient><path id="XMLID_1120_" class="st72" d="M534.3-23.4L162.7 348.2"/><linearGradient id="XMLID_270_" gradientUnits="userSpaceOnUse" x1="169.636" y1="162.405" x2="541.973" y2="162.405"><stop offset="0" stop-color="#e29baa"/><stop offset="1" stop-color="#7c5e75"/></linearGradient><path id="XMLID_1119_" class="st73" d="M541.6-23.4L170 348.2"/><linearGradient id="XMLID_271_" gradientUnits="userSpaceOnUse" x1="176.935" y1="162.405" x2="549.273" y2="162.405"><stop offset="0" stop-color="#e29baa"/><stop offset="1" stop-color="#7c5e75"/></linearGradient><path id="XMLID_1118_" class="st74" d="M548.9-23.4L177.3 348.2"/><linearGradient id="XMLID_272_" gradientUnits="userSpaceOnUse" x1="184.235" y1="162.405" x2="556.572" y2="162.405"><stop offset="0" stop-color="#e29baa"/><stop offset="1" stop-color="#7c5e75"/></linearGradient><path id="XMLID_1117_" class="st75" d="M556.2-23.4L184.6 348.2"/><linearGradient id="XMLID_273_" gradientUnits="userSpaceOnUse" x1="191.535" y1="162.405" x2="563.871" y2="162.405"><stop offset="0" stop-color="#e29baa"/><stop offset="1" stop-color="#7c5e75"/></linearGradient><path id="XMLID_1116_" class="st76" d="M563.5-23.4L191.9 348.2"/><linearGradient id="XMLID_274_" gradientUnits="userSpaceOnUse" x1="198.834" y1="162.405" x2="571.171" y2="162.405"><stop offset="0" stop-color="#e29baa"/><stop offset="1" stop-color="#7c5e75"/></linearGradient><path id="XMLID_1114_" class="st77" d="M570.8-23.4L199.2 348.2"/><linearGradient id="XMLID_275_" gradientUnits="userSpaceOnUse" x1="206.133" y1="162.405" x2="578.471" y2="162.405"><stop offset="0" stop-color="#e29baa"/><stop offset="1" stop-color="#7c5e75"/></linearGradient><path id="XMLID_1110_" class="st78" d="M578.1-23.4L206.5 348.2"/><linearGradient id="XMLID_276_" gradientUnits="userSpaceOnUse" x1="213.433" y1="162.405" x2="585.77" y2="162.405"><stop offset="0" stop-color="#e29baa"/><stop offset="1" stop-color="#7c5e75"/></linearGradient><path id="XMLID_1109_" class="st79" d="M585.4-23.4L213.8 348.2"/><linearGradient id="XMLID_277_" gradientUnits="userSpaceOnUse" x1="220.732" y1="162.405" x2="593.07" y2="162.405"><stop offset="0" stop-color="#e29baa"/><stop offset="1" stop-color="#7c5e75"/></linearGradient><path id="XMLID_1108_" class="st80" d="M592.7-23.4L221.1 348.2"/><linearGradient id="XMLID_278_" gradientUnits="userSpaceOnUse" x1="228.032" y1="162.405" x2="600.369" y2="162.405"><stop offset="0" stop-color="#e29baa"/><stop offset="1" stop-color="#7c5e75"/></linearGradient><path id="XMLID_1107_" class="st81" d="M600-23.4L228.4 348.2"/><linearGradient id="XMLID_279_" gradientUnits="userSpaceOnUse" x1="235.332" y1="162.405" x2="607.669" y2="162.405"><stop offset="0" stop-color="#e29baa"/><stop offset="1" stop-color="#7c5e75"/></linearGradient><path id="XMLID_1071_" class="st82" d="M607.3-23.4L235.7 348.2"/><linearGradient id="XMLID_280_" gradientUnits="userSpaceOnUse" x1="242.631" y1="162.405" x2="614.968" y2="162.405"><stop offset="0" stop-color="#e29baa"/><stop offset="1" stop-color="#7c5e75"/></linearGradient><path id="XMLID_1070_" class="st83" d="M614.6-23.4L243 348.2"/><linearGradient id="XMLID_281_" gradientUnits="userSpaceOnUse" x1="249.931" y1="162.405" x2="622.268" y2="162.405"><stop offset="0" stop-color="#e29baa"/><stop offset="1" stop-color="#7c5e75"/></linearGradient><path id="XMLID_1069_" class="st84" d="M621.9-23.4L250.3 348.2"/><linearGradient id="XMLID_282_" gradientUnits="userSpaceOnUse" x1="257.23" y1="162.405" x2="629.567" y2="162.405"><stop offset="0" stop-color="#e29baa"/><stop offset="1" stop-color="#7c5e75"/></linearGradient><path id="XMLID_1068_" class="st85" d="M629.2-23.4L257.6 348.2"/><linearGradient id="XMLID_283_" gradientUnits="userSpaceOnUse" x1="264.53" y1="162.405" x2="636.867" y2="162.405"><stop offset="0" stop-color="#e29baa"/><stop offset="1" stop-color="#7c5e75"/></linearGradient><path id="XMLID_1067_" class="st86" d="M636.5-23.4L264.9 348.2"/><linearGradient id="XMLID_284_" gradientUnits="userSpaceOnUse" x1="271.829" y1="162.405" x2="644.166" y2="162.405"><stop offset="0" stop-color="#e29baa"/><stop offset="1" stop-color="#7c5e75"/></linearGradient><path id="XMLID_1066_" class="st87" d="M643.8-23.4L272.2 348.2"/><linearGradient id="XMLID_285_" gradientUnits="userSpaceOnUse" x1="279.129" y1="162.405" x2="651.466" y2="162.405"><stop offset="0" stop-color="#e29baa"/><stop offset="1" stop-color="#7c5e75"/></linearGradient><path id="XMLID_1064_" class="st88" d="M651.1-23.4L279.5 348.2"/><linearGradient id="XMLID_286_" gradientUnits="userSpaceOnUse" x1="286.428" y1="162.405" x2="658.765" y2="162.405"><stop offset="0" stop-color="#e29baa"/><stop offset="1" stop-color="#7c5e75"/></linearGradient><path id="XMLID_1062_" class="st89" d="M658.4-23.4L286.8 348.2"/><linearGradient id="XMLID_287_" gradientUnits="userSpaceOnUse" x1="293.728" y1="162.405" x2="666.065" y2="162.405"><stop offset="0" stop-color="#e29baa"/><stop offset="1" stop-color="#7c5e75"/></linearGradient><path id="XMLID_1061_" class="st90" d="M665.7-23.4L294.1 348.2"/><linearGradient id="XMLID_288_" gradientUnits="userSpaceOnUse" x1="301.027" y1="162.405" x2="673.364" y2="162.405"><stop offset="0" stop-color="#e29baa"/><stop offset="1" stop-color="#7c5e75"/></linearGradient><path id="XMLID_1060_" class="st91" d="M673-23.4L301.4 348.2"/><linearGradient id="XMLID_289_" gradientUnits="userSpaceOnUse" x1="308.327" y1="162.405" x2="680.664" y2="162.405"><stop offset="0" stop-color="#e29baa"/><stop offset="1" stop-color="#7c5e75"/></linearGradient><path id="XMLID_1059_" class="st92" d="M680.3-23.4L308.7 348.2"/><linearGradient id="XMLID_290_" gradientUnits="userSpaceOnUse" x1="315.626" y1="162.405" x2="687.963" y2="162.405"><stop offset="0" stop-color="#e29baa"/><stop offset="1" stop-color="#7c5e75"/></linearGradient><path id="XMLID_1058_" class="st93" d="M687.6-23.4L316 348.2"/><linearGradient id="XMLID_291_" gradientUnits="userSpaceOnUse" x1="322.926" y1="162.405" x2="695.263" y2="162.405"><stop offset="0" stop-color="#e29baa"/><stop offset="1" stop-color="#7c5e75"/></linearGradient><path id="XMLID_1057_" class="st94" d="M694.9-23.4L323.3 348.2"/><linearGradient id="XMLID_292_" gradientUnits="userSpaceOnUse" x1="330.225" y1="162.405" x2="702.562" y2="162.405"><stop offset="0" stop-color="#e29baa"/><stop offset="1" stop-color="#7c5e75"/></linearGradient><path id="XMLID_1056_" class="st95" d="M702.2-23.4L330.6 348.2"/><linearGradient id="XMLID_293_" gradientUnits="userSpaceOnUse" x1="337.525" y1="162.405" x2="709.862" y2="162.405"><stop offset="0" stop-color="#e29baa"/><stop offset="1" stop-color="#7c5e75"/></linearGradient><path id="XMLID_1055_" class="st96" d="M709.5-23.4L337.9 348.2"/><linearGradient id="XMLID_294_" gradientUnits="userSpaceOnUse" x1="344.824" y1="162.405" x2="717.162" y2="162.405"><stop offset="0" stop-color="#e29baa"/><stop offset="1" stop-color="#7c5e75"/></linearGradient><path id="XMLID_1054_" class="st97" d="M716.8-23.4L345.2 348.2"/><linearGradient id="XMLID_295_" gradientUnits="userSpaceOnUse" x1="352.124" y1="162.405" x2="724.461" y2="162.405"><stop offset="0" stop-color="#e29baa"/><stop offset="1" stop-color="#7c5e75"/></linearGradient><path id="XMLID_1051_" class="st98" d="M724.1-23.4L352.5 348.2"/><linearGradient id="XMLID_296_" gradientUnits="userSpaceOnUse" x1="359.423" y1="162.405" x2="731.76" y2="162.405"><stop offset="0" stop-color="#e29baa"/><stop offset="1" stop-color="#7c5e75"/></linearGradient><path id="XMLID_1034_" class="st99" d="M731.4-23.4L359.8 348.2"/><linearGradient id="XMLID_297_" gradientUnits="userSpaceOnUse" x1="366.723" y1="162.405" x2="739.06" y2="162.405"><stop offset="0" stop-color="#e29baa"/><stop offset="1" stop-color="#7c5e75"/></linearGradient><path id="XMLID_1031_" class="st100" d="M738.7-23.4L367.1 348.2"/><linearGradient id="XMLID_298_" gradientUnits="userSpaceOnUse" x1="374.022" y1="162.405" x2="746.36" y2="162.405"><stop offset="0" stop-color="#e29baa"/><stop offset="1" stop-color="#7c5e75"/></linearGradient><path id="XMLID_1027_" class="st101" d="M746-23.4L374.4 348.2"/><linearGradient id="XMLID_299_" gradientUnits="userSpaceOnUse" x1="381.322" y1="162.405" x2="753.659" y2="162.405"><stop offset="0" stop-color="#e29baa"/><stop offset="1" stop-color="#7c5e75"/></linearGradient><path id="XMLID_1026_" class="st102" d="M753.3-23.4L381.7 348.2"/><linearGradient id="XMLID_300_" gradientUnits="userSpaceOnUse" x1="388.622" y1="162.405" x2="760.959" y2="162.405"><stop offset="0" stop-color="#e29baa"/><stop offset="1" stop-color="#7c5e75"/></linearGradient><path id="XMLID_1023_" class="st103" d="M760.6-23.4L389 348.2"/><linearGradient id="XMLID_301_" gradientUnits="userSpaceOnUse" x1="395.921" y1="162.405" x2="768.258" y2="162.405"><stop offset="0" stop-color="#e29baa"/><stop offset="1" stop-color="#7c5e75"/></linearGradient><path id="XMLID_1022_" class="st104" d="M767.9-23.4L396.3 348.2"/><linearGradient id="XMLID_302_" gradientUnits="userSpaceOnUse" x1="403.221" y1="162.405" x2="775.558" y2="162.405"><stop offset="0" stop-color="#e29baa"/><stop offset="1" stop-color="#7c5e75"/></linearGradient><path id="XMLID_1021_" class="st105" d="M775.2-23.4L403.6 348.2"/><linearGradient id="XMLID_303_" gradientUnits="userSpaceOnUse" x1="410.52" y1="162.405" x2="782.857" y2="162.405"><stop offset="0" stop-color="#e29baa"/><stop offset="1" stop-color="#7c5e75"/></linearGradient><path id="XMLID_1015_" class="st106" d="M782.5-23.4L410.9 348.2"/><linearGradient id="XMLID_304_" gradientUnits="userSpaceOnUse" x1="417.82" y1="162.405" x2="790.157" y2="162.405"><stop offset="0" stop-color="#e29baa"/><stop offset="1" stop-color="#7c5e75"/></linearGradient><path id="XMLID_1013_" class="st107" d="M789.8-23.4L418.2 348.2"/><linearGradient id="XMLID_305_" gradientUnits="userSpaceOnUse" x1="425.119" y1="162.405" x2="797.456" y2="162.405"><stop offset="0" stop-color="#e29baa"/><stop offset="1" stop-color="#7c5e75"/></linearGradient><path id="XMLID_955_" class="st108" d="M797.1-23.4L425.5 348.2"/><linearGradient id="XMLID_306_" gradientUnits="userSpaceOnUse" x1="432.419" y1="162.405" x2="804.756" y2="162.405"><stop offset="0" stop-color="#e29baa"/><stop offset="1" stop-color="#7c5e75"/></linearGradient><path id="XMLID_953_" class="st109" d="M804.4-23.4L432.8 348.2"/><linearGradient id="XMLID_307_" gradientUnits="userSpaceOnUse" x1="439.718" y1="162.405" x2="812.055" y2="162.405"><stop offset="0" stop-color="#e29baa"/><stop offset="1" stop-color="#7c5e75"/></linearGradient><path id="XMLID_952_" class="st110" d="M811.7-23.4L440.1 348.2"/><linearGradient id="XMLID_308_" gradientUnits="userSpaceOnUse" x1="447.018" y1="162.405" x2="819.355" y2="162.405"><stop offset="0" stop-color="#e29baa"/><stop offset="1" stop-color="#7c5e75"/></linearGradient><path id="XMLID_950_" class="st111" d="M819-23.4L447.4 348.2"/><linearGradient id="XMLID_309_" gradientUnits="userSpaceOnUse" x1="454.317" y1="162.405" x2="826.654" y2="162.405"><stop offset="0" stop-color="#e29baa"/><stop offset="1" stop-color="#7c5e75"/></linearGradient><path id="XMLID_947_" class="st112" d="M826.3-23.4L454.7 348.2"/><linearGradient id="XMLID_310_" gradientUnits="userSpaceOnUse" x1="461.617" y1="162.405" x2="833.954" y2="162.405"><stop offset="0" stop-color="#e29baa"/><stop offset="1" stop-color="#7c5e75"/></linearGradient><path id="XMLID_946_" class="st113" d="M833.6-23.4L462 348.2"/><linearGradient id="XMLID_311_" gradientUnits="userSpaceOnUse" x1="468.916" y1="162.405" x2="841.253" y2="162.405"><stop offset="0" stop-color="#e29baa"/><stop offset="1" stop-color="#7c5e75"/></linearGradient><path id="XMLID_945_" class="st114" d="M840.9-23.4L469.3 348.2"/><linearGradient id="XMLID_312_" gradientUnits="userSpaceOnUse" x1="476.216" y1="162.405" x2="848.553" y2="162.405"><stop offset="0" stop-color="#e29baa"/><stop offset="1" stop-color="#7c5e75"/></linearGradient><path id="XMLID_943_" class="st115" d="M848.2-23.4L476.6 348.2"/></g></g></svg>