<svg id="Layer_1" xmlns="http://www.w3.org/2000/svg" viewBox="0 0 152 100"><style>.st0{fill:none;stroke-linecap:round;stroke-miterlimit:10}.st0,.st1{stroke-width:.7432}.st1,.st2{fill:none;stroke-miterlimit:10}.st2{stroke-width:.7825}</style><g id="XMLID_773_"><g id="XMLID_790_"><path id="XMLID_993_" class="st0" d="M70.6 25.4c.8-.3 1.7-.4 2.6-.4h75.1"/><path id="XMLID_992_" class="st0" d="M66.4 40.4c-1.4-1.6-2.2-3.8-2.2-6.1 0-2.7 1.2-5.2 3.1-6.9"/><path id="XMLID_991_" class="st0" d="M74 43.5c3.5-.4 6.3-2.8 7.4-6"/><path id="XMLID_990_" class="st0" d="M71.6 43.4c-.7-.1-1.4-.3-2-.6"/><path id="XMLID_989_" class="st0" d="M68.9 22.2c1.4-.5 3-.8 4.6-.8h67.3"/><path id="XMLID_988_" class="st0" d="M64 44.1c-2.4-2.4-3.9-5.7-3.9-9.4 0-4.5 2.2-8.4 5.6-10.8"/><path id="XMLID_987_" class="st0" d="M74.1 48c6.1-.3 11-4.6 12.3-10.4"/><path id="XMLID_986_" class="st0" d="M71.5 47.9c-1.6-.2-3.2-.8-4.6-1.6"/><path id="XMLID_985_" class="st0" d="M67.2 18.9c2-.9 4.3-1.3 6.6-1.3h60.4"/><path id="XMLID_981_" class="st0" d="M62.1 47.1c-3.3-3.1-5.4-7.5-5.4-12.5 0-5.9 3-11.2 7.6-14.2"/><path id="XMLID_978_" class="st0" d="M74.2 51.7c8.2-.2 14.9-6.2 16.4-14"/><path id="XMLID_977_" class="st0" d="M64.7 49.1c2 1.3 4.2 2.1 6.7 2.5"/><path id="XMLID_975_" class="st0" d="M40.5 49.3c-.3.1-.6.1-.9.2"/><path id="XMLID_973_" class="st0" d="M37.8 49.4H1"/><path id="XMLID_972_" class="st0" d="M32.7 40.8c.7-3 3.3-5.3 6.5-5.3.8 0 1.5.1 2.2.4"/><path id="XMLID_970_" class="st0" d="M44 37.8c1.1 1.2 1.8 2.9 1.8 4.7 0 2.1-.9 4-2.4 5.2"/><path id="XMLID_969_" class="st0" d="M42 51.7c-.7.2-1.5.4-2.2.5"/><path id="XMLID_968_" class="st0" d="M37.7 52.2H6.6"/><path id="XMLID_967_" class="st0" d="M28.9 40.8c.7-4.9 4.8-8.7 9.9-8.7 1.6 0 3.1.4 4.5 1.1"/><path id="XMLID_966_" class="st0" d="M45.7 34.9c1.9 1.8 3.1 4.4 3.1 7.3 0 3.3-1.6 6.3-4.2 8.1"/><path id="XMLID_965_" class="st0" d="M43.4 54.1c-1.1.5-2.3.8-3.6.9"/><path id="XMLID_963_" class="st0" d="M37.6 55h-26"/><path id="XMLID_962_" class="st0" d="M25.8 40.9c.7-6.5 6.1-11.5 12.8-11.5 2.3 0 4.4.6 6.3 1.6"/><path id="XMLID_960_" class="st0" d="M47 32.6c2.7 2.3 4.4 5.8 4.4 9.6 0 4.4-2.2 8.3-5.6 10.6"/><path id="XMLID_959_" class="st1" d="M84.7 83.6c1.8-.3 3.7-.5 5.6-.5 9.8 0 18.5 4.9 23.9 11.9"/><path id="XMLID_929_" class="st1" d="M39.6 47.7l.1 1.7v2.8l.1 2.8.5 22.5"/><path id="XMLID_927_" class="st1" d="M37.9 45.1l-.1 4.3-.1 2.8-.1 2.8-.5 23.7"/><path id="XMLID_926_" class="st1" d="M37 44.5l-21.9-2v-1.6h10.7l3.1-.1h8.3"/><path id="XMLID_925_" class="st1" d="M38.2 45.3l1.4 2.4.9 1.6 1.5 2.4 1.4 2.4 5.9 10.2 1.5-.7-5-10.8-1.2-2.5-1.2-2.6-1.9-4.2"/><path id="XMLID_924_" class="st1" d="M38.4 40.2l3-4.2 1.9-2.8 1.6-2.2 6.2-8.9 1.4.9-5.5 9.6-1.3 2.3-1.7 2.9-2.4 4.4"/><circle id="XMLID_923_" class="st1" cx="39" cy="42.7" r="2.6"/><circle id="XMLID_859_" class="st1" cx="39" cy="42.7" r="1.2"/><path id="XMLID_858_" class="st1" d="M116.8 94.9H96.9c-3.4-4.3-7.5-8.2-12.2-11.3-3.1-2.1-6.4-3.8-9.9-5.2"/><path id="XMLID_832_" class="st1" d="M70.8 77c-4.6-1.4-9.4-2.1-14.4-2.1-5.6 0-11 .9-16 2.7-1.1.4-2.2.8-3.2 1.2C28.7 82.3 21.4 88 16 95"/><path id="XMLID_831_" class="st1" d="M73.9 31.6l-12.7-24-1.8.8 10.3 25.1"/><path id="XMLID_829_" class="st1" d="M56.7 89.1h13.8l1.2-49"/><path id="XMLID_827_" class="st1" d="M73.9 37.8l1.2 51.3h8.3"/><path id="XMLID_826_" class="st1" d="M73.4 37.9L56.8 59.4l-1.7-1.1 14.5-23"/><path id="XMLID_821_" class="st1" d="M75.3 32.6l26.9 3.6-.1 2-27.2-1"/><circle id="XMLID_819_" class="st1" cx="72.8" cy="34.7" r="3.3"/><circle id="XMLID_818_" class="st1" cx="72.8" cy="34.7" r="1.5"/><path id="XMLID_816_" class="st0" d="M140.8 3.1c5 0 9.1 4.1 9.1 9.1s-4.1 9.1-9.1 9.1"/><path id="XMLID_791_" class="st0" d="M143 14.3h-42.3"/></g><path id="XMLID_788_" class="st2" d="M118.6 94.9h3.8"/><path id="XMLID_774_" class="st2" d="M123.7 94.9h1"/></g></svg>